<svg xmlns="http://www.w3.org/2000/svg" xmlns:xlink="http://www.w3.org/1999/xlink" width="373" height="256" viewBox="0 0 373 256">
    <defs>
        <filter id="Rectángulo_67" x="0" y="0" width="373" height="239" filterUnits="userSpaceOnUse">
            <feOffset dy="3" input="SourceAlpha"/>
            <feGaussianBlur stdDeviation="3" result="blur"/>
            <feFlood flood-opacity="0.161"/>
            <feComposite operator="in" in2="blur"/>
            <feComposite in="SourceGraphic"/>
        </filter>
        <filter id="Polígono_9" x="53.545" y="58.354" width="170.173" height="169.162" filterUnits="userSpaceOnUse">
            <feOffset dy="3" input="SourceAlpha"/>
            <feGaussianBlur stdDeviation="3" result="blur-2"/>
            <feFlood flood-opacity="0.161"/>
            <feComposite operator="in" in2="blur-2"/>
            <feComposite in="SourceGraphic"/>
        </filter>
        <filter id="Polígono_10" x="50.923" y="25.699" width="159.284" height="155.352" filterUnits="userSpaceOnUse">
            <feOffset dy="3" input="SourceAlpha"/>
            <feGaussianBlur stdDeviation="3" result="blur-3"/>
            <feFlood flood-opacity="0.161"/>
            <feComposite operator="in" in2="blur-3"/>
            <feComposite in="SourceGraphic"/>
        </filter>
        <filter id="Polígono_8" x="29.007" y="54.85" width="139.101" height="144.919" filterUnits="userSpaceOnUse">
            <feOffset dy="3" input="SourceAlpha"/>
            <feGaussianBlur stdDeviation="3" result="blur-4"/>
            <feFlood flood-opacity="0.161"/>
            <feComposite operator="in" in2="blur-4"/>
            <feComposite in="SourceGraphic"/>
        </filter>
        <filter id="Línea_7" x="27.998" y="49.5" width="185.504" height="22.158" filterUnits="userSpaceOnUse">
            <feOffset dy="3" input="SourceAlpha"/>
            <feGaussianBlur stdDeviation="3" result="blur-5"/>
            <feFlood flood-opacity="0.161"/>
            <feComposite operator="in" in2="blur-5"/>
            <feComposite in="SourceGraphic"/>
        </filter>
        <filter id="Línea_10" x="27.998" y="65.5" width="185.504" height="22.158" filterUnits="userSpaceOnUse">
            <feOffset dy="3" input="SourceAlpha"/>
            <feGaussianBlur stdDeviation="3" result="blur-6"/>
            <feFlood flood-opacity="0.161"/>
            <feComposite operator="in" in2="blur-6"/>
            <feComposite in="SourceGraphic"/>
        </filter>
        <filter id="Línea_11" x="27.998" y="81.5" width="185.504" height="22.158" filterUnits="userSpaceOnUse">
            <feOffset dy="3" input="SourceAlpha"/>
            <feGaussianBlur stdDeviation="3" result="blur-7"/>
            <feFlood flood-opacity="0.161"/>
            <feComposite operator="in" in2="blur-7"/>
            <feComposite in="SourceGraphic"/>
        </filter>
        <filter id="Línea_12" x="27.998" y="97.5" width="185.504" height="22.158" filterUnits="userSpaceOnUse">
            <feOffset dy="3" input="SourceAlpha"/>
            <feGaussianBlur stdDeviation="3" result="blur-8"/>
            <feFlood flood-opacity="0.161"/>
            <feComposite operator="in" in2="blur-8"/>
            <feComposite in="SourceGraphic"/>
        </filter>
        <filter id="Línea_13" x="27.998" y="113.5" width="185.504" height="22.158" filterUnits="userSpaceOnUse">
            <feOffset dy="3" input="SourceAlpha"/>
            <feGaussianBlur stdDeviation="3" result="blur-9"/>
            <feFlood flood-opacity="0.161"/>
            <feComposite operator="in" in2="blur-9"/>
            <feComposite in="SourceGraphic"/>
        </filter>
        <filter id="Línea_14" x="27.998" y="129.5" width="185.504" height="22.158" filterUnits="userSpaceOnUse">
            <feOffset dy="3" input="SourceAlpha"/>
            <feGaussianBlur stdDeviation="3" result="blur-10"/>
            <feFlood flood-opacity="0.161"/>
            <feComposite operator="in" in2="blur-10"/>
            <feComposite in="SourceGraphic"/>
        </filter>
        <filter id="Línea_15" x="27.998" y="145.5" width="185.504" height="22.158" filterUnits="userSpaceOnUse">
            <feOffset dy="3" input="SourceAlpha"/>
            <feGaussianBlur stdDeviation="3" result="blur-11"/>
            <feFlood flood-opacity="0.161"/>
            <feComposite operator="in" in2="blur-11"/>
            <feComposite in="SourceGraphic"/>
        </filter>
        <filter id="Línea_16" x="27.998" y="161.5" width="185.504" height="22.158" filterUnits="userSpaceOnUse">
            <feOffset dy="3" input="SourceAlpha"/>
            <feGaussianBlur stdDeviation="3" result="blur-12"/>
            <feFlood flood-opacity="0.161"/>
            <feComposite operator="in" in2="blur-12"/>
            <feComposite in="SourceGraphic"/>
        </filter>
        <filter id="Línea_17" x="27.998" y="177.5" width="185.504" height="22.158" filterUnits="userSpaceOnUse">
            <feOffset dy="3" input="SourceAlpha"/>
            <feGaussianBlur stdDeviation="3" result="blur-13"/>
            <feFlood flood-opacity="0.161"/>
            <feComposite operator="in" in2="blur-13"/>
            <feComposite in="SourceGraphic"/>
        </filter>
        <filter id="Línea_18" x="27.998" y="33.5" width="185.504" height="22.158" filterUnits="userSpaceOnUse">
            <feOffset dy="3" input="SourceAlpha"/>
            <feGaussianBlur stdDeviation="3" result="blur-14"/>
            <feFlood flood-opacity="0.161"/>
            <feComposite operator="in" in2="blur-14"/>
            <feComposite in="SourceGraphic"/>
        </filter>
        <filter id="Rectángulo_71" x="59" y="215" width="79" height="41" filterUnits="userSpaceOnUse">
            <feOffset dy="3" input="SourceAlpha"/>
            <feGaussianBlur stdDeviation="3" result="blur-15"/>
            <feFlood flood-opacity="0.161"/>
            <feComposite operator="in" in2="blur-15"/>
            <feComposite in="SourceGraphic"/>
        </filter>
        <filter id="Rectángulo_72" x="235" y="215" width="79" height="41" filterUnits="userSpaceOnUse">
            <feOffset dy="3" input="SourceAlpha"/>
            <feGaussianBlur stdDeviation="3" result="blur-16"/>
            <feFlood flood-opacity="0.161"/>
            <feComposite operator="in" in2="blur-16"/>
            <feComposite in="SourceGraphic"/>
        </filter>
    </defs>
    <g transform="matrix(1, 0, 0, 1, 0, 0)" filter="url(#Rectángulo_67)">
        <g id="Rectángulo_67-2" data-name="Rectángulo 67" transform="translate(9 6)" fill="#9e5e03" stroke="#fff" stroke-width="8">
            <rect width="355" height="221" rx="20" stroke="none"/>
            <rect x="4" y="4" width="347" height="213" rx="16" fill="none"/>
        </g>
    </g>
    <rect id="Rectángulo_60" data-name="Rectángulo 60" width="167" height="167" rx="5" transform="translate(37 32)" fill="#f0ddc2"/>
    <g transform="matrix(1, 0, 0, 1, 0, 0)" filter="url(#Polígono_9)">
        <g id="Polígono_9-2" data-name="Polígono 9" transform="translate(62.55 134.37) rotate(-39)" fill="#9e5e03">
            <path d="M 61.28036880493164 100.4172744750977 L 49.9737434387207 100.4172744750977 C 47.57051467895508 100.4172744750977 45.21036911010742 100.103515625 42.95885467529297 99.48472595214844 C 40.80567169189453 98.89297485351562 38.73888397216797 98.01935577392578 36.81589889526367 96.88816070556641 C 33.09645462036133 94.70021820068359 29.93801307678223 91.55734252929688 27.68202781677246 87.79933166503906 C 25.4260425567627 84.04132843017578 24.13726997375488 79.77606964111328 23.95504188537598 75.46466827392578 C 23.8608283996582 73.23562622070312 24.06157112121582 71.00077056884766 24.55167007446289 68.82221221923828 C 25.06417083740234 66.54415893554688 25.8969554901123 64.31364440917969 27.02689933776855 62.1926155090332 L 32.68021392822266 51.5807991027832 C 33.87770080566406 49.33300018310547 35.3548698425293 47.29909896850586 37.07068634033203 45.53558731079102 C 38.70475769042969 43.85610198974609 40.56234359741211 42.41339874267578 42.59182739257812 41.24758529663086 C 46.51192855834961 38.9957275390625 51.01944351196289 37.80547332763672 55.62705612182617 37.80547332763672 C 60.23466873168945 37.80547332763672 64.7421875 38.9957275390625 68.66228485107422 41.24758529663086 C 70.6917724609375 42.41339874267578 72.54935455322266 43.85610198974609 74.18342590332031 45.53558731079102 C 75.89923858642578 47.29909896850586 77.37641143798828 49.33300018310547 78.57389831542969 51.5807991027832 L 84.22721099853516 62.19260025024414 C 85.35715484619141 64.31362915039062 86.18994140625 66.54414367675781 86.70243835449219 68.82219696044922 C 87.19254302978516 71.00077056884766 87.39328765869141 73.23561096191406 87.299072265625 75.46466827392578 C 87.11684417724609 79.77606964111328 85.82807159423828 84.04132843017578 83.57208251953125 87.79933929443359 C 81.31608581542969 91.55734252929688 78.15765380859375 94.70021820068359 74.43820953369141 96.88816833496094 C 72.51522827148438 98.01935577392578 70.44842529296875 98.89297485351562 68.29525756835938 99.48472595214844 C 66.04373931884766 100.103515625 63.68359756469727 100.4172744750977 61.28036880493164 100.4172744750977 Z" stroke="none"/>
            <path d="M 55.62705612182617 41.80544281005859 C 47.35729598999023 41.80544281005859 40.0987548828125 46.16286468505859 36.21047973632812 53.46152496337891 L 30.55717468261719 64.07332611083984 C 26.89091491699219 70.95524597167969 27.09815979003906 79.05513000488281 31.11151885986328 85.74053955078125 C 35.1248779296875 92.42596435546875 42.17617797851562 96.41726684570312 49.97373580932617 96.41726684570312 L 61.28037643432617 96.41726684570312 C 69.07793426513672 96.41726684570312 76.12921142578125 92.42596435546875 80.142578125 85.74053955078125 C 84.15596008300781 79.05513000488281 84.36317443847656 70.95523071289062 80.69693756103516 64.07332611083984 L 75.04361724853516 53.46152496337891 C 71.15533447265625 46.16286468505859 63.89679718017578 41.80544281005859 55.62705612182617 41.80544281005859 M 55.62705230712891 33.80545806884766 C 66.04306030273438 33.80545806884766 76.45906066894531 39.10366821289062 82.10417175292969 49.70008850097656 L 87.75749206542969 60.31188201904297 C 98.40305328369141 80.29462432861328 83.92185974121094 104.4172668457031 61.28037643432617 104.4172668457031 L 49.97373580932617 104.4172668457031 C 27.33223724365234 104.4172668457031 12.85105895996094 80.29462432861328 23.49659729003906 60.31190490722656 L 29.14991760253906 49.70008850097656 C 34.79503631591797 39.10366821289062 45.21104431152344 33.80545806884766 55.62705230712891 33.80545806884766 Z" stroke="none" fill="#fff"/>
        </g>
    </g>
    <g transform="matrix(1, 0, 0, 1, 0, 0)" filter="url(#Polígono_10)">
        <g id="Polígono_10-2" data-name="Polígono 10" transform="matrix(-0.93, -0.36, 0.36, -0.93, 163.79, 169.05)" fill="#9e5e03">
            <path d="M 61.28036499023438 100.4172821044922 L 49.97373962402344 100.4172821044922 C 47.57051086425781 100.4172821044922 45.21036529541016 100.1035232543945 42.9588508605957 99.48473358154297 C 40.80566787719727 98.89298248291016 38.7388801574707 98.01936340332031 36.81589508056641 96.88816833496094 C 33.09645080566406 94.70022583007812 29.93800926208496 91.55735015869141 27.6820240020752 87.79933929443359 C 25.42603874206543 84.04133605957031 24.13726615905762 79.77607727050781 23.95503807067871 75.46467590332031 C 23.86082458496094 73.23563385009766 24.06156730651855 71.00077819824219 24.55166625976562 68.82221984863281 C 25.06416702270508 66.54416656494141 25.89695167541504 64.31365203857422 27.02689552307129 62.19262313842773 L 32.68021011352539 51.58080673217773 C 33.8776969909668 49.3330078125 35.35486602783203 47.29909515380859 37.07068252563477 45.53557968139648 C 38.70475387573242 43.85609436035156 40.56233978271484 42.41340637207031 42.59182357788086 41.24757766723633 C 46.51192474365234 38.99572372436523 51.01943969726562 37.80546569824219 55.62705230712891 37.80546569824219 C 60.23466491699219 37.80546569824219 64.74217987060547 38.99572372436523 68.66227722167969 41.24757766723633 C 70.69176483154297 42.41340637207031 72.54935455322266 43.85609436035156 74.18342590332031 45.53557968139648 C 75.89923858642578 47.29909515380859 77.37641143798828 49.3330078125 78.57389831542969 51.58080673217773 L 84.22721099853516 62.19262313842773 C 85.35715484619141 64.31365203857422 86.18994140625 66.54416656494141 86.70243835449219 68.82221984863281 C 87.19253540039062 71.00077819824219 87.39328002929688 73.23563385009766 87.29906463623047 75.46467590332031 C 87.11683654785156 79.77607727050781 85.82806396484375 84.04133605957031 83.57208251953125 87.79933929443359 C 81.31609344482422 91.55735015869141 78.15765380859375 94.70022583007812 74.43820953369141 96.88816833496094 C 72.51522064208984 98.01936340332031 70.44844055175781 98.89298248291016 68.29524993896484 99.48473358154297 C 66.04373931884766 100.1035232543945 63.68359375 100.4172821044922 61.28036499023438 100.4172821044922 Z" stroke="none"/>
            <path d="M 55.62705230712891 41.80546569824219 C 47.35729217529297 41.80546569824219 40.0987548828125 46.16286468505859 36.21049499511719 53.46152496337891 L 30.55717468261719 64.07334136962891 C 26.89093017578125 70.95524597167969 27.09815216064453 79.05514526367188 31.11153411865234 85.74057006835938 C 35.12489318847656 92.42597961425781 42.17617034912109 96.41728210449219 49.97373199462891 96.41728210449219 L 61.28037261962891 96.41728210449219 C 69.07792663574219 96.41728210449219 76.12921142578125 92.42597961425781 80.14257049560547 85.74057006835938 C 84.15595245361328 79.05513000488281 84.36317443847656 70.95524597167969 80.69692993164062 64.07334136962891 L 75.04360961914062 53.46152496337891 C 71.15533447265625 46.16286468505859 63.89681243896484 41.80546569824219 55.62705230712891 41.80546569824219 M 55.62705612182617 33.80545806884766 C 66.04306030273438 33.80545806884766 76.45906066894531 39.10366821289062 82.10417175292969 49.70008850097656 L 87.75749206542969 60.31190490722656 C 98.40305328369141 80.29462432861328 83.92185211181641 104.4172821044922 61.28037261962891 104.4172821044922 L 49.97373199462891 104.4172821044922 C 27.33225250244141 104.4172821044922 12.85105133056641 80.29464721679688 23.49661254882812 60.31190490722656 L 29.14990997314453 49.70010375976562 C 34.79502868652344 39.10367584228516 45.21105194091797 33.80545806884766 55.62705612182617 33.80545806884766 Z" stroke="none" fill="#fff"/>
        </g>
    </g>
    <g transform="matrix(1, 0, 0, 1, 0, 0)" filter="url(#Polígono_8)">
        <g id="Polígono_8-2" data-name="Polígono 8" transform="translate(141.6 60.85) rotate(81)" fill="#9e5e03">
            <path d="M 61.88681030273438 100.8889465332031 L 50.00141143798828 100.8889465332031 C 47.59751129150391 100.8889465332031 45.23674011230469 100.5750427246094 42.98469543457031 99.95594024658203 C 40.8310546875 99.36389923095703 38.76386642456055 98.4898681640625 36.84058380126953 97.358154296875 C 33.12058258056641 95.16919708251953 29.96203994750977 92.02503204345703 27.70642471313477 88.26555633544922 C 25.45079612731934 84.50607299804688 24.16301155090332 80.23948669433594 23.98226737976074 75.92704010009766 C 23.88882446289062 73.69744110107422 24.09048271179199 71.462158203125 24.58162498474121 69.28328704833984 C 25.09521102905273 67.00485992431641 25.92922592163086 64.77413177490234 27.06053924560547 62.65307235717773 L 33.00323867797852 51.51117324829102 C 34.20116806030273 49.26518630981445 35.6784553527832 47.23294448852539 37.3940544128418 45.47090148925781 C 39.02798080444336 43.79274368286133 40.88516616821289 42.35121536254883 42.91400909423828 41.18635940551758 C 46.83291244506836 38.93634414672852 51.33863830566406 37.74704360961914 55.94411087036133 37.74704360961914 C 60.54958343505859 37.74704360961914 65.05531311035156 38.93634414672852 68.97421264648438 41.18635940551758 C 71.00303649902344 42.35121536254883 72.86022186279297 43.79274368286133 74.49415588378906 45.47090148925781 C 76.20975494384766 47.23294448852539 77.68704223632812 49.26518630981445 78.88497161865234 51.51117324829102 L 84.82766723632812 62.65307235717773 C 85.958984375 64.77413177490234 86.79301452636719 67.00485992431641 87.30659484863281 69.28328704833984 C 87.79773712158203 71.462158203125 87.99938201904297 73.69744110107422 87.90593719482422 75.92704010009766 C 87.72521209716797 80.23948669433594 86.43742370605469 84.50607299804688 84.18179321289062 88.26555633544922 C 81.92618560791016 92.02503204345703 78.76763916015625 95.16919708251953 75.04763793945312 97.358154296875 C 73.12435150146484 98.4898681640625 71.05716705322266 99.36389923095703 68.90352630615234 99.95594024658203 C 66.65148162841797 100.5750427246094 64.29071044921875 100.8889465332031 61.88681030273438 100.8889465332031 Z" stroke="none"/>
            <path d="M 55.94411087036133 41.74703979492188 C 47.67890930175781 41.74703979492188 40.42227172851562 46.10090637207031 36.53260803222656 53.39360046386719 L 30.58988952636719 64.53550720214844 C 26.91925048828125 71.41758728027344 27.12355041503906 79.51930236816406 31.13642883300781 86.20760345458984 C 35.1492919921875 92.89591979980469 42.20162963867188 96.88894653320312 50.00141143798828 96.88894653320312 L 61.88681030273438 96.88894653320312 C 69.68659210205078 96.88894653320312 76.73892974853516 92.89591979980469 80.75179290771484 86.20760345458984 C 84.76467132568359 79.51930236816406 84.96897125244141 71.41758728027344 81.29829406738281 64.53550720214844 L 75.35562896728516 53.39360046386719 C 71.46592712402344 46.10090637207031 64.20928955078125 41.74703979492188 55.94411087036133 41.74703979492188 M 55.9441032409668 33.74703979492188 C 66.35563659667969 33.74703979492188 76.76718139648438 39.04093170166016 82.41435241699219 49.62872314453125 L 88.35703277587891 60.77062225341797 C 99.01541137695312 80.75384521484375 84.53475189208984 104.8889465332031 61.88681030273438 104.8889465332031 L 50.00141143798828 104.8889465332031 C 27.35346984863281 104.8889465332031 12.87281036376953 80.75384521484375 23.53117370605469 60.77062225341797 L 29.47386932373047 49.62872314453125 C 35.12103271484375 39.04093170166016 45.53256225585938 33.74703979492188 55.9441032409668 33.74703979492188 Z" stroke="none" fill="#fff"/>
        </g>
    </g>
    <g id="Elipse_64" data-name="Elipse 64" transform="translate(113.169 149.619) rotate(-114)" fill="#f0ddc2" stroke="#fff" stroke-width="8">
        <ellipse cx="22.127" cy="21.71" rx="22.127" ry="21.71" stroke="none"/>
        <ellipse cx="22.127" cy="21.71" rx="18.127" ry="17.71" fill="none"/>
    </g>
    <g transform="matrix(1, 0, 0, 1, 0, 0)" filter="url(#Línea_7)">
        <line id="Línea_7-2" data-name="Línea 7" y1="0.158" x2="167.5" transform="translate(37 57.5)" fill="none" stroke="#9e5e03" stroke-width="4"/>
    </g>
    <g transform="matrix(1, 0, 0, 1, 0, 0)" filter="url(#Línea_10)">
        <line id="Línea_10-2" data-name="Línea 10" y1="0.158" x2="167.5" transform="translate(37 73.5)" fill="none" stroke="#9e5e03" stroke-width="4"/>
    </g>
    <g transform="matrix(1, 0, 0, 1, 0, 0)" filter="url(#Línea_11)">
        <line id="Línea_11-2" data-name="Línea 11" y1="0.158" x2="167.5" transform="translate(37 89.5)" fill="none" stroke="#9e5e03" stroke-width="4"/>
    </g>
    <g transform="matrix(1, 0, 0, 1, 0, 0)" filter="url(#Línea_12)">
        <line id="Línea_12-2" data-name="Línea 12" y1="0.158" x2="167.5" transform="translate(37 105.5)" fill="none" stroke="#9e5e03" stroke-width="4"/>
    </g>
    <g transform="matrix(1, 0, 0, 1, 0, 0)" filter="url(#Línea_13)">
        <line id="Línea_13-2" data-name="Línea 13" y1="0.158" x2="167.5" transform="translate(37 121.5)" fill="none" stroke="#9e5e03" stroke-width="4"/>
    </g>
    <g transform="matrix(1, 0, 0, 1, 0, 0)" filter="url(#Línea_14)">
        <line id="Línea_14-2" data-name="Línea 14" y1="0.158" x2="167.5" transform="translate(37 137.5)" fill="none" stroke="#9e5e03" stroke-width="4"/>
    </g>
    <g transform="matrix(1, 0, 0, 1, 0, 0)" filter="url(#Línea_15)">
        <line id="Línea_15-2" data-name="Línea 15" y1="0.158" x2="167.5" transform="translate(37 153.5)" fill="none" stroke="#9e5e03" stroke-width="4"/>
    </g>
    <g transform="matrix(1, 0, 0, 1, 0, 0)" filter="url(#Línea_16)">
        <line id="Línea_16-2" data-name="Línea 16" y1="0.158" x2="167.5" transform="translate(37 169.5)" fill="none" stroke="#9e5e03" stroke-width="4"/>
    </g>
    <g transform="matrix(1, 0, 0, 1, 0, 0)" filter="url(#Línea_17)">
        <line id="Línea_17-2" data-name="Línea 17" y1="0.158" x2="167.5" transform="translate(37 185.5)" fill="none" stroke="#9e5e03" stroke-width="4"/>
    </g>
    <g transform="matrix(1, 0, 0, 1, 0, 0)" filter="url(#Línea_18)">
        <line id="Línea_18-2" data-name="Línea 18" y1="0.158" x2="167.5" transform="translate(37 41.5)" fill="none" stroke="#9e5e03" stroke-width="4"/>
    </g>
    <rect id="Rectángulo_66" data-name="Rectángulo 66" width="103" height="9" rx="4.5" transform="translate(228 171)" fill="#f0ddc2"/>
    <rect id="Rectángulo_68" data-name="Rectángulo 68" width="103" height="9" rx="4.5" transform="translate(228 150)" fill="#f0ddc2"/>
    <rect id="Rectángulo_69" data-name="Rectángulo 69" width="103" height="9" rx="4.5" transform="translate(228 129)" fill="#f0ddc2"/>
    <rect id="Rectángulo_70" data-name="Rectángulo 70" width="73" height="27" rx="4" transform="translate(228 37)" fill="#f0ddc2"/>
    <g transform="matrix(1, 0, 0, 1, 0, 0)" filter="url(#Rectángulo_71)">
        <rect id="Rectángulo_71-2" data-name="Rectángulo 71" width="61" height="23" rx="8" transform="translate(68 221)" fill="#fff"/>
    </g>
    <g transform="matrix(1, 0, 0, 1, 0, 0)" filter="url(#Rectángulo_72)">
        <rect id="Rectángulo_72-2" data-name="Rectángulo 72" width="61" height="23" rx="8" transform="translate(244 221)" fill="#fff"/>
    </g>
</svg>
