<svg xmlns="http://www.w3.org/2000/svg" xmlns:xlink="http://www.w3.org/1999/xlink" width="262.86" height="285.521" viewBox="0 0 262.86 285.521">
    <defs>
        <filter id="Rectángulo_12" x="71.971" y="205.521" width="126" height="80" filterUnits="userSpaceOnUse">
            <feOffset dy="3" input="SourceAlpha"/>
            <feGaussianBlur stdDeviation="3" result="blur"/>
            <feFlood flood-opacity="0.161"/>
            <feComposite operator="in" in2="blur"/>
            <feComposite in="SourceGraphic"/>
        </filter>
        <filter id="Rectángulo_11" x="95.971" y="119.521" width="79" height="139" filterUnits="userSpaceOnUse">
            <feOffset dy="3" input="SourceAlpha"/>
            <feGaussianBlur stdDeviation="3" result="blur-2"/>
            <feFlood flood-opacity="0.161"/>
            <feComposite operator="in" in2="blur-2"/>
            <feComposite in="SourceGraphic"/>
        </filter>
        <filter id="Polígono_9" x="56.067" y="15.475" width="206.793" height="210.028" filterUnits="userSpaceOnUse">
            <feOffset dy="3" input="SourceAlpha"/>
            <feGaussianBlur stdDeviation="3" result="blur-3"/>
            <feFlood flood-opacity="0.161"/>
            <feComposite operator="in" in2="blur-3"/>
            <feComposite in="SourceGraphic"/>
        </filter>
        <filter id="Polígono_10" x="50.5" y="0" width="161.809" height="152.971" filterUnits="userSpaceOnUse">
            <feOffset dy="3" input="SourceAlpha"/>
            <feGaussianBlur stdDeviation="3" result="blur-4"/>
            <feFlood flood-opacity="0.161"/>
            <feComposite operator="in" in2="blur-4"/>
            <feComposite in="SourceGraphic"/>
        </filter>
        <filter id="Polígono_8" x="0" y="14.674" width="207.731" height="211.042" filterUnits="userSpaceOnUse">
            <feOffset dy="3" input="SourceAlpha"/>
            <feGaussianBlur stdDeviation="3" result="blur-5"/>
            <feFlood flood-opacity="0.161"/>
            <feComposite operator="in" in2="blur-5"/>
            <feComposite in="SourceGraphic"/>
        </filter>
    </defs>
    <g transform="matrix(1, 0, 0, 1, 0, 0)" filter="url(#Rectángulo_12)">
        <rect id="Rectángulo_12-2" data-name="Rectángulo 12" width="100" height="54" rx="20" transform="translate(84.97 215.52)" fill="#f0ddc2" stroke="#fff" stroke-linejoin="bevel" stroke-width="8"/>
    </g>
    <g transform="matrix(1, 0, 0, 1, 0, 0)" filter="url(#Rectángulo_11)">
        <rect id="Rectángulo_11-2" data-name="Rectángulo 11" width="53" height="113" rx="20" transform="translate(108.97 129.52)" fill="#f0ddc2" stroke="#fff" stroke-linejoin="bevel" stroke-width="8"/>
    </g>
    <g transform="matrix(1, 0, 0, 1, 0, 0)" filter="url(#Polígono_9)">
        <g id="Polígono_9-2" data-name="Polígono 9" transform="translate(65.07 146.02) rotate(-60)" fill="#9e5e03">
            <path d="M 93.83495330810547 130.9713134765625 L 49.97373580932617 130.9713134765625 C 47.57051849365234 130.9713134765625 45.21035385131836 130.6575622558594 42.95884323120117 130.0387573242188 C 40.80567932128906 129.4470062255859 38.7388801574707 128.5733947753906 36.81589889526367 127.4421997070312 C 33.09646224975586 125.2542343139648 29.93802642822266 122.1113662719727 27.68202590942383 118.3533630371094 C 25.42604446411133 114.595344543457 24.13726234436035 110.3300933837891 23.95504379272461 106.0186920166016 C 23.86082649230957 103.7896575927734 24.06157112121582 101.554801940918 24.55167961120605 99.37623596191406 C 25.06415367126465 97.09818267822266 25.89695358276367 94.86765289306641 27.02689933776855 92.74663543701172 L 48.95750045776367 51.5807991027832 C 50.15499114990234 49.33300018310547 51.63215255737305 47.29909133911133 53.34797286987305 45.53558349609375 C 54.9820442199707 43.8560905456543 56.83962631225586 42.41339874267578 58.86911773681641 41.24758148193359 C 62.78920745849609 38.9957275390625 67.29671478271484 37.80547332763672 71.90433502197266 37.80547332763672 C 76.51195526123047 37.80547332763672 81.01946258544922 38.9957275390625 84.9395751953125 41.24758148193359 C 86.96906280517578 42.41339874267578 88.82664489746094 43.8560905456543 90.46070098876953 45.53558349609375 C 92.176513671875 47.29909133911133 93.65367889404297 49.33300018310547 94.85117340087891 51.5807991027832 L 116.7817916870117 92.74663543701172 C 117.911735534668 94.86765289306641 118.7445373535156 97.09818267822266 119.2570114135742 99.37623596191406 C 119.7471160888672 101.554801940918 119.9478607177734 103.7896575927734 119.853645324707 106.0186920166016 C 119.6714248657227 110.3300933837891 118.3826446533203 114.595344543457 116.1266632080078 118.3533630371094 C 113.8706588745117 122.1113662719727 110.7122268676758 125.2542343139648 106.992790222168 127.4421997070312 C 105.0698089599609 128.5733947753906 103.0030059814453 129.4470062255859 100.8498458862305 130.0387573242188 C 98.59833526611328 130.6575622558594 96.23817443847656 130.9713134765625 93.83495330810547 130.9713134765625 Z" stroke="none"/>
            <path d="M 71.90433502197266 41.80546569824219 C 63.63455963134766 41.80546569824219 56.37603759765625 46.16284942626953 52.48779296875 53.46150970458984 L 30.55717468261719 94.62734985351562 C 26.89092254638672 101.5092315673828 27.09815216064453 109.6091232299805 31.11149597167969 116.2945556640625 C 35.12485504150391 122.97998046875 42.17617797851562 126.9712982177734 49.97374725341797 126.9712982177734 L 93.83494567871094 126.9712982177734 C 101.6325149536133 126.9712982177734 108.6838073730469 122.97998046875 112.6971740722656 116.2945556640625 C 116.7105178833008 109.6091461181641 116.9177398681641 101.5092620849609 113.2514953613281 94.62734985351562 L 91.32090759277344 53.46150970458984 C 87.43263244628906 46.16287231445312 80.17410278320312 41.80546569824219 71.90433502197266 41.80546569824219 M 71.90433502197266 33.80546569824219 C 82.32034301757812 33.80546569824219 92.73635864257812 39.10366821289062 98.3814697265625 49.7000732421875 L 120.3120651245117 90.86591339111328 C 130.9576263427734 110.8486480712891 116.476448059082 134.9712829589844 93.83494567871094 134.9712982177734 L 49.97374725341797 134.9712982177734 C 27.33224487304688 134.9712829589844 12.85104370117188 110.8486480712891 23.49660491943359 90.86591339111328 L 45.42722320556641 49.7000732421875 C 51.07232666015625 39.10366821289062 61.48832702636719 33.80546569824219 71.90433502197266 33.80546569824219 Z" stroke="none" fill="#fff"/>
        </g>
    </g>
    <g transform="matrix(1, 0, 0, 1, 0, 0)" filter="url(#Polígono_10)">
        <g id="Polígono_10-2" data-name="Polígono 10" transform="translate(203.31 140.97) rotate(180)" fill="#9e5e03">
            <path d="M 93.83493804931641 130.9712829589844 L 49.9737548828125 130.9712829589844 C 47.57053375244141 130.9712829589844 45.21037292480469 130.6575317382812 42.9588623046875 130.0387268066406 C 40.80569839477539 129.4469909667969 38.73889923095703 128.5733642578125 36.81591796875 127.4421691894531 C 33.09648132324219 125.2542037963867 29.93802642822266 122.111328125 27.68204498291016 118.3533325195312 C 25.42604446411133 114.5953140258789 24.13728141784668 110.3300552368164 23.95504379272461 106.0186386108398 C 23.86084365844727 103.7896041870117 24.06157112121582 101.5547485351562 24.55167961120605 99.37618255615234 C 25.06417083740234 97.09812927246094 25.89695358276367 94.86762237548828 27.02691650390625 92.74658203125 L 48.95750045776367 51.58078384399414 C 50.15499114990234 49.33298492431641 51.63215255737305 47.29909515380859 53.34797286987305 45.53558349609375 C 54.9820442199707 43.85609436035156 56.83962631225586 42.41340255737305 58.86911773681641 41.24758529663086 C 62.78920745849609 38.99573135375977 67.29671478271484 37.80545806884766 71.90433502197266 37.80545806884766 C 76.51195526123047 37.80545806884766 81.01946258544922 38.99573135375977 84.9395751953125 41.24758529663086 C 86.96906280517578 42.41340255737305 88.82664489746094 43.85609436035156 90.46070098876953 45.53558349609375 C 92.176513671875 47.29909515380859 93.65367889404297 49.33298492431641 94.85117340087891 51.58078384399414 L 116.7817687988281 92.74658203125 C 117.9117202758789 94.86759948730469 118.744514465332 97.09812927246094 119.2570114135742 99.37620544433594 C 119.7471160888672 101.5547637939453 119.9478454589844 103.7896041870117 119.8536224365234 106.0186614990234 C 119.6714096069336 110.3300552368164 118.3826293945312 114.595329284668 116.1266403198242 118.3533477783203 C 113.8706436157227 122.1113510131836 110.7122039794922 125.2542190551758 106.9927749633789 127.4421691894531 C 105.0697860717773 128.5733642578125 103.0029907226562 129.4469909667969 100.8498229980469 130.0387420654297 C 98.59832000732422 130.6575317382812 96.23815155029297 130.9712829589844 93.83493804931641 130.9712829589844 Z" stroke="none"/>
            <path d="M 71.90433502197266 41.80544281005859 C 63.63455963134766 41.80544281005859 56.37603759765625 46.16284942626953 52.48779296875 53.46150970458984 L 30.55717468261719 94.62730407714844 C 26.89092254638672 101.5092163085938 27.09815216064453 109.6091232299805 31.11154174804688 116.2945556640625 C 35.1248779296875 122.9799652099609 42.17617797851562 126.9712524414062 49.97374725341797 126.9712524414062 L 93.83493041992188 126.9712524414062 C 101.6324920654297 126.9712524414062 108.6837921142578 122.9799652099609 112.6971282958984 116.2945556640625 C 116.7105178833008 109.6091232299805 116.9177398681641 101.5092163085938 113.2514953613281 94.62730407714844 L 91.32090759277344 53.46150970458984 C 87.43263244628906 46.16284942626953 80.17410278320312 41.80544281005859 71.90433502197266 41.80544281005859 M 71.90433502197266 33.80545043945312 C 82.32034301757812 33.80545043945312 92.73635864257812 39.10365295410156 98.3814697265625 49.7000732421875 L 120.3120651245117 90.86587524414062 C 130.9576110839844 110.8486022949219 116.4764251708984 134.9712524414062 93.83493041992188 134.9712524414062 L 49.97374725341797 134.9712524414062 C 27.33224487304688 134.9712524414062 12.85105895996094 110.8486022949219 23.49660491943359 90.86587524414062 L 45.42722320556641 49.7000732421875 C 51.07232666015625 39.10365295410156 61.48832702636719 33.80545043945312 71.90433502197266 33.80545043945312 Z" stroke="none" fill="#fff"/>
        </g>
    </g>
    <g transform="matrix(1, 0, 0, 1, 0, 0)" filter="url(#Polígono_8)">
        <g id="Polígono_8-2" data-name="Polígono 8" transform="translate(126.42 20.67) rotate(60)" fill="#9e5e03">
            <path d="M 94.62689208984375 131.5809478759766 L 50.00140380859375 131.5809478759766 C 47.59749221801758 131.5809478759766 45.23672866821289 131.2670440673828 42.98469161987305 130.64794921875 C 40.83105850219727 130.0559234619141 38.76387405395508 129.181884765625 36.84058380126953 128.0501708984375 C 33.12058258056641 125.8612060546875 29.96205711364746 122.717041015625 27.7064208984375 118.9575729370117 C 25.45080184936523 115.1980972290039 24.16302108764648 110.9315185546875 23.98227500915527 106.6190643310547 C 23.88883972167969 104.3894653320312 24.09047508239746 102.1541748046875 24.58162117004395 99.97529602050781 C 25.0952033996582 97.69688415527344 25.92923927307129 95.46615600585938 27.0605297088623 93.34507751464844 L 49.37327575683594 51.51116943359375 C 50.57120132446289 49.26519012451172 52.04849243164062 47.23293685913086 53.76409530639648 45.47089767456055 C 55.39803695678711 43.79275131225586 57.25522232055664 42.35122680664062 59.2840576171875 41.18635177612305 C 63.20294952392578 38.93633651733398 67.70867156982422 37.74704360961914 72.31414794921875 37.74704360961914 C 76.91962432861328 37.74704360961914 81.42534637451172 38.93633651733398 85.34423828125 41.18635177612305 C 87.37307739257812 42.35122680664062 89.23025512695312 43.79275131225586 90.86420440673828 45.47089767456055 C 92.57980346679688 47.23293685913086 94.05709075927734 49.26519012451172 95.25502014160156 51.51116943359375 L 117.5677871704102 93.34507751464844 C 118.6990737915039 95.46615600585938 119.5331115722656 97.69688415527344 120.0466918945312 99.97529602050781 C 120.5378189086914 102.1541748046875 120.7394714355469 104.3894653320312 120.6460189819336 106.6190643310547 C 120.4652938842773 110.9315185546875 119.177490234375 115.1980972290039 116.921875 118.9575729370117 C 114.6662368774414 122.717041015625 111.5077133178711 125.8612060546875 107.787712097168 128.0501708984375 C 105.8644180297852 129.181884765625 103.7972412109375 130.0559234619141 101.6436004638672 130.64794921875 C 99.39154815673828 131.2670440673828 97.03079986572266 131.5809478759766 94.62689208984375 131.5809478759766 Z" stroke="none"/>
            <path d="M 72.31414794921875 41.74702453613281 C 64.04894256591797 41.74702453613281 56.79230499267578 46.10088348388672 52.90262603759766 53.39361572265625 L 30.58989715576172 95.22752380371094 C 26.91923522949219 102.1095886230469 27.12353515625 110.2113189697266 31.13642120361328 116.8996353149414 C 35.14928436279297 123.5879287719727 42.20159912109375 127.5809478759766 50.00139617919922 127.5809478759766 L 94.62689971923828 127.5809478759766 C 102.4266662597656 127.5809478759766 109.4789886474609 123.5879287719727 113.4918518066406 116.8996353149414 C 117.5047378540039 110.2113189697266 117.7090606689453 102.1095886230469 114.0383987426758 95.22752380371094 L 91.72564697265625 53.39361572265625 C 87.83596801757812 46.10088348388672 80.57933044433594 41.74702453613281 72.31414794921875 41.74702453613281 M 72.31414794921875 33.74703979492188 C 82.72567749023438 33.74703979492188 93.13721466064453 39.04093170166016 98.78437805175781 49.62872314453125 L 121.0971221923828 91.46263122558594 C 131.7554626464844 111.4458618164062 117.2748260498047 135.5809478759766 94.62689971923828 135.5809478759766 L 50.00139617919922 135.5809478759766 C 27.35344696044922 135.5809478759766 12.872802734375 111.4458618164062 23.53117370605469 91.46263122558594 L 45.84389495849609 49.62872314453125 C 51.49106597900391 39.04093170166016 61.90261077880859 33.74703979492188 72.31414794921875 33.74703979492188 Z" stroke="none" fill="#fff"/>
        </g>
    </g>
    <g id="Elipse_64" data-name="Elipse 64" transform="translate(133.222 140.969) rotate(-135)" fill="#f0ddc2" stroke="#fff" stroke-width="8">
        <ellipse cx="28.602" cy="28.062" rx="28.602" ry="28.062" stroke="none"/>
        <ellipse cx="28.602" cy="28.062" rx="24.602" ry="24.062" fill="none"/>
    </g>
</svg>
