<svg xmlns="http://www.w3.org/2000/svg" xmlns:xlink="http://www.w3.org/1999/xlink" width="394" height="402" viewBox="0 0 394 402">
    <defs>
        <filter id="Polígono_2" x="0" y="133" width="394" height="269" filterUnits="userSpaceOnUse">
            <feOffset dy="3" input="SourceAlpha"/>
            <feGaussianBlur stdDeviation="3" result="blur"/>
            <feFlood flood-opacity="0.161"/>
            <feComposite operator="in" in2="blur"/>
            <feComposite in="SourceGraphic"/>
        </filter>
        <filter id="Polígono_1" x="99.5" y="0" width="194" height="170" filterUnits="userSpaceOnUse">
            <feOffset dy="3" input="SourceAlpha"/>
            <feGaussianBlur stdDeviation="3" result="blur-2"/>
            <feFlood flood-opacity="0.161"/>
            <feComposite operator="in" in2="blur-2"/>
            <feComposite in="SourceGraphic"/>
        </filter>
    </defs>
    <g transform="matrix(1, 0, 0, 1, 0, 0)" filter="url(#Polígono_2)">
        <g id="Polígono_2-2" data-name="Polígono 2" transform="translate(9 139)" fill="#03799d">
            <path d="M 368.00634765625 247 L 7.993639945983887 247 L 188 6.672359943389893 L 368.00634765625 247 Z" stroke="none"/>
            <path d="M 188 13.34471130371094 L 15.98727416992188 243 L 360.0127258300781 243 L 188 13.34471130371094 M 188 0 L 376 251 L 0 251 L 188 0 Z" stroke="none" fill="#fff"/>
        </g>
    </g>
    <g transform="matrix(1, 0, 0, 1, 0, 0)" filter="url(#Polígono_1)">
        <g id="Polígono_1-2" data-name="Polígono 1" transform="translate(108.5 6)" fill="#c1e4ef">
            <path d="M 120.4689483642578 148 L 55.53105163574219 148 C 52.72969818115234 148 49.96622467041016 147.2604217529297 47.53934860229492 145.8612060546875 C 45.11247634887695 144.4619750976562 43.08779907226562 142.4409484863281 41.68422317504883 140.0166015625 L 9.263175010681152 84.01657867431641 C 7.854549884796143 81.58350372314453 7.110000133514404 78.81142425537109 7.110000133514404 76 C 7.110000133514404 73.18857574462891 7.854549884796143 70.41647338867188 9.263175010681152 67.98342132568359 L 41.68424987792969 11.98342514038086 C 43.08782577514648 9.559049606323242 45.11249923706055 7.53802490234375 47.53934860229492 6.138800144195557 C 49.96622467041016 4.739574909210205 52.72969818115234 4 55.53105163574219 4 L 120.4689483642578 4 C 123.2703018188477 4 126.0337753295898 4.739574909210205 128.4606475830078 6.138800144195557 C 130.8875274658203 7.53802490234375 132.9122009277344 9.559049606323242 134.3157806396484 11.98342514038086 L 166.7368316650391 67.98342132568359 C 168.1454467773438 70.41649627685547 168.8899993896484 73.18857574462891 168.8899993896484 76 C 168.8899993896484 78.81142425537109 168.1454467773438 81.58350372314453 166.7368316650391 84.01657867431641 L 134.3157806396484 140.0166015625 C 132.9122009277344 142.4409484863281 130.8875274658203 144.4619750976562 128.4606781005859 145.8612060546875 C 126.0337982177734 147.2604217529297 123.2703018188477 148 120.4689483642578 148 Z" stroke="none"/>
            <path d="M 55.53105926513672 8 C 51.26349639892578 8 47.28414916992188 10.29429626464844 45.14593505859375 13.98756408691406 L 12.72488403320312 69.98752593994141 C 10.57778930664062 73.69614410400391 10.57778930664062 78.30382537841797 12.72488403320312 82.01241302490234 L 45.14593505859375 138.0124359130859 C 47.28414916992188 141.7057037353516 51.26349639892578 144 55.53105926513672 144 L 120.4689407348633 144 C 124.7364959716797 144 128.7158508300781 141.7057037353516 130.8540649414062 138.0124359130859 L 163.2750854492188 82.01244354248047 C 165.4221801757812 78.30382537841797 165.4221801757812 73.69617462158203 163.2750854492188 69.98755645751953 L 130.8540954589844 13.98759460449219 C 128.7158508300781 10.29429626464844 124.7364959716797 8 120.4689407348633 8 L 55.53105926513672 8 M 55.53105926513672 0 L 120.4689407348633 0 C 127.6057052612305 0 134.2016754150391 3.802947998046875 137.7774658203125 9.979263305664062 L 170.1985015869141 65.97926330566406 C 173.7871398925781 72.17782592773438 173.7871398925781 79.82217407226562 170.1985015869141 86.02073669433594 L 137.7774658203125 142.0207366943359 C 134.2016754150391 148.1970520019531 127.6057052612305 152 120.4689407348633 152 L 55.53105926513672 152 C 48.39429473876953 152 41.79829406738281 148.1970520019531 38.2225341796875 142.0207366943359 L 5.801467895507812 86.02070617675781 C 2.212860107421875 79.82217407226562 2.212860107421875 72.17782592773438 5.801467895507812 65.97926330566406 L 38.2225341796875 9.979263305664062 C 41.79829406738281 3.802947998046875 48.39429473876953 0 55.53105926513672 0 Z" stroke="none" fill="#fff"/>
        </g>
    </g>
    <g id="Rectángulo_4" data-name="Rectángulo 4" transform="translate(142 63)" fill="none" stroke="#03799d" stroke-width="2">
        <rect width="45" height="24" rx="10" stroke="none"/>
        <rect x="1" y="1" width="43" height="22" rx="9" fill="none"/>
    </g>
    <g id="Rectángulo_5" data-name="Rectángulo 5" transform="translate(207 63)" fill="none" stroke="#03799d" stroke-width="2">
        <rect width="45" height="24" rx="10" stroke="none"/>
        <rect x="1" y="1" width="43" height="22" rx="9" fill="none"/>
    </g>
    <line id="Línea_1" data-name="Línea 1" x2="22" transform="translate(186.5 73.5)" fill="none" stroke="#03799d" stroke-width="2"/>
    <line id="Línea_2" data-name="Línea 2" x2="22" transform="translate(186.5 126.5)" fill="none" stroke="#03799d" stroke-width="2"/>
    <text id="_" data-name="&lt;/&gt;" transform="translate(162 234)" fill="#c1e4ef" font-size="42" font-family="AvenirNext-Bold, Avenir Next" font-weight="700"><tspan x="0" y="0">&lt;/&gt;</tspan></text>
</svg>
