<svg xmlns="http://www.w3.org/2000/svg" xmlns:xlink="http://www.w3.org/1999/xlink" width="394" height="402" viewBox="0 0 394 402">
    <defs>
        <filter id="Polígono_2" x="0" y="133" width="394" height="269" filterUnits="userSpaceOnUse">
            <feOffset dy="3" input="SourceAlpha"/>
            <feGaussianBlur stdDeviation="3" result="blur"/>
            <feFlood flood-opacity="0.161"/>
            <feComposite operator="in" in2="blur"/>
            <feComposite in="SourceGraphic"/>
        </filter>
        <filter id="Polígono_1" x="109.5" y="0" width="174" height="170" filterUnits="userSpaceOnUse">
            <feOffset dy="3" input="SourceAlpha"/>
            <feGaussianBlur stdDeviation="3" result="blur-2"/>
            <feFlood flood-opacity="0.161"/>
            <feComposite operator="in" in2="blur-2"/>
            <feComposite in="SourceGraphic"/>
        </filter>
    </defs>
    <g transform="matrix(1, 0, 0, 1, 0, 0)" filter="url(#Polígono_2)">
        <g id="Polígono_2-2" data-name="Polígono 2" transform="translate(9 139)" fill="#03799d">
            <path d="M 368.00634765625 247 L 7.993639945983887 247 L 188 6.672359943389893 L 368.00634765625 247 Z" stroke="none"/>
            <path d="M 188 13.34471130371094 L 15.98727416992188 243 L 360.0127258300781 243 L 188 13.34471130371094 M 188 0 L 376 251 L 0 251 L 188 0 Z" stroke="none" fill="#fff"/>
        </g>
    </g>
    <g transform="matrix(1, 0, 0, 1, 0, 0)" filter="url(#Polígono_1)">
        <g id="Polígono_1-2" data-name="Polígono 1" transform="translate(118.5 6)" fill="#c1e4ef">
            <path d="M 52.91472625732422 148.0000152587891 C 50.52643203735352 148.0000152587891 48.12656784057617 147.4524383544922 45.97463607788086 146.4164886474609 C 43.82270431518555 145.3805541992188 41.89786529541016 143.8462219238281 40.40824890136719 141.9794006347656 L 9.137045860290527 102.7894439697266 C 7.646227359771729 100.9211044311523 6.577000141143799 98.70188140869141 6.044954776763916 96.37162780761719 C 5.512886524200439 94.04137420654297 5.512954711914062 91.57797241210938 6.045113563537598 89.24776458740234 L 17.20375061035156 40.38701248168945 C 17.73572731018066 38.0576286315918 18.80454635620117 35.83910369873047 20.29461288452148 33.97126388549805 C 21.78470420837402 32.10344696044922 23.71031761169434 30.56844520568848 25.86329460144043 29.53224182128906 L 71.06113433837891 7.778809547424316 C 73.21275329589844 6.743241310119629 75.61215972900391 6.195877552032471 78 6.195877552032471 C 80.3878173828125 6.195877552032471 82.78722381591797 6.743241310119629 84.93881988525391 7.778809547424316 L 130.1366882324219 29.53221893310547 C 132.2896575927734 30.56842231750488 134.2152709960938 32.10342407226562 135.7053375244141 33.97124099731445 C 137.1954345703125 35.83905792236328 138.2642211914062 38.0576057434082 138.7962341308594 40.38701248168945 L 149.9548797607422 89.24769592285156 C 150.4870452880859 91.57792663574219 150.4870910644531 94.04133605957031 149.9550476074219 96.37160491943359 C 149.4229736328125 98.70185852050781 148.3537445068359 100.9211044311523 146.8629302978516 102.7894439697266 L 115.5917510986328 141.9794006347656 C 114.1022262573242 143.8460845947266 112.1773834228516 145.38037109375 110.0253219604492 146.4163818359375 C 107.8732528686523 147.4523773193359 105.4734573364258 147.9999847412109 103.0853424072266 147.9999847412109 L 99.08534240722656 147.9999847412109 L 52.91472625732422 148.0000152587891 Z" stroke="none"/>
            <path d="M 77.99996948242188 10.19589233398438 C 76.20908355712891 10.19589233398438 74.40953063964844 10.60643005371094 72.79582977294922 11.383056640625 L 27.59800720214844 33.13653564453125 C 24.28836059570312 34.72942352294922 21.921142578125 37.69675445556641 21.10333251953125 41.277587890625 L 9.944717407226562 90.13833618164062 C 9.126617431640625 93.72058868408203 9.971832275390625 97.42239379882812 12.263671875 100.2945861816406 L 43.53488922119141 139.4845581054688 C 45.82466888427734 142.3541717529297 49.24346923828125 144 52.91471862792969 144 L 103.0853576660156 143.9999847412109 C 106.7565307617188 143.9999847412109 110.1753387451172 142.3541412353516 112.4651336669922 139.4845275878906 L 143.7362976074219 100.2946166992188 C 146.0281372070312 97.42239379882812 146.8733673095703 93.72053527832031 146.0552825927734 90.13828277587891 L 134.8966064453125 41.27756500244141 C 134.0788269042969 37.69673156738281 131.7116088867188 34.72942352294922 128.4019775390625 33.13650512695312 L 83.20410919189453 11.383056640625 C 81.59044647216797 10.60643005371094 79.79086303710938 10.19589233398438 77.99996948242188 10.19589233398438 M 77.99998474121094 2.195892333984375 C 80.96640014648438 2.195892333984375 83.93282318115234 2.855438232421875 86.67355346679688 4.174530029296875 L 131.8713836669922 25.92794799804688 C 137.3563537597656 28.56784057617188 141.3405303955078 33.56200408935547 142.69580078125 39.49642181396484 L 153.8544769287109 88.35711669921875 C 155.2102203369141 94.29367065429688 153.7875518798828 100.5244750976562 149.9895629882812 105.2842864990234 L 118.7183609008789 144.4742279052734 C 114.9233551025391 149.2301940917969 109.1935806274414 151.9991455078125 103.0852813720703 151.9999847412109 L 52.91471862792969 152 C 46.83022308349609 152 41.07661437988281 149.230224609375 37.28163909912109 144.4742279052734 L 6.01043701171875 105.2842864990234 C 2.212417602539062 100.5245056152344 0.7897491455078125 94.293701171875 2.145523071289062 88.35717010498047 L 13.30413818359375 39.49645233154297 C 14.65943908691406 33.56203460693359 18.64358520507812 28.56787109375 24.12858581542969 25.927978515625 L 69.326416015625 4.174530029296875 C 72.06715393066406 2.855438232421875 75.0335693359375 2.195892333984375 77.99998474121094 2.195892333984375 Z" stroke="none" fill="#fff"/>
        </g>
    </g>
    <g id="Rectángulo_4" data-name="Rectángulo 4" transform="translate(142 70)" fill="none" stroke="#03799d" stroke-width="2">
        <rect width="45" height="24" rx="10" stroke="none"/>
        <rect x="1" y="1" width="43" height="22" rx="9" fill="none"/>
    </g>
    <g id="Rectángulo_5" data-name="Rectángulo 5" transform="translate(207 70)" fill="none" stroke="#03799d" stroke-width="2">
        <rect width="45" height="24" rx="10" stroke="none"/>
        <rect x="1" y="1" width="43" height="22" rx="9" fill="none"/>
    </g>
    <line id="Línea_1" data-name="Línea 1" x2="22" transform="translate(186.5 80.5)" fill="none" stroke="#03799d" stroke-width="2"/>
    <line id="Línea_2" data-name="Línea 2" x2="22" transform="translate(186.5 133.5)" fill="none" stroke="#03799d" stroke-width="2"/>
    <text id="_" data-name="&lt;/&gt;" transform="translate(162 234)" fill="#c1e4ef" font-size="42" font-family="AvenirNext-Bold, Avenir Next" font-weight="700"><tspan x="0" y="0">&lt;/&gt;</tspan></text>
</svg>
