<svg xmlns="http://www.w3.org/2000/svg" xmlns:xlink="http://www.w3.org/1999/xlink" width="276.923" height="271.61" viewBox="0 0 276.923 271.61">
    <defs>
        <filter id="Icon_awesome-coins" x="37.344" y="0" width="239.579" height="239.579" filterUnits="userSpaceOnUse">
            <feOffset dy="3" input="SourceAlpha"/>
            <feGaussianBlur stdDeviation="3" result="blur"/>
            <feFlood flood-opacity="0.161"/>
            <feComposite operator="in" in2="blur"/>
            <feComposite in="SourceGraphic"/>
        </filter>
        <filter id="Icon_awesome-dollar-sign" x="0" y="100.789" width="112.701" height="170.82" filterUnits="userSpaceOnUse">
            <feOffset dy="3" input="SourceAlpha"/>
            <feGaussianBlur stdDeviation="3" result="blur-2"/>
            <feFlood flood-opacity="0.161"/>
            <feComposite operator="in" in2="blur-2"/>
            <feComposite in="SourceGraphic"/>
        </filter>
    </defs>
    <g transform="matrix(1, 0, 0, 1, 0, 0)" filter="url(#Icon_awesome-coins)">
        <g id="Icon_awesome-coins-2" data-name="Icon awesome-coins" transform="translate(56.34 16)" fill="#ddf0c2" stroke-linejoin="round">
            <path d="M 75.59208679199219 206.5788726806641 C 65.15937805175781 206.5788726806641 55.02681732177734 205.8952941894531 45.4758186340332 204.547119140625 C 36.17687606811523 203.2344970703125 27.79549598693848 201.3463745117188 20.56446647644043 198.9351654052734 C 13.07261276245117 196.4369964599609 7.11220121383667 193.4676666259766 2.848818778991699 190.1097259521484 C 0.4543481171131134 188.2238159179688 -1.420416593551636 186.1926116943359 -2.723416566848755 184.0724639892578 C -4.234063625335693 181.6145172119141 -5.000004768371582 179.0269012451172 -5.000004768371582 176.3815307617188 L -5.000004768371582 159.5701446533203 L -5.000004768371582 149.9306488037109 L 2.879906892776489 155.4828491210938 C 6.491054058074951 158.0272674560547 11.00308322906494 160.3407592773438 16.29061317443848 162.3590545654297 C 21.44734764099121 164.3274383544922 27.3453483581543 166.0164947509766 33.8207893371582 167.3793792724609 C 46.26084899902344 169.9976196289062 60.70511245727539 171.3815307617188 75.59208679199219 171.3815307617188 C 90.47905731201172 171.3815307617188 104.9233169555664 169.9976196289062 117.3633499145508 167.3793792724609 C 123.8388214111328 166.0164947509766 129.73681640625 164.3274383544922 134.8935241699219 162.3590545654297 C 140.1810760498047 160.3407592773438 144.6930847167969 158.0272674560547 148.3042297363281 155.4828491210938 L 156.1841430664062 149.9306182861328 L 156.1841430664062 159.5701446533203 L 156.1841430664062 176.3815307617188 C 156.1841430664062 179.0269012451172 155.4181976318359 181.6145172119141 153.9075469970703 184.0724639892578 C 152.6045532226562 186.1926116943359 150.7297821044922 188.2238159179688 148.3353424072266 190.1097259521484 C 144.0719299316406 193.4676666259766 138.1115264892578 196.4369659423828 130.6196746826172 198.9351654052734 C 123.388671875 201.3463745117188 115.0072860717773 203.2344970703125 105.7083511352539 204.547119140625 C 96.1573486328125 205.8952941894531 86.02478790283203 206.5788726806641 75.59208679199219 206.5788726806641 Z M 75.59208679199219 168.7828521728516 C 65.15937805175781 168.7828521728516 55.02681732177734 168.0992584228516 45.4758186340332 166.7510833740234 C 36.17687606811523 165.4384613037109 27.79549598693848 163.5503540039062 20.56446647644043 161.1391448974609 C 13.07261276245117 158.6409301757812 7.11220121383667 155.6716461181641 2.848789215087891 152.3137054443359 C 0.4543481171131134 150.4277954101562 -1.420416593551636 148.3965606689453 -2.723416566848755 146.2764434814453 C -4.234063625335693 143.8184661865234 -5.000004768371582 141.2308807373047 -5.000004768371582 138.5854644775391 L -5.000004768371582 118.2701110839844 L -5.000004768371582 107.6775283813477 L 3.177877426147461 114.4099044799805 C 6.807083606719971 117.3976440429688 11.32017135620117 120.134407043457 16.59184837341309 122.5442581176758 C 21.75896644592285 124.9062881469727 27.63529014587402 126.9460525512695 34.05758285522461 128.6068115234375 C 46.65284729003906 131.8638763427734 61.01523208618164 133.5854644775391 75.59208679199219 133.5854644775391 C 90.16893768310547 133.5854644775391 104.5313186645508 131.8638763427734 117.1265869140625 128.6068115234375 C 123.5488510131836 126.9460525512695 129.4251708984375 124.9062881469727 134.5923156738281 122.5442581176758 C 139.8639678955078 120.134407043457 144.3770904541016 117.3976440429688 148.0062561035156 114.4099349975586 L 156.1841430664062 107.6775283813477 L 156.1841430664062 118.2701110839844 L 156.1841430664062 138.5854644775391 C 156.1841430664062 141.2308807373047 155.4181976318359 143.8184661865234 153.9075469970703 146.2764434814453 C 152.6045532226562 148.3965606689453 150.7297821044922 150.4277954101562 148.3353424072266 152.3137054443359 C 144.0719299316406 155.6716461181641 138.1115570068359 158.6409301757812 130.6196746826172 161.1391448974609 C 123.388671875 163.5503540039062 115.0072860717773 165.4384613037109 105.7083511352539 166.7510833740234 C 96.1573486328125 168.0992584228516 86.02478790283203 168.7828521728516 75.59208679199219 168.7828521728516 Z M 75.59208679199219 130.9867858886719 C 65.10020446777344 130.9867858886719 54.91084671020508 130.1288146972656 45.30708312988281 128.4367370605469 C 35.9442024230957 126.7870864868164 27.5048770904541 124.4127578735352 20.22352409362793 121.3797607421875 C 12.68581867218018 118.2399368286133 6.700583457946777 114.5173187255859 2.434024572372437 110.3152313232422 C 0.1023775190114975 108.0188446044922 -1.709534287452698 105.5724639892578 -2.951446056365967 103.0440826416016 C -4.310769557952881 100.2767028808594 -5.000004768371582 97.39870452880859 -5.000004768371582 94.49008178710938 C -5.000004768371582 91.58146667480469 -4.310769557952881 88.70346832275391 -2.951446056365967 85.93608093261719 C -1.709534287452698 83.40769958496094 0.1024069264531136 80.96134948730469 2.434024572372437 78.66493988037109 C 6.700583457946777 74.46287536621094 12.68581867218018 70.74022674560547 20.22352409362793 67.60043334960938 C 27.5048770904541 64.56743621826172 35.9442024230957 62.19311141967773 45.30708312988281 60.54346466064453 C 54.91084671020508 58.85137939453125 65.10020446777344 57.993408203125 75.59208679199219 57.993408203125 C 86.08396911621094 57.993408203125 96.2733154296875 58.85137939453125 105.877082824707 60.54346466064453 C 115.2399673461914 62.19311141967773 123.6792907714844 64.56743621826172 130.9606475830078 67.60043334960938 C 138.4983215332031 70.74022674560547 144.4835815429688 74.46287536621094 148.7501068115234 78.66493988037109 C 151.0817565917969 80.96134948730469 152.8937072753906 83.40769958496094 154.1355895996094 85.93608093261719 C 155.4949035644531 88.70346832275391 156.1841430664062 91.58146667480469 156.1841430664062 94.49008178710938 C 156.1841430664062 97.39870452880859 155.4949035644531 100.2767028808594 154.1356201171875 103.0440826416016 C 152.8937072753906 105.5724639892578 151.0817565917969 108.0188446044922 148.7501068115234 110.3152313232422 C 144.4835815429688 114.5173187255859 138.4983215332031 118.2399368286133 130.9606475830078 121.3797607421875 C 123.6792907714844 124.4127578735352 115.2399673461914 126.7870864868164 105.877082824707 128.4367370605469 C 96.2733154296875 130.1288146972656 86.08396911621094 130.9867858886719 75.59208679199219 130.9867858886719 Z M 158.7828521728516 128.6624298095703 L 158.7828521728516 122.6009063720703 L 158.7828521728516 97.56102752685547 L 158.7828521728516 93.37364196777344 L 162.9051971435547 92.63864135742188 C 170.5176696777344 91.28137969970703 177.3835906982422 89.53726196289062 183.3122253417969 87.45470428466797 C 189.4936065673828 85.28337860107422 194.6683502197266 82.73999786376953 198.6927032470703 79.89517211914062 L 206.5788726806641 74.32040405273438 L 206.5788726806641 83.97805023193359 L 206.5788726806641 100.789436340332 C 206.5788726806641 104.2746124267578 205.2702941894531 107.6147308349609 202.6894989013672 110.7170562744141 C 200.5430908203125 113.2972030639648 197.4841461181641 115.7172927856445 193.5976715087891 117.9101104736328 C 186.5204315185547 121.9031982421875 176.5394287109375 125.2226715087891 164.7337646484375 127.5096435546875 L 158.7828521728516 128.6624298095703 Z M 158.7011413574219 90.82117462158203 L 157.2450561523438 86.89961242675781 C 155.8338775634766 83.09905242919922 153.3162841796875 79.48681640625 149.76220703125 76.16329193115234 C 146.2022552490234 72.83428955078125 141.6153411865234 69.7978515625 136.1288757324219 67.13832092285156 L 138.0609588623047 57.64525985717773 C 144.3075866699219 57.33390808105469 150.4142303466797 56.77114105224609 156.2112274169922 55.97258377075195 C 162.1559295654297 55.15370178222656 167.7949066162109 54.08375930786133 172.9715881347656 52.79252624511719 C 178.2939605712891 51.46493530273438 183.1618499755859 49.89452362060547 187.4400177001953 48.12493515014648 C 191.8054962158203 46.31922912597656 195.5913238525391 44.29196548461914 198.6922912597656 42.09940719604492 L 206.5788726806641 36.52325820922852 L 206.5788726806641 46.18202590942383 L 206.5788726806641 62.993408203125 C 206.5788726806641 64.84152221679688 206.2002563476562 66.67935180664062 205.4535522460938 68.45575714111328 C 204.7755889892578 70.06867218017578 203.7853851318359 71.64449310302734 202.5104370117188 73.13946533203125 C 200.2668762207031 75.77020263671875 197.0729064941406 78.231201171875 193.0172576904297 80.45405578613281 C 185.5699920654297 84.53585052490234 175.1272888183594 87.86446380615234 162.8181457519531 90.08011627197266 L 158.7011413574219 90.82117462158203 Z M 125.9867858886719 55.39472961425781 C 115.554084777832 55.39472961425781 105.4215240478516 54.71114349365234 95.87052154541016 53.36296463012695 C 86.57158660888672 52.05034637451172 78.19020080566406 50.1622314453125 70.95919799804688 47.75102615356445 C 63.46731948852539 45.2528190612793 57.50693511962891 42.28352355957031 53.24352645874023 38.92558288574219 C 50.84908294677734 37.0396728515625 48.97431945800781 35.00843811035156 47.67131805419922 32.8883171081543 C 46.16067123413086 30.43034744262695 45.39472961425781 27.84276008605957 45.39472961425781 25.19734764099121 C 45.39472961425781 22.55196571350098 46.16067123413086 19.96434783935547 47.67131805419922 17.50640678405762 C 48.97431945800781 15.38626003265381 50.84908294677734 13.35505390167236 53.24352645874023 11.46914196014404 C 57.50693511962891 8.111201286315918 63.46735000610352 5.14190673828125 70.95919799804688 2.643701076507568 C 78.19020080566406 0.2324951589107513 86.57158660888672 -1.655622482299805 95.87052154541016 -2.968240022659302 C 105.4215240478516 -4.31641674041748 115.554084777832 -5.000004768371582 125.9867858886719 -5.000004768371582 C 136.4194946289062 -5.000004768371582 146.5520477294922 -4.31641674041748 156.1030578613281 -2.968240022659302 C 165.4019927978516 -1.655622482299805 173.7833709716797 0.2324951589107513 181.014404296875 2.643701076507568 C 188.5062561035156 5.1418776512146 194.4666748046875 8.111201286315918 198.7300567626953 11.46914196014404 C 201.1245269775391 13.35505390167236 202.9992828369141 15.38626003265381 204.3022918701172 17.50640678405762 C 205.8129425048828 19.96434783935547 206.5788726806641 22.55196571350098 206.5788726806641 25.19734764099121 C 206.5788726806641 27.84276008605957 205.8129425048828 30.43034744262695 204.3022918701172 32.8883171081543 C 202.9992828369141 35.00843811035156 201.1245269775391 37.0396728515625 198.7300872802734 38.92558288574219 C 194.4666748046875 42.28352355957031 188.5062561035156 45.2528190612793 181.014404296875 47.75102615356445 C 173.7833709716797 50.1622314453125 165.4019927978516 52.05034637451172 156.1030578613281 53.36296463012695 C 146.5520477294922 54.71114349365234 136.4194946289062 55.39472961425781 125.9867858886719 55.39472961425781 Z" stroke="none"/>
            <path d="M 75.59207916259766 201.578857421875 C 117.3251876831055 201.578857421875 151.1841430664062 190.2794342041016 151.1841430664062 176.3815002441406 L 151.1841430664062 159.5701446533203 C 134.9239654541016 171.0270843505859 105.198974609375 176.3815002441406 75.59207916259766 176.3815002441406 C 45.98518753051758 176.3815002441406 16.26018714904785 171.0270843505859 7.768903742544353e-06 159.5701446533203 L 7.768903742544353e-06 176.3815002441406 C 7.768903742544353e-06 190.2794342041016 33.85897064208984 201.578857421875 75.59207916259766 201.578857421875 M 75.59207916259766 163.7828216552734 C 117.3251876831055 163.7828216552734 151.1841430664062 152.4833984375 151.1841430664062 138.5854644775391 L 151.1841430664062 118.2701187133789 C 134.9239654541016 131.6562194824219 105.1596145629883 138.5854644775391 75.59207916259766 138.5854644775391 C 46.02454376220703 138.5854644775391 16.26018714904785 131.6562194824219 7.768903742544353e-06 118.2701187133789 L 7.768903742544353e-06 138.5854644775391 C 7.768903742544353e-06 152.4833984375 33.85897064208984 163.7828216552734 75.59207916259766 163.7828216552734 M 75.59207916259766 125.9867935180664 C 117.3251876831055 125.9867935180664 151.1841430664062 111.8920059204102 151.1841430664062 94.4901123046875 C 151.1841430664062 77.08815002441406 117.3251876831055 62.99340057373047 75.59207916259766 62.99340057373047 C 33.85897064208984 62.99340057373047 7.768903742544353e-06 77.08815002441406 7.768903742544353e-06 94.4901123046875 C 7.768903742544353e-06 111.8920059204102 33.85897064208984 125.9867935180664 75.59207916259766 125.9867935180664 M 163.7828216552734 122.6008987426758 C 186.3423614501953 118.2307586669922 201.578857421875 110.1203308105469 201.578857421875 100.789436340332 L 201.578857421875 83.97808074951172 C 192.44482421875 90.43489837646484 179.0193634033203 94.84443664550781 163.7828216552734 97.56100463867188 L 163.7828216552734 122.6008987426758 M 161.9324035644531 85.15918731689453 C 185.554931640625 80.90715026855469 201.578857421875 72.56050872802734 201.578857421875 62.99340057373047 L 201.578857421875 46.18204498291016 C 187.6022186279297 56.06411361694336 163.5859680175781 61.37918472290039 138.3098602294922 62.63904190063477 C 149.9242858886719 68.26908111572266 158.4677581787109 75.82829284667969 161.9324035644531 85.15918731689453 M 125.9867935180664 50.39472198486328 C 167.7198944091797 50.39472198486328 201.578857421875 39.09529495239258 201.578857421875 25.19736480712891 C 201.578857421875 11.29943656921387 167.7198944091797 7.768903742544353e-06 125.9867935180664 7.768903742544353e-06 C 84.25364685058594 7.768903742544353e-06 50.39472198486328 11.29943656921387 50.39472198486328 25.19736480712891 C 50.39472198486328 39.09529495239258 84.25364685058594 50.39472198486328 125.9867935180664 50.39472198486328 M 75.59207916259766 211.578857421875 C 34.36840057373047 211.578857421875 -9.999992370605469 200.5644683837891 -9.999992370605469 176.3815002441406 L -9.999992370605469 159.5701446533203 C -9.999992370605469 156.1353607177734 -8.239392280578613 152.9635925292969 -5.377453804016113 151.1389312744141 C -8.344572067260742 147.4355163574219 -9.999992370605469 143.2555694580078 -9.999992370605469 138.5854644775391 L -9.999992370605469 118.2701187133789 C -9.999992370605469 114.6603088378906 -8.057241439819336 111.3527679443359 -4.955453395843506 109.5841445922852 C -8.19408130645752 105.1047134399414 -9.999992370605469 100.0703811645508 -9.999992370605469 94.4901123046875 C -9.999992370605469 68.175048828125 30.1764030456543 53.97934341430664 71.24729919433594 53.04292678833008 C 53.10923767089844 47.31411743164062 40.39472198486328 38.14198303222656 40.39472198486328 25.19736480712891 C 40.39472198486328 1.014400601387024 84.76311492919922 -9.999992370605469 125.9867935180664 -9.999992370605469 C 167.2104644775391 -9.999992370605469 211.578857421875 1.014400601387024 211.578857421875 25.19736480712891 C 211.578857421875 29.86746406555176 209.9234466552734 34.04740524291992 206.9563293457031 37.75081634521484 C 209.818115234375 39.57536697387695 211.578857421875 42.74706268310547 211.578857421875 46.18204498291016 L 211.578857421875 62.99340057373047 C 211.578857421875 67.54861450195312 210.0288391113281 71.7640380859375 207.0137023925781 75.58370208740234 C 209.8417205810547 77.41391754150391 211.578857421875 80.56607055664062 211.578857421875 83.97808074951172 L 211.578857421875 100.789436340332 C 211.578857421875 115.4525756835938 195.2799682617188 126.6852951049805 165.6846466064453 132.4183959960938 C 164.1732330322266 132.7111968994141 162.6353149414062 132.6478729248047 161.1841430664062 132.2573394775391 L 161.1841430664062 138.5854644775391 C 161.1841430664062 143.2555694580078 159.5287322998047 147.4355163574219 156.5616149902344 151.1389312744141 C 159.4235534667969 152.9635925292969 161.1841430664062 156.1353607177734 161.1841430664062 159.5701446533203 L 161.1841430664062 176.3815002441406 C 161.1841430664062 200.5644683837891 116.8157577514648 211.578857421875 75.59207916259766 211.578857421875 Z M 126.0884246826172 60.39469909667969 C 126.8734436035156 60.6549186706543 127.6475067138672 60.92110443115234 128.4145660400391 61.19485855102539 C 128.4413909912109 61.01156234741211 128.4734497070312 60.82799911499023 128.5107574462891 60.64468765258789 C 128.5287780761719 60.55617141723633 128.5479736328125 60.46791839599609 128.5682525634766 60.38034820556641 C 127.7382431030273 60.38959884643555 126.9163208007812 60.39434814453125 126.0884246826172 60.39469909667969 Z" stroke="none" fill="#5e9e03"/>
        </g>
    </g>
    <g transform="matrix(1, 0, 0, 1, 0, 0)" filter="url(#Icon_awesome-dollar-sign)">
        <g id="Icon_awesome-dollar-sign-2" data-name="Icon awesome-dollar-sign" transform="translate(18.99 116.79)" fill="#ddf0c2">
            <path d="M 41.49942779541016 137.8202209472656 L 33.19815444946289 137.8202209472656 C 28.15248870849609 137.8202209472656 24.04753112792969 133.7152709960938 24.04753112792969 128.6696166992188 L 24.04753112792969 120.8980941772461 C 16.60489654541016 119.9662246704102 9.463542938232422 117.0214309692383 3.537023544311523 112.3809127807617 C 1.389422535896301 110.7156372070312 0.07052004337310791 108.2202377319336 -0.08234438300132751 105.5314025878906 C -0.232092872262001 102.8973007202148 0.7653382420539856 100.333251953125 2.654206037521362 98.49622344970703 L 11.67171859741211 89.68599700927734 C 13.36150932312012 88.03079223632812 15.68521881103516 87.08146667480469 18.04769706726074 87.08146667480469 C 19.82919692993164 87.08146667480469 21.54740524291992 87.60344696044922 23.01663398742676 88.5909423828125 L 23.02782249450684 88.59846496582031 L 23.03898811340332 88.60607147216797 C 24.80144691467285 89.80452728271484 26.95373916625977 90.46454620361328 29.09940528869629 90.46454620361328 L 46.29859161376953 90.46454620361328 C 47.76132202148438 90.46454620361328 48.95132064819336 89.27455139160156 48.95132064819336 87.81182098388672 C 48.95132064819336 86.6673583984375 48.14755249023438 85.59812927246094 47.03924942016602 85.26673126220703 L 20.45726013183594 77.48663330078125 C 17.15361404418945 76.51934051513672 14.00240516662598 75.09729766845703 11.09071826934814 73.25985717773438 C 8.187718391418457 71.42790222167969 5.58061408996582 69.21979522705078 3.341801404953003 66.6968994140625 C -1.398844361305237 61.354736328125 -4.233781814575195 54.91786193847656 -4.856552600860596 48.0821533203125 C -5.292594432830811 43.28567123413086 -4.724552631378174 38.57677841186523 -3.168302774429321 34.08525466918945 C -1.67651104927063 29.77973556518555 0.6464889645576477 25.8812141418457 3.736114025115967 22.49796485900879 C 6.835509777069092 19.10402679443359 10.52248859405518 16.42817306518555 14.69463443756104 14.54469394683838 C 17.68916511535645 13.19285583496094 20.82104301452637 12.30244159698486 24.04753112792969 11.88261699676514 L 24.04753112792969 4.150631427764893 C 24.04753112792969 -0.8950353860855103 28.15248870849609 -4.999993801116943 33.19815444946289 -4.999993801116943 L 41.49942779541016 -4.999993801116943 C 46.54509353637695 -4.999993801116943 50.65005111694336 -0.8950353860855103 50.65005111694336 4.150631427764893 L 50.65005111694336 11.92212867736816 C 58.09378433227539 12.85413360595703 65.23538208007812 15.7990550994873 71.16243743896484 20.44076156616211 C 73.30885314941406 22.10605239868164 74.62710571289062 24.60087013244629 74.77993011474609 27.28883934020996 C 74.92967224121094 29.92294311523438 73.932373046875 32.48686599731445 72.04352569580078 34.32386779785156 L 63.02586364746094 43.13423919677734 C 61.33605194091797 44.78945159912109 59.01238250732422 45.7387580871582 56.64988327026367 45.7387580871582 C 54.86840438842773 45.7387580871582 53.15019607543945 45.216796875 51.68098831176758 44.22932052612305 L 51.66978073120117 44.22177886962891 L 51.65861511230469 44.21417236328125 C 49.89615631103516 43.01571273803711 47.74386215209961 42.35569381713867 45.59817504882812 42.35569381713867 L 28.39898872375488 42.35569381713867 C 26.93626022338867 42.35569381713867 25.74625968933105 43.54569244384766 25.74625968933105 45.0084228515625 C 25.74625968933105 46.16400527954102 26.53832244873047 47.23083877563477 27.62959289550781 47.54513168334961 L 27.63978004455566 47.54806900024414 L 27.64996719360352 47.551025390625 L 55.66671752929688 55.74852752685547 C 60.07936477661133 57.03650665283203 64.11719512939453 59.19740295410156 67.66484069824219 62.17023468017578 C 71.12284088134766 65.06796264648438 73.925048828125 68.57419586181641 75.99361419677734 72.59159088134766 C 78.03532409667969 76.55681610107422 79.24717712402344 80.80532073974609 79.59551239013672 85.21907043457031 C 79.9613037109375 89.85404968261719 79.35415649414062 94.47515106201172 77.79090881347656 98.95402526855469 C 76.62994384765625 102.2785873413086 74.92311096191406 105.373649597168 72.71757507324219 108.1540298461914 C 70.60723876953125 110.814338684082 68.0726318359375 113.1474609375 65.18413543701172 115.0885925292969 C 62.36465454101562 116.9833374023438 59.26375961303711 118.4677352905273 55.96761322021484 119.5005722045898 C 54.22590637207031 120.0463256835938 52.44892883300781 120.4598999023438 50.65005111694336 120.7391204833984 L 50.65005111694336 128.6696166992188 C 50.65005111694336 133.7152709960938 46.54509353637695 137.8202209472656 41.49942779541016 137.8202209472656 Z" stroke="none"/>
            <path d="M 33.19816207885742 0 C 30.91532135009766 0 29.04753112792969 1.867767333984375 29.04753112792969 4.150634765625 L 29.04753112792969 16.60253143310547 L 28.39900588989258 16.60253143310547 C 11.87429809570312 16.60253143310547 -1.407730102539062 30.79250335693359 0.1228179931640625 47.62850189208984 C 1.212348937988281 59.58750152587891 10.34374237060547 69.31555938720703 21.86174392700195 72.68795776367188 L 48.45174407958984 80.47037506103516 C 51.69442749023438 81.43021392822266 53.95132064819336 84.43942260742188 53.95132064819336 87.81182098388672 C 53.95132064819336 92.04026794433594 50.52705764770508 95.46453094482422 46.298583984375 95.46453094482422 L 29.09939956665039 95.46453094482422 C 25.9345588684082 95.46453094482422 22.82158279418945 94.50471496582031 20.22742462158203 92.74069213867188 C 18.64500427246094 91.67707824707031 16.51778411865234 91.93650817871094 15.16884613037109 93.25950622558594 L 6.141242980957031 102.0796127319336 C 4.29937744140625 103.8695602416992 4.558792114257812 106.8528442382812 6.608161926269531 108.4352722167969 C 12.96384429931641 113.4160079956055 20.90192794799805 116.1917724609375 29.04753112792969 116.2176895141602 L 29.04753112792969 128.6696166992188 C 29.04753112792969 130.9524230957031 30.91532135009766 132.8202209472656 33.19816207885742 132.8202209472656 L 41.49942779541016 132.8202209472656 C 43.78226852416992 132.8202209472656 45.65005874633789 130.9524230957031 45.65005874633789 128.6696166992188 L 45.65005874633789 116.1658172607422 C 57.73876953125 115.9323196411133 69.07518768310547 108.7465591430664 73.07015991210938 97.30637359619141 C 78.6475830078125 81.32645416259766 69.28271484375 64.93144989013672 54.26261138916016 60.54734802246094 L 26.24584579467773 52.34984588623047 C 23.0031623840332 51.41595458984375 20.74626922607422 48.38079833984375 20.74626922607422 45.0084228515625 C 20.74626922607422 40.77995300292969 24.1705322265625 37.35569000244141 28.39900588989258 37.35569000244141 L 45.59816360473633 37.35569000244141 C 48.76303100585938 37.35569000244141 51.87600708007812 38.31552886962891 54.47013854980469 40.07952880859375 C 56.05258178710938 41.14314270019531 58.17976760864258 40.88371276855469 59.52873992919922 39.56071472167969 L 68.55635070800781 30.74060821533203 C 70.398193359375 28.95066070556641 70.1387939453125 25.96739959716797 68.08942413330078 24.38495635986328 C 61.73376846313477 19.40421295166016 53.79566192626953 16.62847900390625 45.65005874633789 16.60253143310547 L 45.65005874633789 4.150634765625 C 45.65005874633789 1.867767333984375 43.78226852416992 0 41.49942779541016 0 L 33.19816207885742 0 M 33.19816207885742 -10 L 41.49942779541016 -10 C 49.30210876464844 -10 55.65005874633789 -3.652053833007812 55.65005874633789 4.150634765625 L 55.65005874633789 7.723793029785156 C 62.39502716064453 9.231857299804688 68.78884887695312 12.22819519042969 74.2576904296875 16.51395416259766 C 77.50584411621094 19.02174377441406 79.53632354736328 22.86166381835938 79.77187347412109 27.00505828857422 C 80.00400543212891 31.08847808837891 78.45632171630859 35.06389617919922 75.52566528320312 37.91197967529297 L 66.51713562011719 46.71350860595703 C 63.80132293701172 49.37708282470703 60.14800262451172 50.81925201416016 56.33791351318359 50.73530578613281 L 57.07079315185547 50.94974517822266 C 67.09305572509766 53.87506103515625 75.61271667480469 60.92961120605469 80.43892669677734 70.30268859863281 C 85.29994964599609 79.74340057373047 86.03605651855469 90.50379943847656 82.51161193847656 100.6016845703125 C 78.33921813964844 112.5499267578125 68.10666656494141 121.5061645507812 55.65005874633789 124.7973937988281 L 55.65005874633789 128.6696166992188 C 55.65005874633789 136.4722747802734 49.30210876464844 142.8202209472656 41.49942779541016 142.8202209472656 L 33.19816207885742 142.8202209472656 C 25.39547729492188 142.8202209472656 19.04753112792969 136.4722747802734 19.04753112792969 128.6696166992188 L 19.04753112792969 125.096435546875 C 12.30257415771484 123.5883865356445 5.908798217773438 120.5920562744141 0.4399261474609375 116.306266784668 C -2.808258056640625 113.7985305786133 -4.838729858398438 109.958610534668 -5.074287414550781 105.8151626586914 C -5.306442260742188 101.7317199707031 -3.75872802734375 97.75627136230469 -0.8280181884765625 94.90818786621094 L 8.180450439453125 86.10671997070312 C 10.90360260009766 83.43586730957031 14.57159805297852 81.99300384521484 18.39102172851562 82.08563995361328 C 2.867507934570312 77.26132202148438 -8.43975830078125 63.86053466796875 -9.835945129394531 48.53579711914062 C -10.81281280517578 37.79010772705078 -7.211654663085938 27.07144927978516 0.043975830078125 19.12629699707031 C 5.165138244628906 13.51844787597656 11.80838775634766 9.595779418945312 19.04753112792969 7.76751708984375 L 19.04753112792969 4.150634765625 C 19.04753112792969 -3.652053833007812 25.39547729492188 -10 33.19816207885742 -10 Z M 49.40124130249023 48.70571136474609 C 49.22943496704102 48.60072326660156 49.05951690673828 48.49179077148438 48.89171600341797 48.37900543212891 C 47.90524291992188 47.7083740234375 46.75142669677734 47.35569000244141 45.59816360473633 47.35569000244141 L 44.78720855712891 47.35569000244141 L 49.40124130249023 48.70571136474609 Z M 29.91516876220703 85.46453094482422 L 25.29058456420898 84.11100769042969 C 25.46429824829102 84.217041015625 25.63622665405273 84.32720947265625 25.80584716796875 84.44121551513672 C 26.79232025146484 85.11184692382812 27.94610977172852 85.46453094482422 29.09939956665039 85.46453094482422 L 29.91516876220703 85.46453094482422 Z" stroke="none" fill="#5e9e03"/>
        </g>
    </g>
</svg>
