<svg xmlns="http://www.w3.org/2000/svg" xmlns:xlink="http://www.w3.org/1999/xlink" width="130.978" height="203.32" viewBox="0 0 130.978 203.32">
    <defs>
        <filter id="Icon_awesome-dollar-sign" x="0" y="0" width="130.978" height="203.32" filterUnits="userSpaceOnUse">
            <feOffset dy="3" input="SourceAlpha"/>
            <feGaussianBlur stdDeviation="3" result="blur"/>
            <feFlood flood-opacity="0.161"/>
            <feComposite operator="in" in2="blur"/>
            <feComposite in="SourceGraphic"/>
        </filter>
    </defs>
    <g id="Icon_awesome-dollar-sign-2" data-name="Icon awesome-dollar-sign" transform="translate(18.995 16)">
        <g transform="matrix(1, 0, 0, 1, -19, -16)" filter="url(#Icon_awesome-dollar-sign)">
            <g id="Icon_awesome-dollar-sign-3" data-name="Icon awesome-dollar-sign" transform="translate(18.99 16)" fill="#ddf0c2">
                <path d="M 51.65335464477539 170.3202362060547 L 41.32085418701172 170.3202362060547 C 35.71515274047852 170.3202362060547 31.15460395812988 165.7596893310547 31.15460395812988 160.1539916992188 L 31.15460395812988 149.3922882080078 C 27.26906394958496 148.9933013916016 23.43716049194336 148.1419677734375 19.71255302429199 146.847412109375 C 14.4292631149292 145.0111236572266 9.531670570373535 142.3425903320312 5.15558910369873 138.9158477783203 C 2.759905338287354 137.0600128173828 1.288641333580017 134.2794952392578 1.118378758430481 131.2846374511719 C 0.9520693421363831 128.3596649169922 2.059636116027832 125.5127105712891 4.157115459442139 123.4734420776367 L 15.38239479064941 112.5062255859375 C 16.33152008056641 111.5762176513672 17.43841171264648 110.8515853881836 18.6724796295166 110.3523941040039 C 19.88527870178223 109.8617935180664 21.16065406799316 109.6130447387695 22.46317863464355 109.6130447387695 C 24.43660354614258 109.6130447387695 26.33925437927246 110.1907653808594 27.9654541015625 111.2837905883789 L 27.9766788482666 111.2913436889648 L 27.98787879943848 111.298942565918 C 30.38232803344727 112.9271926879883 33.30560302734375 113.8239212036133 36.21917724609375 113.8239212036133 L 57.62685394287109 113.8239212036133 C 60.12210464477539 113.8239212036133 62.15213012695312 111.7938919067383 62.15213012695312 109.2986450195312 C 62.15213012695312 107.3113098144531 60.81111145019531 105.5260467529297 58.89075469970703 104.9561004638672 L 25.80600357055664 95.27276611328125 C 21.80315399169922 94.10076904296875 17.98487854003906 92.37769317626953 14.45682907104492 90.15126800537109 C 10.94095325469971 87.93257141113281 7.784128665924072 85.25907135009766 5.073978900909424 82.20503997802734 C 2.297278642654419 79.07599639892578 0.04357871785759926 75.60731506347656 -1.624496340751648 71.89537048339844 C -3.368046283721924 68.01546478271484 -4.445571422576904 63.92461776733398 -4.827121257781982 59.73646926879883 C -5.354021072387695 53.94066619873047 -4.667996406555176 48.25156784057617 -2.788171291351318 42.82619476318359 C -0.9861212968826294 37.62526702880859 1.820278763771057 32.91561889648438 5.553078651428223 28.82806777954102 C 7.396478652954102 26.80949401855469 9.451203346252441 24.97149276733398 11.66020393371582 23.3651180267334 C 13.88910388946533 21.74424362182617 16.28895378112793 20.34921836853027 18.79305458068848 19.2187671661377 C 22.7383975982666 17.43769073486328 26.88091468811035 16.31980514526367 31.15460395812988 15.87935543060303 L 31.15460395812988 5.166267871856689 C 31.15460395812988 -0.43943190574646 35.71515274047852 -5.000006675720215 41.32085418701172 -5.000006675720215 L 51.65335464477539 -5.000006675720215 C 57.25905227661133 -5.000006675720215 61.81962966918945 -0.43943190574646 61.81962966918945 5.166267871856689 L 61.81962966918945 15.92796802520752 C 65.70516204833984 16.32695007324219 69.53704833984375 17.17827033996582 73.26165008544922 18.47281837463379 C 78.54755401611328 20.31000900268555 83.44730377197266 22.98021697998047 87.82503509521484 26.40934371948242 C 90.21708679199219 28.26518249511719 91.68576049804688 31.04332542419434 91.85585021972656 34.03564453125 C 92.02201080322266 36.95792388916016 90.91678619384766 39.80215072631836 88.82302093505859 41.84103012084961 L 77.5885009765625 52.81729125976562 C 76.64010620117188 53.7457389831543 75.53436279296875 54.46923446655273 74.30172729492188 54.96784210205078 C 73.08892822265625 55.45844268798828 71.81355285644531 55.70719146728516 70.51103210449219 55.70719146728516 C 68.53760528564453 55.70719146728516 66.63495635986328 55.12944412231445 65.00875091552734 54.03641891479492 L 64.99755096435547 54.02889251708984 L 64.98638153076172 54.02129364013672 C 62.59187698364258 52.39304351806641 59.66860198974609 51.49631881713867 56.75505447387695 51.49631881713867 L 35.34737777709961 51.49631881713867 C 32.85212707519531 51.49631881713867 30.82207870483398 53.52634429931641 30.82207870483398 56.0215950012207 C 30.82207870483398 57.9935188293457 32.18008041381836 59.81584167480469 34.05112838745117 60.35471725463867 L 34.06130218505859 60.35764312744141 L 34.07147979736328 60.36061859130859 L 68.94370269775391 70.56399536132812 C 74.27340698242188 72.11962127685547 79.15020751953125 74.72962188720703 83.43543243408203 78.32051849365234 C 85.50392913818359 80.05387115478516 87.40925598144531 82.00492095947266 89.09852600097656 84.11949157714844 C 90.78440093994141 86.22984313964844 92.26535034179688 88.51589202880859 93.50022888183594 90.91419219970703 C 95.96682739257812 95.70458984375 97.43085479736328 100.8366165161133 97.85157775878906 106.1677169799805 C 98.29345703125 111.7666168212891 97.55945587158203 117.3504409790039 95.66995239257812 122.7640914916992 C 94.27020263671875 126.7725143432617 92.21185302734375 130.5048217773438 89.55182647705078 133.8580627441406 C 87.00355529785156 137.0704650878906 83.94162750244141 139.8886413574219 80.45112609863281 142.2343444824219 C 77.03945159912109 144.5270690917969 73.28633117675781 146.3235473632812 69.29600524902344 147.5738677978516 C 66.85286712646484 148.3394165039062 64.35207366943359 148.8902893066406 61.81962966918945 149.2222595214844 L 61.81962966918945 160.1539916992188 C 61.81962966918945 165.7596893310547 57.25905227661133 170.3202362060547 51.65335464477539 170.3202362060547 Z" stroke="none"/>
                <path d="M 41.32084274291992 0 C 38.47940444946289 0 36.15459060668945 2.324798583984375 36.15459060668945 5.166244506835938 L 36.15459060668945 20.66502380371094 L 35.34737396240234 20.66502380371094 C 14.77921295166016 20.66502380371094 -1.752815246582031 38.32717895507812 0.1522445678710938 59.28280639648438 C 1.508369445800781 74.16808319091797 12.87415313720703 86.27649688720703 27.21049499511719 90.47409057617188 L 60.30684280395508 100.1608047485352 C 64.34299468994141 101.3555297851562 67.15212249755859 105.1010589599609 67.15212249755859 109.2986450195312 C 67.15212249755859 114.5617752075195 62.88996505737305 118.8239288330078 57.6268424987793 118.8239288330078 L 36.21915435791016 118.8239288330078 C 32.27990341186523 118.8239288330078 28.40522003173828 117.6292419433594 25.17630767822266 115.4335556030273 C 23.2066650390625 114.1097259521484 20.55897521972656 114.4325866699219 18.87993621826172 116.0793380737305 L 7.643310546875 127.0576477050781 C 5.350776672363281 129.2855834960938 5.673683166503906 132.9988403320312 8.224525451660156 134.9684600830078 C 16.13533782958984 141.1679992675781 26.01580810546875 144.6229248046875 36.15459060668945 144.6552124023438 L 36.15459060668945 160.1539916992188 C 36.15459060668945 162.9954376220703 38.47940444946289 165.3202362060547 41.32084274291992 165.3202362060547 L 51.65337371826172 165.3202362060547 C 54.49480819702148 165.3202362060547 56.81962203979492 162.9954376220703 56.81962203979492 160.1539916992188 L 56.81962203979492 144.5906524658203 C 71.86634063720703 144.3000183105469 85.97671508789062 135.35595703125 90.94921875 121.1164321899414 C 97.89137268066406 101.2263717651367 86.23503112792969 80.81961822509766 67.53962707519531 75.36277770996094 L 32.66737365722656 65.15943145751953 C 28.63124847412109 63.99699401855469 25.82205963134766 60.21917724609375 25.82205963134766 56.02162170410156 C 25.82205963134766 50.75849151611328 30.08424377441406 46.49630737304688 35.34737396240234 46.49630737304688 L 56.75502777099609 46.49630737304688 C 60.69430923461914 46.49630737304688 64.56903076171875 47.69099426269531 67.79793548583984 49.88668060302734 C 69.76756286621094 51.21053314208984 72.415283203125 50.88762664794922 74.09431457519531 49.24089813232422 L 85.33090209960938 38.26258850097656 C 87.62343597412109 36.03465270996094 87.30055999755859 32.32139587402344 84.74971771240234 30.35177612304688 C 76.83887481689453 24.15223693847656 66.95840454101562 20.69731140136719 56.81962203979492 20.66502380371094 L 56.81962203979492 5.166244506835938 C 56.81962203979492 2.324798583984375 54.49480819702148 0 51.65337371826172 0 L 41.32084274291992 0 M 41.32084274291992 -10 L 51.65337371826172 -10 C 60.01605987548828 -10 66.81962585449219 -3.196441650390625 66.81962585449219 5.166244506835938 L 66.81962585449219 11.60856628417969 C 75.56409454345703 13.24403381347656 83.88241577148438 16.96719360351562 90.91799926757812 22.48080444335938 C 94.41290283203125 25.17903137207031 96.59487152099609 29.30323791503906 96.84780883789062 33.75180053710938 C 97.09646606445312 38.12567901611328 95.43893432617188 42.38368225097656 92.30021667480469 45.4339599609375 L 81.08268737792969 56.39368438720703 C 78.2513427734375 59.17055511474609 74.49205780029297 60.70718383789062 70.51100158691406 60.70718383789062 C 67.5404052734375 60.70718383789062 64.67324829101562 59.83543395996094 62.21949768066406 58.18614959716797 C 60.60096740722656 57.08570861816406 58.67618560791016 56.49630737304688 56.75502777099609 56.49630737304688 L 35.34737396240234 56.49630737304688 L 70.34780883789062 65.76518249511719 C 82.18283843994141 69.21958923339844 92.24412536621094 77.55245971679688 97.945556640625 88.62527465820312 C 103.6858444213867 99.77355194091797 104.5541839599609 112.4827728271484 100.3906555175781 124.4117431640625 C 95.26615905761719 139.0865478515625 82.37253570556641 149.9384002685547 66.81962585449219 153.4132995605469 L 66.81962585449219 160.1539916992188 C 66.81962585449219 168.5166778564453 60.01605987548828 175.3202362060547 51.65337371826172 175.3202362060547 L 41.32084274291992 175.3202362060547 C 32.95815277099609 175.3202362060547 26.15459442138672 168.5166778564453 26.15459442138672 160.1539916992188 L 26.15459442138672 153.711669921875 C 17.41011047363281 152.0762023925781 9.091773986816406 148.3530426025391 2.05621337890625 142.8394317626953 C -1.43865966796875 140.1411743164062 -3.620658874511719 136.0169982910156 -3.873565673828125 131.5683898925781 C -4.12225341796875 127.1945190429688 -2.4647216796875 122.9365539550781 0.6739959716796875 119.8862762451172 L 11.89156341552734 108.9265289306641 C 14.72280883789062 106.1497116088867 18.48209381103516 104.6130218505859 22.46318817138672 104.6130218505859 C 25.43377685546875 104.6130218505859 28.30096435546875 105.4848022460938 30.75474548339844 107.1340866088867 C 32.3732795715332 108.2345275878906 34.29802703857422 108.8239288330078 36.21915435791016 108.8239288330078 L 57.6268424987793 108.8239288330078 L 24.40152740478516 100.0714645385742 C 5.612312316894531 94.57008361816406 -8.134437561035156 78.54312133789062 -9.806503295898438 60.19008636474609 C -10.96028137207031 47.49848937988281 -6.707595825195312 34.83924865722656 1.861000061035156 25.45637512207031 C 8.343246459960938 18.35810852050781 16.890380859375 13.54573059082031 26.15459442138672 11.61451721191406 L 26.15459442138672 5.166244506835938 C 26.15459442138672 -3.196441650390625 32.95815277099609 -10 41.32084274291992 -10 Z" stroke="none" fill="#5e9e03"/>
            </g>
        </g>
    </g>
</svg>
