<svg xmlns="http://www.w3.org/2000/svg" xmlns:xlink="http://www.w3.org/1999/xlink" width="239.579" height="239.579" viewBox="0 0 239.579 239.579">
    <defs>
        <filter id="Icon_awesome-coins" x="0" y="0" width="239.579" height="239.579" filterUnits="userSpaceOnUse">
            <feOffset dy="3" input="SourceAlpha"/>
            <feGaussianBlur stdDeviation="3" result="blur"/>
            <feFlood flood-opacity="0.161"/>
            <feComposite operator="in" in2="blur"/>
            <feComposite in="SourceGraphic"/>
        </filter>
    </defs>
    <g id="Icon_awesome-coins-2" data-name="Icon awesome-coins" transform="translate(19 16)">
        <g transform="matrix(1, 0, 0, 1, -19, -16)" filter="url(#Icon_awesome-coins)">
            <g id="Icon_awesome-coins-3" data-name="Icon awesome-coins" transform="translate(19 16)" fill="#ddf0c2" stroke-linejoin="round">
                <path d="M 75.59208679199219 206.5788726806641 C 65.15937805175781 206.5788726806641 55.02681732177734 205.8952941894531 45.4758186340332 204.547119140625 C 36.17687606811523 203.2344970703125 27.79549598693848 201.3463745117188 20.56446647644043 198.9351654052734 C 13.07261276245117 196.4369964599609 7.11220121383667 193.4676666259766 2.848818778991699 190.1097259521484 C 0.4543481171131134 188.2238159179688 -1.420416593551636 186.1926116943359 -2.723416566848755 184.0724639892578 C -4.234063625335693 181.6145172119141 -5.000004768371582 179.0269012451172 -5.000004768371582 176.3815307617188 L -5.000004768371582 159.5701446533203 L -5.000004768371582 149.9306488037109 L 2.879906892776489 155.4828491210938 C 6.491054058074951 158.0272674560547 11.00308322906494 160.3407592773438 16.29061317443848 162.3590545654297 C 21.44734764099121 164.3274383544922 27.3453483581543 166.0164947509766 33.8207893371582 167.3793792724609 C 46.26084899902344 169.9976196289062 60.70511245727539 171.3815307617188 75.59208679199219 171.3815307617188 C 90.47905731201172 171.3815307617188 104.9233169555664 169.9976196289062 117.3633499145508 167.3793792724609 C 123.8388214111328 166.0164947509766 129.73681640625 164.3274383544922 134.8935241699219 162.3590545654297 C 140.1810760498047 160.3407592773438 144.6930847167969 158.0272674560547 148.3042297363281 155.4828491210938 L 156.1841430664062 149.9306182861328 L 156.1841430664062 159.5701446533203 L 156.1841430664062 176.3815307617188 C 156.1841430664062 179.0269012451172 155.4181976318359 181.6145172119141 153.9075469970703 184.0724639892578 C 152.6045532226562 186.1926116943359 150.7297821044922 188.2238159179688 148.3353424072266 190.1097259521484 C 144.0719299316406 193.4676666259766 138.1115264892578 196.4369659423828 130.6196746826172 198.9351654052734 C 123.388671875 201.3463745117188 115.0072860717773 203.2344970703125 105.7083511352539 204.547119140625 C 96.1573486328125 205.8952941894531 86.02478790283203 206.5788726806641 75.59208679199219 206.5788726806641 Z M 75.59208679199219 168.7828521728516 C 65.15937805175781 168.7828521728516 55.02681732177734 168.0992584228516 45.4758186340332 166.7510833740234 C 36.17687606811523 165.4384613037109 27.79549598693848 163.5503540039062 20.56446647644043 161.1391448974609 C 13.07261276245117 158.6409301757812 7.11220121383667 155.6716461181641 2.848789215087891 152.3137054443359 C 0.4543481171131134 150.4277954101562 -1.420416593551636 148.3965606689453 -2.723416566848755 146.2764434814453 C -4.234063625335693 143.8184661865234 -5.000004768371582 141.2308807373047 -5.000004768371582 138.5854644775391 L -5.000004768371582 118.2701110839844 L -5.000004768371582 107.6775283813477 L 3.177877426147461 114.4099044799805 C 6.807083606719971 117.3976440429688 11.32017135620117 120.134407043457 16.59184837341309 122.5442581176758 C 21.75896644592285 124.9062881469727 27.63529014587402 126.9460525512695 34.05758285522461 128.6068115234375 C 46.65284729003906 131.8638763427734 61.01523208618164 133.5854644775391 75.59208679199219 133.5854644775391 C 90.16893768310547 133.5854644775391 104.5313186645508 131.8638763427734 117.1265869140625 128.6068115234375 C 123.5488510131836 126.9460525512695 129.4251708984375 124.9062881469727 134.5923156738281 122.5442581176758 C 139.8639678955078 120.134407043457 144.3770904541016 117.3976440429688 148.0062561035156 114.4099349975586 L 156.1841430664062 107.6775283813477 L 156.1841430664062 118.2701110839844 L 156.1841430664062 138.5854644775391 C 156.1841430664062 141.2308807373047 155.4181976318359 143.8184661865234 153.9075469970703 146.2764434814453 C 152.6045532226562 148.3965606689453 150.7297821044922 150.4277954101562 148.3353424072266 152.3137054443359 C 144.0719299316406 155.6716461181641 138.1115570068359 158.6409301757812 130.6196746826172 161.1391448974609 C 123.388671875 163.5503540039062 115.0072860717773 165.4384613037109 105.7083511352539 166.7510833740234 C 96.1573486328125 168.0992584228516 86.02478790283203 168.7828521728516 75.59208679199219 168.7828521728516 Z M 75.59208679199219 130.9867858886719 C 65.10020446777344 130.9867858886719 54.91084671020508 130.1288146972656 45.30708312988281 128.4367370605469 C 35.9442024230957 126.7870864868164 27.5048770904541 124.4127578735352 20.22352409362793 121.3797607421875 C 12.68581867218018 118.2399368286133 6.700583457946777 114.5173187255859 2.434024572372437 110.3152313232422 C 0.1023775190114975 108.0188446044922 -1.709534287452698 105.5724639892578 -2.951446056365967 103.0440826416016 C -4.310769557952881 100.2767028808594 -5.000004768371582 97.39870452880859 -5.000004768371582 94.49008178710938 C -5.000004768371582 91.58146667480469 -4.310769557952881 88.70346832275391 -2.951446056365967 85.93608093261719 C -1.709534287452698 83.40769958496094 0.1024069264531136 80.96134948730469 2.434024572372437 78.66493988037109 C 6.700583457946777 74.46287536621094 12.68581867218018 70.74022674560547 20.22352409362793 67.60043334960938 C 27.5048770904541 64.56743621826172 35.9442024230957 62.19311141967773 45.30708312988281 60.54346466064453 C 54.91084671020508 58.85137939453125 65.10020446777344 57.993408203125 75.59208679199219 57.993408203125 C 86.08396911621094 57.993408203125 96.2733154296875 58.85137939453125 105.877082824707 60.54346466064453 C 115.2399673461914 62.19311141967773 123.6792907714844 64.56743621826172 130.9606475830078 67.60043334960938 C 138.4983215332031 70.74022674560547 144.4835815429688 74.46287536621094 148.7501068115234 78.66493988037109 C 151.0817565917969 80.96134948730469 152.8937072753906 83.40769958496094 154.1355895996094 85.93608093261719 C 155.4949035644531 88.70346832275391 156.1841430664062 91.58146667480469 156.1841430664062 94.49008178710938 C 156.1841430664062 97.39870452880859 155.4949035644531 100.2767028808594 154.1356201171875 103.0440826416016 C 152.8937072753906 105.5724639892578 151.0817565917969 108.0188446044922 148.7501068115234 110.3152313232422 C 144.4835815429688 114.5173187255859 138.4983215332031 118.2399368286133 130.9606475830078 121.3797607421875 C 123.6792907714844 124.4127578735352 115.2399673461914 126.7870864868164 105.877082824707 128.4367370605469 C 96.2733154296875 130.1288146972656 86.08396911621094 130.9867858886719 75.59208679199219 130.9867858886719 Z M 158.7828521728516 128.6624298095703 L 158.7828521728516 122.6009063720703 L 158.7828521728516 97.56102752685547 L 158.7828521728516 93.37364196777344 L 162.9051971435547 92.63864135742188 C 170.5176696777344 91.28137969970703 177.3835906982422 89.53726196289062 183.3122253417969 87.45470428466797 C 189.4936065673828 85.28337860107422 194.6683502197266 82.73999786376953 198.6927032470703 79.89517211914062 L 206.5788726806641 74.32040405273438 L 206.5788726806641 83.97805023193359 L 206.5788726806641 100.789436340332 C 206.5788726806641 104.2746124267578 205.2702941894531 107.6147308349609 202.6894989013672 110.7170562744141 C 200.5430908203125 113.2972030639648 197.4841461181641 115.7172927856445 193.5976715087891 117.9101104736328 C 186.5204315185547 121.9031982421875 176.5394287109375 125.2226715087891 164.7337646484375 127.5096435546875 L 158.7828521728516 128.6624298095703 Z M 158.7011413574219 90.82117462158203 L 157.2450561523438 86.89961242675781 C 155.8338775634766 83.09905242919922 153.3162841796875 79.48681640625 149.76220703125 76.16329193115234 C 146.2022552490234 72.83428955078125 141.6153411865234 69.7978515625 136.1288757324219 67.13832092285156 L 138.0609588623047 57.64525985717773 C 144.3075866699219 57.33390808105469 150.4142303466797 56.77114105224609 156.2112274169922 55.97258377075195 C 162.1559295654297 55.15370178222656 167.7949066162109 54.08375930786133 172.9715881347656 52.79252624511719 C 178.2939605712891 51.46493530273438 183.1618499755859 49.89452362060547 187.4400177001953 48.12493515014648 C 191.8054962158203 46.31922912597656 195.5913238525391 44.29196548461914 198.6922912597656 42.09940719604492 L 206.5788726806641 36.52325820922852 L 206.5788726806641 46.18202590942383 L 206.5788726806641 62.993408203125 C 206.5788726806641 64.84152221679688 206.2002563476562 66.67935180664062 205.4535522460938 68.45575714111328 C 204.7755889892578 70.06867218017578 203.7853851318359 71.64449310302734 202.5104370117188 73.13946533203125 C 200.2668762207031 75.77020263671875 197.0729064941406 78.231201171875 193.0172576904297 80.45405578613281 C 185.5699920654297 84.53585052490234 175.1272888183594 87.86446380615234 162.8181457519531 90.08011627197266 L 158.7011413574219 90.82117462158203 Z M 125.9867858886719 55.39472961425781 C 115.554084777832 55.39472961425781 105.4215240478516 54.71114349365234 95.87052154541016 53.36296463012695 C 86.57158660888672 52.05034637451172 78.19020080566406 50.1622314453125 70.95919799804688 47.75102615356445 C 63.46731948852539 45.2528190612793 57.50693511962891 42.28352355957031 53.24352645874023 38.92558288574219 C 50.84908294677734 37.0396728515625 48.97431945800781 35.00843811035156 47.67131805419922 32.8883171081543 C 46.16067123413086 30.43034744262695 45.39472961425781 27.84276008605957 45.39472961425781 25.19734764099121 C 45.39472961425781 22.55196571350098 46.16067123413086 19.96434783935547 47.67131805419922 17.50640678405762 C 48.97431945800781 15.38626003265381 50.84908294677734 13.35505390167236 53.24352645874023 11.46914196014404 C 57.50693511962891 8.111201286315918 63.46735000610352 5.14190673828125 70.95919799804688 2.643701076507568 C 78.19020080566406 0.2324951589107513 86.57158660888672 -1.655622482299805 95.87052154541016 -2.968240022659302 C 105.4215240478516 -4.31641674041748 115.554084777832 -5.000004768371582 125.9867858886719 -5.000004768371582 C 136.4194946289062 -5.000004768371582 146.5520477294922 -4.31641674041748 156.1030578613281 -2.968240022659302 C 165.4019927978516 -1.655622482299805 173.7833709716797 0.2324951589107513 181.014404296875 2.643701076507568 C 188.5062561035156 5.1418776512146 194.4666748046875 8.111201286315918 198.7300567626953 11.46914196014404 C 201.1245269775391 13.35505390167236 202.9992828369141 15.38626003265381 204.3022918701172 17.50640678405762 C 205.8129425048828 19.96434783935547 206.5788726806641 22.55196571350098 206.5788726806641 25.19734764099121 C 206.5788726806641 27.84276008605957 205.8129425048828 30.43034744262695 204.3022918701172 32.8883171081543 C 202.9992828369141 35.00843811035156 201.1245269775391 37.0396728515625 198.7300872802734 38.92558288574219 C 194.4666748046875 42.28352355957031 188.5062561035156 45.2528190612793 181.014404296875 47.75102615356445 C 173.7833709716797 50.1622314453125 165.4019927978516 52.05034637451172 156.1030578613281 53.36296463012695 C 146.5520477294922 54.71114349365234 136.4194946289062 55.39472961425781 125.9867858886719 55.39472961425781 Z" stroke="none"/>
                <path d="M 75.59207916259766 201.578857421875 C 117.3251876831055 201.578857421875 151.1841430664062 190.2794342041016 151.1841430664062 176.3815002441406 L 151.1841430664062 159.5701446533203 C 134.9239654541016 171.0270843505859 105.198974609375 176.3815002441406 75.59207916259766 176.3815002441406 C 45.98518753051758 176.3815002441406 16.26018714904785 171.0270843505859 7.768903742544353e-06 159.5701446533203 L 7.768903742544353e-06 176.3815002441406 C 7.768903742544353e-06 190.2794342041016 33.85897064208984 201.578857421875 75.59207916259766 201.578857421875 M 75.59207916259766 163.7828216552734 C 117.3251876831055 163.7828216552734 151.1841430664062 152.4833984375 151.1841430664062 138.5854644775391 L 151.1841430664062 118.2701187133789 C 134.9239654541016 131.6562194824219 105.1596145629883 138.5854644775391 75.59207916259766 138.5854644775391 C 46.02454376220703 138.5854644775391 16.26018714904785 131.6562194824219 7.768903742544353e-06 118.2701187133789 L 7.768903742544353e-06 138.5854644775391 C 7.768903742544353e-06 152.4833984375 33.85897064208984 163.7828216552734 75.59207916259766 163.7828216552734 M 75.59207916259766 125.9867935180664 C 117.3251876831055 125.9867935180664 151.1841430664062 111.8920059204102 151.1841430664062 94.4901123046875 C 151.1841430664062 77.08815002441406 117.3251876831055 62.99340057373047 75.59207916259766 62.99340057373047 C 33.85897064208984 62.99340057373047 7.768903742544353e-06 77.08815002441406 7.768903742544353e-06 94.4901123046875 C 7.768903742544353e-06 111.8920059204102 33.85897064208984 125.9867935180664 75.59207916259766 125.9867935180664 M 163.7828216552734 122.6008987426758 C 186.3423614501953 118.2307586669922 201.578857421875 110.1203308105469 201.578857421875 100.789436340332 L 201.578857421875 83.97808074951172 C 192.44482421875 90.43489837646484 179.0193634033203 94.84443664550781 163.7828216552734 97.56100463867188 L 163.7828216552734 122.6008987426758 M 161.9324035644531 85.15918731689453 C 185.554931640625 80.90715026855469 201.578857421875 72.56050872802734 201.578857421875 62.99340057373047 L 201.578857421875 46.18204498291016 C 187.6022186279297 56.06411361694336 163.5859680175781 61.37918472290039 138.3098602294922 62.63904190063477 C 149.9242858886719 68.26908111572266 158.4677581787109 75.82829284667969 161.9324035644531 85.15918731689453 M 125.9867935180664 50.39472198486328 C 167.7198944091797 50.39472198486328 201.578857421875 39.09529495239258 201.578857421875 25.19736480712891 C 201.578857421875 11.29943656921387 167.7198944091797 7.768903742544353e-06 125.9867935180664 7.768903742544353e-06 C 84.25364685058594 7.768903742544353e-06 50.39472198486328 11.29943656921387 50.39472198486328 25.19736480712891 C 50.39472198486328 39.09529495239258 84.25364685058594 50.39472198486328 125.9867935180664 50.39472198486328 M 75.59207916259766 211.578857421875 C 34.36840057373047 211.578857421875 -9.999992370605469 200.5644683837891 -9.999992370605469 176.3815002441406 L -9.999992370605469 159.5701446533203 C -9.999992370605469 156.1353607177734 -8.239392280578613 152.9635925292969 -5.377453804016113 151.1389312744141 C -8.344572067260742 147.4355163574219 -9.999992370605469 143.2555694580078 -9.999992370605469 138.5854644775391 L -9.999992370605469 118.2701187133789 C -9.999992370605469 114.6603088378906 -8.057241439819336 111.3527679443359 -4.955453395843506 109.5841445922852 C -8.19408130645752 105.1047134399414 -9.999992370605469 100.0703811645508 -9.999992370605469 94.4901123046875 C -9.999992370605469 68.175048828125 30.1764030456543 53.97934341430664 71.24729919433594 53.04292678833008 C 53.10923767089844 47.31411743164062 40.39472198486328 38.14198303222656 40.39472198486328 25.19736480712891 C 40.39472198486328 1.014400601387024 84.76311492919922 -9.999992370605469 125.9867935180664 -9.999992370605469 C 167.2104644775391 -9.999992370605469 211.578857421875 1.014400601387024 211.578857421875 25.19736480712891 C 211.578857421875 29.86746406555176 209.9234466552734 34.04740524291992 206.9563293457031 37.75081634521484 C 209.818115234375 39.57536697387695 211.578857421875 42.74706268310547 211.578857421875 46.18204498291016 L 211.578857421875 62.99340057373047 C 211.578857421875 67.54861450195312 210.0288391113281 71.7640380859375 207.0137023925781 75.58370208740234 C 209.8417205810547 77.41391754150391 211.578857421875 80.56607055664062 211.578857421875 83.97808074951172 L 211.578857421875 100.789436340332 C 211.578857421875 115.4525756835938 195.2799682617188 126.6852951049805 165.6846466064453 132.4183959960938 C 164.1732330322266 132.7111968994141 162.6353149414062 132.6478729248047 161.1841430664062 132.2573394775391 L 161.1841430664062 138.5854644775391 C 161.1841430664062 143.2555694580078 159.5287322998047 147.4355163574219 156.5616149902344 151.1389312744141 C 159.4235534667969 152.9635925292969 161.1841430664062 156.1353607177734 161.1841430664062 159.5701446533203 L 161.1841430664062 176.3815002441406 C 161.1841430664062 200.5644683837891 116.8157577514648 211.578857421875 75.59207916259766 211.578857421875 Z M 126.0884246826172 60.39469909667969 C 126.8734436035156 60.6549186706543 127.6475067138672 60.92110443115234 128.4145660400391 61.19485855102539 C 128.4413909912109 61.01156234741211 128.4734497070312 60.82799911499023 128.5107574462891 60.64468765258789 C 128.5287780761719 60.55617141723633 128.5479736328125 60.46791839599609 128.5682525634766 60.38034820556641 C 127.7382431030273 60.38959884643555 126.9163208007812 60.39434814453125 126.0884246826172 60.39469909667969 Z" stroke="none" fill="#5e9e03"/>
            </g>
        </g>
    </g>
</svg>
