<svg xmlns="http://www.w3.org/2000/svg" xmlns:xlink="http://www.w3.org/1999/xlink" width="204" height="343" viewBox="0 0 204 343">
    <defs>
        <filter id="Polígono_1" x="12.5" y="0" width="178" height="170" filterUnits="userSpaceOnUse">
            <feOffset dy="3" input="SourceAlpha"/>
            <feGaussianBlur stdDeviation="3" result="blur"/>
            <feFlood flood-opacity="0.161"/>
            <feComposite operator="in" in2="blur"/>
            <feComposite in="SourceGraphic"/>
        </filter>
    </defs>
    <g id="Grupo_1" data-name="Grupo 1" transform="translate(-104 -135)">
        <g id="Rectángulo_57" data-name="Rectángulo 57" transform="translate(120 269)" fill="#03799d" stroke="#fff" stroke-width="8">
            <path d="M50,0h79a50,50,0,0,1,50,50V209a0,0,0,0,1,0,0H0a0,0,0,0,1,0,0V50A50,50,0,0,1,50,0Z" stroke="none"/>
            <path d="M50,4h79a46,46,0,0,1,46,46V205a0,0,0,0,1,0,0H4a0,0,0,0,1,0,0V50A46,46,0,0,1,50,4Z" fill="none"/>
        </g>
        <rect id="Rectángulo_89" data-name="Rectángulo 89" width="15" height="15" rx="5" transform="translate(154 378)" fill="#c1e4ef"/>
        <rect id="Rectángulo_90" data-name="Rectángulo 90" width="82" height="15" rx="5" transform="translate(180 378)" fill="#c1e4ef"/>
        <ellipse id="Elipse_69" data-name="Elipse 69" cx="62.5" cy="79.5" rx="62.5" ry="79.5" transform="translate(146 179)" fill="#c1e4ef" stroke="#fff" stroke-width="8"/>
        <rect id="Rectángulo_86" data-name="Rectángulo 86" width="204" height="70" transform="translate(104 207)" fill="#88c4d6"/>
        <g transform="matrix(1, 0, 0, 1, 104, 135)" filter="url(#Polígono_1)">
            <g id="Polígono_1-2" data-name="Polígono 1" transform="translate(21.5 6)" fill="#c1e4ef">
                <path d="M 114.916862487793 148 L 45.08313751220703 148 C 41.68304443359375 148 38.4317512512207 146.9438781738281 35.68070602416992 144.9458160400391 C 32.92966079711914 142.9477386474609 30.91961288452148 140.1825866699219 29.86786270141602 136.9492492675781 L 8.302659034729004 70.65215301513672 C 7.249863624572754 67.41556549072266 7.249477386474609 63.99390411376953 8.301545143127441 60.75708770751953 C 9.35361385345459 57.52026748657227 11.36568164825439 54.75274658203125 14.12022686004639 52.75367736816406 L 70.60227203369141 11.76263236999512 C 73.35234069824219 9.766814231872559 76.60202026367188 8.711882591247559 80 8.711882591247559 C 83.39797973632812 8.711882591247559 86.64763641357422 9.766814231872559 89.397705078125 11.76263236999512 L 145.8797760009766 52.75365447998047 C 148.6343231201172 54.75272369384766 150.6463928222656 57.52026748657227 151.6984558105469 60.75708770751953 C 152.7505187988281 63.99392700195312 152.7501373291016 67.41558837890625 151.6973419189453 70.65215301513672 L 130.1321411132812 136.9492492675781 C 129.0803833007812 140.1825866699219 127.0703430175781 142.9477386474609 124.3192977905273 144.9458160400391 C 121.5682525634766 146.9438781738281 118.3169555664062 148 114.916862487793 148 Z" stroke="none"/>
                <path d="M 79.99996948242188 12.71185302734375 C 77.45149993896484 12.71185302734375 75.01425170898438 13.5030517578125 72.95169067382812 14.99993896484375 L 16.46966552734375 55.99097442626953 C 12.245361328125 59.05669403076172 10.491943359375 64.45133209228516 12.10647583007812 69.41486358642578 L 33.67166900634766 135.7119140625 C 35.28419494628906 140.6692810058594 39.87010955810547 144 45.08313751220703 144 L 114.916862487793 144 C 120.1298904418945 144 124.7157745361328 140.6692810058594 126.3283081054688 135.7119140625 L 147.8935241699219 69.41486358642578 C 149.508056640625 64.45133209228516 147.7546081542969 59.05666351318359 143.5303344726562 55.99094390869141 L 87.04827880859375 14.99996948242188 C 84.98569488525391 13.50308227539062 82.54844665527344 12.71185302734375 79.99996948242188 12.71185302734375 M 79.99998474121094 4.711868286132812 C 84.12202453613281 4.711868286132812 88.24407196044922 5.9830322265625 91.74713897705078 8.52532958984375 L 148.2291870117188 49.51633453369141 C 155.2467193603516 54.60922241210938 158.1832733154297 63.64389038085938 155.5011596679688 71.88947296142578 L 133.9359436035156 138.1865539550781 C 131.2565307617188 146.4238586425781 123.578971862793 152 114.916862487793 152 L 45.08313751220703 152 C 36.42102813720703 152 28.74346923828125 146.4238586425781 26.06402587890625 138.1865539550781 L 4.49884033203125 71.88947296142578 C 1.816696166992188 63.64389038085938 4.753250122070312 54.60924530029297 11.77081298828125 49.516357421875 L 68.25283050537109 8.52532958984375 C 71.75590515136719 5.9830322265625 75.87794494628906 4.711868286132812 79.99998474121094 4.711868286132812 Z" stroke="none" fill="#fff"/>
            </g>
        </g>
        <g id="Elipse_9" data-name="Elipse 9" transform="translate(186 253)" fill="none" stroke="#03799d" stroke-width="1">
            <ellipse cx="19" cy="9.5" rx="19" ry="9.5" stroke="none"/>
            <ellipse cx="19" cy="9.5" rx="18.5" ry="9" fill="none"/>
        </g>
        <ellipse id="Elipse_10" data-name="Elipse 10" cx="22" cy="9.5" rx="22" ry="9.5" transform="translate(183 251)" fill="#c1e4ef"/>
        <g id="Elipse_70" data-name="Elipse 70" transform="translate(158 222)" fill="none" stroke="#03799d" stroke-width="1">
            <ellipse cx="19" cy="9.5" rx="19" ry="9.5" stroke="none"/>
            <ellipse cx="19" cy="9.5" rx="18.5" ry="9" fill="none"/>
        </g>
        <ellipse id="Elipse_71" data-name="Elipse 71" cx="22" cy="9.5" rx="22" ry="9.5" transform="translate(155 223)" fill="#c1e4ef"/>
        <g id="Elipse_72" data-name="Elipse 72" transform="translate(158 222)" fill="none" stroke="#03799d" stroke-width="5">
            <ellipse cx="19" cy="9.5" rx="19" ry="9.5" stroke="none"/>
            <ellipse cx="19" cy="9.5" rx="16.5" ry="7" fill="none"/>
        </g>
        <ellipse id="Elipse_73" data-name="Elipse 73" cx="22" cy="9.5" rx="22" ry="9.5" transform="translate(155 224)" fill="#c1e4ef"/>
        <g id="Elipse_74" data-name="Elipse 74" transform="translate(214 222)" fill="none" stroke="#03799d" stroke-width="2">
            <ellipse cx="19" cy="9.5" rx="19" ry="9.5" stroke="none"/>
            <ellipse cx="19" cy="9.5" rx="18" ry="8.5" fill="none"/>
        </g>
        <ellipse id="Elipse_75" data-name="Elipse 75" cx="22" cy="9.5" rx="22" ry="9.5" transform="translate(211 224)" fill="#c1e4ef"/>
        <rect id="Rectángulo_87" data-name="Rectángulo 87" width="15" height="15" rx="5" transform="translate(154 354)" fill="#c1e4ef"/>
        <rect id="Rectángulo_88" data-name="Rectángulo 88" width="82" height="15" rx="5" transform="translate(180 354)" fill="#c1e4ef"/>
        <g id="Icon_awesome-check" data-name="Icon awesome-check" transform="translate(155.088 350.482)" fill="#03799d">
            <path d="M 6.004494190216064 17.01752090454102 C 5.657074451446533 17.01752090454102 5.330464363098145 16.88222122192383 5.084814071655273 16.63655090332031 L -0.1190556958317757 11.4326810836792 C -0.6261357069015503 10.9256010055542 -0.6261457204818726 10.10049057006836 -0.1190756931900978 9.59337043762207 L 1.013124346733093 8.461140632629395 C 1.258764266967773 8.215480804443359 1.585374355316162 8.080190658569336 1.932794332504272 8.080190658569336 C 2.280214309692383 8.080190658569336 2.606824398040771 8.215480804443359 2.852474212646484 8.461151123046875 L 6.00449800491333 11.61313819885254 L 13.15951442718506 4.458150863647461 C 13.40515422821045 4.212501049041748 13.73176383972168 4.077220916748047 14.07917404174805 4.077220916748047 C 14.42658424377441 4.077220916748047 14.75319385528564 4.212501049041748 14.99883460998535 4.458150863647461 L 16.13103485107422 5.590371131896973 C 16.63810348510742 6.097450733184814 16.63811492919922 6.922560691833496 16.13104438781738 7.429680824279785 L 6.924154281616211 16.6365909576416 C 6.678484439849854 16.88224029541016 6.351884365081787 17.01752090454102 6.004494190216064 17.01752090454102 Z" stroke="none"/>
            <path d="M 6.00449800491333 16.51751708984375 C 6.20936393737793 16.51751708984375 6.414288520812988 16.4393424987793 6.57060432434082 16.28304100036621 L 15.77747440338135 7.076140880584717 C 16.09011459350586 6.763471126556396 16.09011459350586 6.256560802459717 15.77747440338135 5.943921089172363 L 14.64528465270996 4.811700820922852 C 14.33264350891113 4.49906063079834 13.82570362091064 4.49906063079834 13.51306438446045 4.811700820922852 L 6.004494190216064 12.32024097442627 L 2.498904228210449 8.814690589904785 C 2.186264514923096 8.502020835876465 1.679324269294739 8.502020835876465 1.366684317588806 8.814690589904785 L 0.2344943135976791 9.946910858154297 C -0.07814569026231766 10.25958061218262 -0.07814569026231766 10.7664909362793 0.2344943135976791 11.07913112640381 L 5.438384532928467 16.28301048278809 C 5.594723224639893 16.43936538696289 5.799581527709961 16.51751708984375 6.00449800491333 16.51751708984375 M 6.004494190216064 17.51752090454102 C 5.523524284362793 17.51752090454102 5.071344375610352 17.3302116394043 4.731254100799561 16.99009132385254 L -0.4726156890392303 11.78624057769775 C -1.174635648727417 11.08422088623047 -1.174645662307739 9.941910743713379 -0.4726456999778748 9.239840507507324 L 0.6595643162727356 8.107590675354004 C 0.9996442794799805 7.767500877380371 1.451824307441711 7.580191135406494 1.932794332504272 7.580191135406494 C 2.413764238357544 7.580191135406494 2.865944385528564 7.767500877380371 3.206034421920776 8.107610702514648 L 6.004486560821533 10.90603160858154 L 12.80595397949219 4.104590892791748 C 13.14604473114014 3.764510869979858 13.5982141494751 3.577220916748047 14.07917404174805 3.577220916748047 C 14.560133934021 3.577220916748047 15.01230430603027 3.764510869979858 15.35239410400391 4.104590892791748 L 16.48459434509277 5.236820697784424 C 17.18660354614258 5.938830852508545 17.18661499023438 7.081140995025635 16.4846134185791 7.783210754394531 L 7.277714252471924 16.99015045166016 C 6.93757438659668 17.33024024963379 6.485414505004883 17.51752090454102 6.004494190216064 17.51752090454102 Z" stroke="none" fill="#88c4d6"/>
        </g>
    </g>
</svg>
