<svg xmlns="http://www.w3.org/2000/svg" xmlns:xlink="http://www.w3.org/1999/xlink" width="204" height="343" viewBox="0 0 204 343">
    <defs>
        <filter id="Polígono_1" x="5" y="0" width="193" height="170" filterUnits="userSpaceOnUse">
            <feOffset dy="3" input="SourceAlpha"/>
            <feGaussianBlur stdDeviation="3" result="blur"/>
            <feFlood flood-opacity="0.161"/>
            <feComposite operator="in" in2="blur"/>
            <feComposite in="SourceGraphic"/>
        </filter>
    </defs>
    <g id="Rectángulo_57" data-name="Rectángulo 57" transform="translate(16 134)" fill="#03799d" stroke="#fff" stroke-width="8">
        <path d="M50,0h79a50,50,0,0,1,50,50V209a0,0,0,0,1,0,0H0a0,0,0,0,1,0,0V50A50,50,0,0,1,50,0Z" stroke="none"/>
        <path d="M50,4h79a46,46,0,0,1,46,46V205a0,0,0,0,1,0,0H4a0,0,0,0,1,0,0V50A46,46,0,0,1,50,4Z" fill="none"/>
    </g>
    <rect id="Rectángulo_89" data-name="Rectángulo 89" width="15" height="15" rx="5" transform="translate(50 243)" fill="#c1e4ef"/>
    <rect id="Rectángulo_90" data-name="Rectángulo 90" width="82" height="15" rx="5" transform="translate(76 243)" fill="#c1e4ef"/>
    <ellipse id="Elipse_69" data-name="Elipse 69" cx="62.5" cy="79.5" rx="62.5" ry="79.5" transform="translate(42 44)" fill="#c1e4ef" stroke="#fff" stroke-width="8"/>
    <rect id="Rectángulo_86" data-name="Rectángulo 86" width="204" height="70" transform="translate(0 72)" fill="#88c4d6"/>
    <g transform="matrix(1, 0, 0, 1, 0, 0)" filter="url(#Polígono_1)">
        <g id="Polígono_1-2" data-name="Polígono 1" transform="translate(14 6)" fill="#c1e4ef">
            <path d="M 119.6860504150391 148 L 55.31394958496094 148 C 52.50567626953125 148 49.73627471923828 147.2570037841797 47.30514907836914 145.851318359375 C 44.8740234375 144.4456481933594 42.84842681884766 142.4161987304688 41.4473991394043 139.9823760986328 L 9.210575103759766 83.98237609863281 C 7.814849853515625 81.55782318115234 7.077125072479248 78.79757690429688 7.077125072479248 76 C 7.077125072479248 73.20242309570312 7.814849853515625 70.44214630126953 9.210550308227539 68.01760101318359 L 41.4473991394043 12.01760005950928 C 42.84842681884766 9.583800315856934 44.8740234375 7.554349899291992 47.30514907836914 6.148674964904785 C 49.73630142211914 4.743000030517578 52.50569915771484 4 55.31394958496094 4 L 119.6860504150391 4 C 122.4943237304688 4 125.2637252807617 4.743000030517578 127.6948471069336 6.148674964904785 C 130.1259765625 7.554349899291992 132.1515808105469 9.583800315856934 133.5526275634766 12.01760005950928 L 165.7894439697266 68.01760101318359 C 167.1851806640625 70.44214630126953 167.9228973388672 73.20242309570312 167.9228973388672 76 C 167.9228973388672 78.79757690429688 167.1851806640625 81.55785369873047 165.7894439697266 83.98239898681641 L 133.5525970458984 139.9823760986328 C 132.1515808105469 142.4161987304688 130.1259765625 144.4456481933594 127.6948471069336 145.851318359375 C 125.2637252807617 147.2570037841797 122.4943237304688 148 119.6860504150391 148 Z" stroke="none"/>
            <path d="M 55.31394195556641 8 C 51.03420257568359 8 47.04920959472656 10.30412292480469 44.91403198242188 14.01319885253906 L 12.67720031738281 70.01320648193359 C 10.55140686035156 73.70600128173828 10.55140686035156 78.29399871826172 12.67720031738281 81.98676300048828 L 44.91403198242188 137.9868011474609 C 47.04917907714844 141.6958770751953 51.03420257568359 144 55.31394195556641 144 L 119.6860580444336 144 C 123.9657897949219 144 127.9507904052734 141.6958770751953 130.0859680175781 137.9867706298828 L 162.3227996826172 81.98679351806641 C 164.4485931396484 78.29399871826172 164.4485931396484 73.70600128173828 162.3228302001953 70.01320648193359 L 130.0859680175781 14.01319885253906 C 127.9507904052734 10.30412292480469 123.9657897949219 8 119.6860580444336 8 L 55.31394195556641 8 M 55.31394195556641 0 L 119.6860580444336 0 C 126.8404388427734 0 133.4499206542969 3.82159423828125 137.0192260742188 10.02200317382812 L 169.2560882568359 66.02200317382812 C 172.8118286132812 72.19882202148438 172.8118286132812 79.80117797851562 169.2560882568359 85.97799682617188 L 137.0192260742188 141.9779663085938 C 133.4499359130859 148.1784057617188 126.8404388427734 152 119.6860580444336 152 L 55.31394195556641 152 C 48.15953063964844 152 41.55006408691406 148.1784057617188 37.98072814941406 141.9779663085938 L 5.743911743164062 85.97797393798828 C 2.18817138671875 79.80117797851562 2.18817138671875 72.19882202148438 5.743911743164062 66.02200317382812 L 37.98075866699219 10.02200317382812 C 41.55009460449219 3.82159423828125 48.15956115722656 0 55.31394195556641 0 Z" stroke="none" fill="#fff"/>
        </g>
    </g>
    <g id="Elipse_9" data-name="Elipse 9" transform="translate(82 103)" fill="none" stroke="#03799d" stroke-width="1">
        <ellipse cx="19" cy="9.5" rx="19" ry="9.5" stroke="none"/>
        <ellipse cx="19" cy="9.5" rx="18.5" ry="9" fill="none"/>
    </g>
    <ellipse id="Elipse_10" data-name="Elipse 10" cx="22" cy="9.5" rx="22" ry="9.5" transform="translate(79 101)" fill="#c1e4ef"/>
    <g id="Elipse_70" data-name="Elipse 70" transform="translate(54 72)" fill="none" stroke="#03799d" stroke-width="1">
        <ellipse cx="19" cy="9.5" rx="19" ry="9.5" stroke="none"/>
        <ellipse cx="19" cy="9.5" rx="18.5" ry="9" fill="none"/>
    </g>
    <ellipse id="Elipse_71" data-name="Elipse 71" cx="22" cy="9.5" rx="22" ry="9.5" transform="translate(51 73)" fill="#c1e4ef"/>
    <g id="Elipse_72" data-name="Elipse 72" transform="translate(54 72)" fill="none" stroke="#03799d" stroke-width="5">
        <ellipse cx="19" cy="9.5" rx="19" ry="9.5" stroke="none"/>
        <ellipse cx="19" cy="9.5" rx="16.5" ry="7" fill="none"/>
    </g>
    <ellipse id="Elipse_73" data-name="Elipse 73" cx="22" cy="9.5" rx="22" ry="9.5" transform="translate(51 74)" fill="#c1e4ef"/>
    <g id="Elipse_74" data-name="Elipse 74" transform="translate(110 72)" fill="none" stroke="#03799d" stroke-width="2">
        <ellipse cx="19" cy="9.5" rx="19" ry="9.5" stroke="none"/>
        <ellipse cx="19" cy="9.5" rx="18" ry="8.5" fill="none"/>
    </g>
    <ellipse id="Elipse_75" data-name="Elipse 75" cx="22" cy="9.5" rx="22" ry="9.5" transform="translate(107 74)" fill="#c1e4ef"/>
    <rect id="Rectángulo_87" data-name="Rectángulo 87" width="15" height="15" rx="5" transform="translate(50 219)" fill="#c1e4ef"/>
    <rect id="Rectángulo_88" data-name="Rectángulo 88" width="82" height="15" rx="5" transform="translate(76 219)" fill="#c1e4ef"/>
    <g id="Icon_awesome-check" data-name="Icon awesome-check" transform="translate(51.088 215.482)" fill="#03799d">
        <path d="M 6.004494190216064 17.01752090454102 C 5.657074451446533 17.01752090454102 5.330464363098145 16.88222122192383 5.084814071655273 16.63655090332031 L -0.1190556958317757 11.4326810836792 C -0.6261357069015503 10.9256010055542 -0.6261457204818726 10.10049057006836 -0.1190756931900978 9.59337043762207 L 1.013124346733093 8.461140632629395 C 1.258764266967773 8.215480804443359 1.585374355316162 8.080190658569336 1.932794332504272 8.080190658569336 C 2.280214309692383 8.080190658569336 2.606824398040771 8.215480804443359 2.852474212646484 8.461151123046875 L 6.00449800491333 11.61313819885254 L 13.15951442718506 4.458150863647461 C 13.40515422821045 4.212501049041748 13.73176383972168 4.077220916748047 14.07917404174805 4.077220916748047 C 14.42658424377441 4.077220916748047 14.75319385528564 4.212501049041748 14.99883460998535 4.458150863647461 L 16.13103485107422 5.590371131896973 C 16.63810348510742 6.097450733184814 16.63811492919922 6.922560691833496 16.13104438781738 7.429680824279785 L 6.924154281616211 16.6365909576416 C 6.678484439849854 16.88224029541016 6.351884365081787 17.01752090454102 6.004494190216064 17.01752090454102 Z" stroke="none"/>
        <path d="M 6.00449800491333 16.51751708984375 C 6.20936393737793 16.51751708984375 6.414288520812988 16.4393424987793 6.57060432434082 16.28304100036621 L 15.77747440338135 7.076140880584717 C 16.09011459350586 6.763471126556396 16.09011459350586 6.256560802459717 15.77747440338135 5.943921089172363 L 14.64528465270996 4.811700820922852 C 14.33264350891113 4.49906063079834 13.82570362091064 4.49906063079834 13.51306438446045 4.811700820922852 L 6.004494190216064 12.32024097442627 L 2.498904228210449 8.814690589904785 C 2.186264514923096 8.502020835876465 1.679324269294739 8.502020835876465 1.366684317588806 8.814690589904785 L 0.2344943135976791 9.946910858154297 C -0.07814569026231766 10.25958061218262 -0.07814569026231766 10.7664909362793 0.2344943135976791 11.07913112640381 L 5.438384532928467 16.28301048278809 C 5.594723224639893 16.43936538696289 5.799581527709961 16.51751708984375 6.00449800491333 16.51751708984375 M 6.004494190216064 17.51752090454102 C 5.523524284362793 17.51752090454102 5.071344375610352 17.3302116394043 4.731254100799561 16.99009132385254 L -0.4726156890392303 11.78624057769775 C -1.174635648727417 11.08422088623047 -1.174645662307739 9.941910743713379 -0.4726456999778748 9.239840507507324 L 0.6595643162727356 8.107590675354004 C 0.9996442794799805 7.767500877380371 1.451824307441711 7.580191135406494 1.932794332504272 7.580191135406494 C 2.413764238357544 7.580191135406494 2.865944385528564 7.767500877380371 3.206034421920776 8.107610702514648 L 6.004486560821533 10.90603160858154 L 12.80595397949219 4.104590892791748 C 13.14604473114014 3.764510869979858 13.5982141494751 3.577220916748047 14.07917404174805 3.577220916748047 C 14.560133934021 3.577220916748047 15.01230430603027 3.764510869979858 15.35239410400391 4.104590892791748 L 16.48459434509277 5.236820697784424 C 17.18660354614258 5.938830852508545 17.18661499023438 7.081140995025635 16.4846134185791 7.783210754394531 L 7.277714252471924 16.99015045166016 C 6.93757438659668 17.33024024963379 6.485414505004883 17.51752090454102 6.004494190216064 17.51752090454102 Z" stroke="none" fill="#88c4d6"/>
    </g>
</svg>
