<svg xmlns="http://www.w3.org/2000/svg" xmlns:xlink="http://www.w3.org/1999/xlink" width="204" height="343" viewBox="0 0 204 343">
    <defs>
        <filter id="Polígono_1" x="14.5" y="0" width="174" height="170" filterUnits="userSpaceOnUse">
            <feOffset dy="3" input="SourceAlpha"/>
            <feGaussianBlur stdDeviation="3" result="blur"/>
            <feFlood flood-opacity="0.161"/>
            <feComposite operator="in" in2="blur"/>
            <feComposite in="SourceGraphic"/>
        </filter>
    </defs>
    <g id="Rectángulo_57" data-name="Rectángulo 57" transform="translate(16 134)" fill="#03799d" stroke="#fff" stroke-width="8">
        <path d="M50,0h79a50,50,0,0,1,50,50V209a0,0,0,0,1,0,0H0a0,0,0,0,1,0,0V50A50,50,0,0,1,50,0Z" stroke="none"/>
        <path d="M50,4h79a46,46,0,0,1,46,46V205a0,0,0,0,1,0,0H4a0,0,0,0,1,0,0V50A46,46,0,0,1,50,4Z" fill="none"/>
    </g>
    <rect id="Rectángulo_89" data-name="Rectángulo 89" width="15" height="15" rx="5" transform="translate(50 243)" fill="#c1e4ef"/>
    <rect id="Rectángulo_90" data-name="Rectángulo 90" width="82" height="15" rx="5" transform="translate(76 243)" fill="#c1e4ef"/>
    <ellipse id="Elipse_69" data-name="Elipse 69" cx="62.5" cy="79.5" rx="62.5" ry="79.5" transform="translate(42 44)" fill="#c1e4ef" stroke="#fff" stroke-width="8"/>
    <rect id="Rectángulo_86" data-name="Rectángulo 86" width="204" height="70" transform="translate(0 72)" fill="#88c4d6"/>
    <g transform="matrix(1, 0, 0, 1, 0, 0)" filter="url(#Polígono_1)">
        <g id="Polígono_1-2" data-name="Polígono 1" transform="translate(23.5 6)" fill="#c1e4ef">
            <path d="M 52.91472625732422 148.0000152587891 C 50.52643203735352 148.0000152587891 48.12659072875977 147.4524383544922 45.97463607788086 146.4164886474609 C 43.82270431518555 145.3805541992188 41.89788818359375 143.8462219238281 40.40827178955078 141.9794006347656 L 9.137067794799805 102.7894439697266 C 7.646249771118164 100.9211044311523 6.577000141143799 98.70185852050781 6.044954776763916 96.37160491943359 C 5.512886524200439 94.04137420654297 5.512954711914062 91.57797241210938 6.045113563537598 89.24776458740234 L 17.20375061035156 40.38701248168945 C 17.73572731018066 38.0576286315918 18.80454635620117 35.83910369873047 20.29461288452148 33.97126388549805 C 21.78470420837402 32.10344696044922 23.71031761169434 30.56844520568848 25.86329460144043 29.53224182128906 L 71.06113433837891 7.778809547424316 C 73.21275329589844 6.743241310119629 75.61215972900391 6.195877552032471 78 6.195877552032471 C 80.3878173828125 6.195877552032471 82.78722381591797 6.743241310119629 84.93881988525391 7.778809547424316 L 130.1366577148438 29.53221893310547 C 132.2896423339844 30.56844520568848 134.2152709960938 32.10342407226562 135.7053375244141 33.97124099731445 C 137.1954345703125 35.83905792236328 138.2642211914062 38.0576057434082 138.7962341308594 40.38701248168945 L 149.9548645019531 89.24771881103516 C 150.4870300292969 91.57797241210938 150.4870910644531 94.04135131835938 149.9550476074219 96.37160491943359 C 149.4229736328125 98.70185852050781 148.3537445068359 100.9211044311523 146.8629608154297 102.7894439697266 L 115.5917510986328 141.9794006347656 C 114.1022491455078 143.8460845947266 112.1774063110352 145.38037109375 110.0253372192383 146.4163818359375 C 107.8732757568359 147.4523773193359 105.4734573364258 147.9999847412109 103.0853424072266 147.9999847412109 L 99.08534240722656 147.9999847412109 L 52.91472625732422 148.0000152587891 Z" stroke="none"/>
            <path d="M 77.99996948242188 10.19589233398438 C 76.20908355712891 10.19589233398438 74.40953063964844 10.60643005371094 72.79582977294922 11.383056640625 L 27.59800720214844 33.13653564453125 C 24.28836059570312 34.72942352294922 21.921142578125 37.69675445556641 21.10333251953125 41.277587890625 L 9.944717407226562 90.13833618164062 C 9.126617431640625 93.72058868408203 9.971832275390625 97.42239379882812 12.263671875 100.2945861816406 L 43.53485870361328 139.4845275878906 C 45.82466888427734 142.3541717529297 49.24349975585938 144 52.91471862792969 144 L 103.0853576660156 143.9999847412109 C 106.7565536499023 143.9999847412109 110.1753387451172 142.3541717529297 112.4651336669922 139.4845275878906 L 143.7362976074219 100.2945861816406 C 146.0281372070312 97.42239379882812 146.8733673095703 93.72058868408203 146.0552520751953 90.13831329345703 L 134.8966064453125 41.27756500244141 C 134.0788269042969 37.69673156738281 131.7116088867188 34.72942352294922 128.4019470214844 33.13650512695312 L 83.20410919189453 11.383056640625 C 81.59044647216797 10.60643005371094 79.79086303710938 10.19589233398438 77.99996948242188 10.19589233398438 M 77.99998474121094 2.195892333984375 C 80.96640014648438 2.195892333984375 83.93282318115234 2.855438232421875 86.67355346679688 4.174530029296875 L 131.8713684082031 25.92794799804688 C 137.3563537597656 28.56784057617188 141.3405303955078 33.56200408935547 142.69580078125 39.49642181396484 L 153.8544464111328 88.35714721679688 C 155.2102203369141 94.29367065429688 153.7875823974609 100.5244750976562 149.9895629882812 105.2842864990234 L 118.7183609008789 144.4742279052734 C 114.9233856201172 149.2301940917969 109.1935806274414 151.9991455078125 103.0852813720703 151.9999847412109 L 52.91471862792969 152 C 46.83025360107422 152 41.07661437988281 149.2301940917969 37.28163909912109 144.4742279052734 L 6.01043701171875 105.2842864990234 C 2.212417602539062 100.5245056152344 0.7897491455078125 94.293701171875 2.145523071289062 88.35717010498047 L 13.30413818359375 39.49645233154297 C 14.65943908691406 33.56203460693359 18.64358520507812 28.56787109375 24.12858581542969 25.927978515625 L 69.326416015625 4.174530029296875 C 72.06715393066406 2.855438232421875 75.0335693359375 2.195892333984375 77.99998474121094 2.195892333984375 Z" stroke="none" fill="#fff"/>
        </g>
    </g>
    <g id="Elipse_9" data-name="Elipse 9" transform="translate(82 103)" fill="none" stroke="#03799d" stroke-width="1">
        <ellipse cx="19" cy="9.5" rx="19" ry="9.5" stroke="none"/>
        <ellipse cx="19" cy="9.5" rx="18.5" ry="9" fill="none"/>
    </g>
    <ellipse id="Elipse_10" data-name="Elipse 10" cx="22" cy="9.5" rx="22" ry="9.5" transform="translate(79 101)" fill="#c1e4ef"/>
    <g id="Elipse_70" data-name="Elipse 70" transform="translate(54 72)" fill="none" stroke="#03799d" stroke-width="1">
        <ellipse cx="19" cy="9.5" rx="19" ry="9.5" stroke="none"/>
        <ellipse cx="19" cy="9.5" rx="18.5" ry="9" fill="none"/>
    </g>
    <ellipse id="Elipse_71" data-name="Elipse 71" cx="22" cy="9.5" rx="22" ry="9.5" transform="translate(51 73)" fill="#c1e4ef"/>
    <g id="Elipse_72" data-name="Elipse 72" transform="translate(54 72)" fill="none" stroke="#03799d" stroke-width="5">
        <ellipse cx="19" cy="9.5" rx="19" ry="9.5" stroke="none"/>
        <ellipse cx="19" cy="9.5" rx="16.5" ry="7" fill="none"/>
    </g>
    <ellipse id="Elipse_73" data-name="Elipse 73" cx="22" cy="9.5" rx="22" ry="9.5" transform="translate(51 74)" fill="#c1e4ef"/>
    <g id="Elipse_74" data-name="Elipse 74" transform="translate(110 72)" fill="none" stroke="#03799d" stroke-width="2">
        <ellipse cx="19" cy="9.5" rx="19" ry="9.5" stroke="none"/>
        <ellipse cx="19" cy="9.5" rx="18" ry="8.5" fill="none"/>
    </g>
    <ellipse id="Elipse_75" data-name="Elipse 75" cx="22" cy="9.5" rx="22" ry="9.5" transform="translate(107 74)" fill="#c1e4ef"/>
    <rect id="Rectángulo_87" data-name="Rectángulo 87" width="15" height="15" rx="5" transform="translate(50 219)" fill="#c1e4ef"/>
    <rect id="Rectángulo_88" data-name="Rectángulo 88" width="82" height="15" rx="5" transform="translate(76 219)" fill="#c1e4ef"/>
    <g id="Icon_awesome-check" data-name="Icon awesome-check" transform="translate(51.088 215.482)" fill="#03799d">
        <path d="M 6.004494190216064 17.01752090454102 C 5.657074451446533 17.01752090454102 5.330464363098145 16.88222122192383 5.084814071655273 16.63655090332031 L -0.1190556958317757 11.4326810836792 C -0.6261357069015503 10.9256010055542 -0.6261457204818726 10.10049057006836 -0.1190756931900978 9.59337043762207 L 1.013124346733093 8.461140632629395 C 1.258764266967773 8.215480804443359 1.585374355316162 8.080190658569336 1.932794332504272 8.080190658569336 C 2.280214309692383 8.080190658569336 2.606824398040771 8.215480804443359 2.852474212646484 8.461151123046875 L 6.00449800491333 11.61313819885254 L 13.15951442718506 4.458150863647461 C 13.40515422821045 4.212501049041748 13.73176383972168 4.077220916748047 14.07917404174805 4.077220916748047 C 14.42658424377441 4.077220916748047 14.75319385528564 4.212501049041748 14.99883460998535 4.458150863647461 L 16.13103485107422 5.590371131896973 C 16.63810348510742 6.097450733184814 16.63811492919922 6.922560691833496 16.13104438781738 7.429680824279785 L 6.924154281616211 16.6365909576416 C 6.678484439849854 16.88224029541016 6.351884365081787 17.01752090454102 6.004494190216064 17.01752090454102 Z" stroke="none"/>
        <path d="M 6.00449800491333 16.51751708984375 C 6.20936393737793 16.51751708984375 6.414288520812988 16.4393424987793 6.57060432434082 16.28304100036621 L 15.77747440338135 7.076140880584717 C 16.09011459350586 6.763471126556396 16.09011459350586 6.256560802459717 15.77747440338135 5.943921089172363 L 14.64528465270996 4.811700820922852 C 14.33264350891113 4.49906063079834 13.82570362091064 4.49906063079834 13.51306438446045 4.811700820922852 L 6.004494190216064 12.32024097442627 L 2.498904228210449 8.814690589904785 C 2.186264514923096 8.502020835876465 1.679324269294739 8.502020835876465 1.366684317588806 8.814690589904785 L 0.2344943135976791 9.946910858154297 C -0.07814569026231766 10.25958061218262 -0.07814569026231766 10.7664909362793 0.2344943135976791 11.07913112640381 L 5.438384532928467 16.28301048278809 C 5.594723224639893 16.43936538696289 5.799581527709961 16.51751708984375 6.00449800491333 16.51751708984375 M 6.004494190216064 17.51752090454102 C 5.523524284362793 17.51752090454102 5.071344375610352 17.3302116394043 4.731254100799561 16.99009132385254 L -0.4726156890392303 11.78624057769775 C -1.174635648727417 11.08422088623047 -1.174645662307739 9.941910743713379 -0.4726456999778748 9.239840507507324 L 0.6595643162727356 8.107590675354004 C 0.9996442794799805 7.767500877380371 1.451824307441711 7.580191135406494 1.932794332504272 7.580191135406494 C 2.413764238357544 7.580191135406494 2.865944385528564 7.767500877380371 3.206034421920776 8.107610702514648 L 6.004486560821533 10.90603160858154 L 12.80595397949219 4.104590892791748 C 13.14604473114014 3.764510869979858 13.5982141494751 3.577220916748047 14.07917404174805 3.577220916748047 C 14.560133934021 3.577220916748047 15.01230430603027 3.764510869979858 15.35239410400391 4.104590892791748 L 16.48459434509277 5.236820697784424 C 17.18660354614258 5.938830852508545 17.18661499023438 7.081140995025635 16.4846134185791 7.783210754394531 L 7.277714252471924 16.99015045166016 C 6.93757438659668 17.33024024963379 6.485414505004883 17.51752090454102 6.004494190216064 17.51752090454102 Z" stroke="none" fill="#88c4d6"/>
    </g>
</svg>
