<svg xmlns="http://www.w3.org/2000/svg" xmlns:xlink="http://www.w3.org/1999/xlink" width="394" height="402" viewBox="0 0 394 402">
    <defs>
        <filter id="Polígono_2" x="0" y="133" width="394" height="269" filterUnits="userSpaceOnUse">
            <feOffset dy="3" input="SourceAlpha"/>
            <feGaussianBlur stdDeviation="3" result="blur"/>
            <feFlood flood-opacity="0.161"/>
            <feComposite operator="in" in2="blur"/>
            <feComposite in="SourceGraphic"/>
        </filter>
        <filter id="Polígono_1" x="107.5" y="0" width="178" height="170" filterUnits="userSpaceOnUse">
            <feOffset dy="3" input="SourceAlpha"/>
            <feGaussianBlur stdDeviation="3" result="blur-2"/>
            <feFlood flood-opacity="0.161"/>
            <feComposite operator="in" in2="blur-2"/>
            <feComposite in="SourceGraphic"/>
        </filter>
    </defs>
    <g transform="matrix(1, 0, 0, 1, 0, 0)" filter="url(#Polígono_2)">
        <g id="Polígono_2-2" data-name="Polígono 2" transform="translate(9 139)" fill="#c1e4ef">
            <path d="M 368.00634765625 247 L 7.993639945983887 247 L 188 6.672359943389893 L 368.00634765625 247 Z" stroke="none"/>
            <path d="M 188 13.34471130371094 L 15.98727416992188 243 L 360.0127258300781 243 L 188 13.34471130371094 M 188 0 L 376 251 L 0 251 L 188 0 Z" stroke="none" fill="#fff"/>
        </g>
    </g>
    <g transform="matrix(1, 0, 0, 1, 0, 0)" filter="url(#Polígono_1)">
        <g id="Polígono_1-2" data-name="Polígono 1" transform="translate(116.5 6)" fill="#c1e4ef">
            <path d="M 114.916862487793 148 L 45.08313751220703 148 C 41.68304443359375 148 38.4317512512207 146.9438781738281 35.68070602416992 144.9458160400391 C 32.92966079711914 142.9477386474609 30.91961288452148 140.1825866699219 29.86786270141602 136.9492492675781 L 8.302659034729004 70.65215301513672 C 7.249863624572754 67.41556549072266 7.249477386474609 63.99390411376953 8.301545143127441 60.75708770751953 C 9.35361385345459 57.52026748657227 11.36568164825439 54.75274658203125 14.12022686004639 52.75367736816406 L 70.60227203369141 11.76263236999512 C 73.35234069824219 9.766814231872559 76.60202026367188 8.711882591247559 80 8.711882591247559 C 83.39797973632812 8.711882591247559 86.64763641357422 9.766814231872559 89.397705078125 11.76263236999512 L 145.8797760009766 52.75365447998047 C 148.6343231201172 54.75272369384766 150.6463928222656 57.52026748657227 151.6984558105469 60.75708770751953 C 152.7505187988281 63.99392700195312 152.7501373291016 67.41558837890625 151.6973419189453 70.65215301513672 L 130.1321411132812 136.9492492675781 C 129.0803833007812 140.1825866699219 127.0703430175781 142.9477386474609 124.3192977905273 144.9458160400391 C 121.5682525634766 146.9438781738281 118.3169555664062 148 114.916862487793 148 Z" stroke="none"/>
            <path d="M 79.99996948242188 12.71185302734375 C 77.45149993896484 12.71185302734375 75.01425170898438 13.5030517578125 72.95169067382812 14.99993896484375 L 16.46966552734375 55.99097442626953 C 12.245361328125 59.05669403076172 10.491943359375 64.45133209228516 12.10647583007812 69.41486358642578 L 33.67166900634766 135.7119140625 C 35.28419494628906 140.6692810058594 39.87010955810547 144 45.08313751220703 144 L 114.916862487793 144 C 120.1298904418945 144 124.7157745361328 140.6692810058594 126.3283081054688 135.7119140625 L 147.8935241699219 69.41486358642578 C 149.508056640625 64.45133209228516 147.7546081542969 59.05666351318359 143.5303344726562 55.99094390869141 L 87.04827880859375 14.99996948242188 C 84.98569488525391 13.50308227539062 82.54844665527344 12.71185302734375 79.99996948242188 12.71185302734375 M 79.99998474121094 4.711868286132812 C 84.12202453613281 4.711868286132812 88.24407196044922 5.9830322265625 91.74713897705078 8.52532958984375 L 148.2291870117188 49.51633453369141 C 155.2467193603516 54.60922241210938 158.1832733154297 63.64389038085938 155.5011596679688 71.88947296142578 L 133.9359436035156 138.1865539550781 C 131.2565307617188 146.4238586425781 123.578971862793 152 114.916862487793 152 L 45.08313751220703 152 C 36.42102813720703 152 28.74346923828125 146.4238586425781 26.06402587890625 138.1865539550781 L 4.49884033203125 71.88947296142578 C 1.816696166992188 63.64389038085938 4.753250122070312 54.60924530029297 11.77081298828125 49.516357421875 L 68.25283050537109 8.52532958984375 C 71.75590515136719 5.9830322265625 75.87794494628906 4.711868286132812 79.99998474121094 4.711868286132812 Z" stroke="none" fill="#fff"/>
        </g>
    </g>
    <line id="Línea_1" data-name="Línea 1" x2="22" transform="translate(186.5 87.5)" fill="none" stroke="#03799d" stroke-width="2"/>
    <path id="Trazado_4" data-name="Trazado 4" d="M16,0,32,48H0Z" transform="translate(181 158)" fill="#03799d"/>
    <path id="Polígono_7" data-name="Polígono 7" d="M16,0,32,25H0Z" transform="translate(213 231) rotate(180)" fill="#03799d"/>
    <g id="Elipse_11" data-name="Elipse 11" transform="translate(208 76)" fill="none" stroke="#03799d" stroke-width="2">
        <ellipse cx="12.5" cy="12" rx="12.5" ry="12" stroke="none"/>
        <ellipse cx="12.5" cy="12" rx="11.5" ry="11" fill="none"/>
    </g>
    <g id="Elipse_12" data-name="Elipse 12" transform="translate(162 76)" fill="none" stroke="#03799d" stroke-width="2">
        <ellipse cx="12.5" cy="12" rx="12.5" ry="12" stroke="none"/>
        <ellipse cx="12.5" cy="12" rx="11.5" ry="11" fill="none"/>
    </g>
    <line id="Línea_2" data-name="Línea 2" y1="7" x2="22" transform="translate(185.5 127.5)" fill="none" stroke="#03799d" stroke-width="2"/>
</svg>
