<svg xmlns="http://www.w3.org/2000/svg" xmlns:xlink="http://www.w3.org/1999/xlink" width="394" height="402" viewBox="0 0 394 402">
    <defs>
        <filter id="Polígono_2" x="0" y="133" width="394" height="269" filterUnits="userSpaceOnUse">
            <feOffset dy="3" input="SourceAlpha"/>
            <feGaussianBlur stdDeviation="3" result="blur"/>
            <feFlood flood-opacity="0.161"/>
            <feComposite operator="in" in2="blur"/>
            <feComposite in="SourceGraphic"/>
        </filter>
        <filter id="Polígono_1" x="100" y="0" width="193" height="170" filterUnits="userSpaceOnUse">
            <feOffset dy="3" input="SourceAlpha"/>
            <feGaussianBlur stdDeviation="3" result="blur-2"/>
            <feFlood flood-opacity="0.161"/>
            <feComposite operator="in" in2="blur-2"/>
            <feComposite in="SourceGraphic"/>
        </filter>
    </defs>
    <g transform="matrix(1, 0, 0, 1, 0, 0)" filter="url(#Polígono_2)">
        <g id="Polígono_2-2" data-name="Polígono 2" transform="translate(9 139)" fill="#c1e4ef">
            <path d="M 368.00634765625 247 L 7.993639945983887 247 L 188 6.672359943389893 L 368.00634765625 247 Z" stroke="none"/>
            <path d="M 188 13.34471130371094 L 15.98727416992188 243 L 360.0127258300781 243 L 188 13.34471130371094 M 188 0 L 376 251 L 0 251 L 188 0 Z" stroke="none" fill="#fff"/>
        </g>
    </g>
    <g transform="matrix(1, 0, 0, 1, 0, 0)" filter="url(#Polígono_1)">
        <g id="Polígono_1-2" data-name="Polígono 1" transform="translate(109 6)" fill="#c1e4ef">
            <path d="M 119.6860504150391 148 L 55.31394958496094 148 C 52.50567626953125 148 49.73627471923828 147.2570037841797 47.30514907836914 145.851318359375 C 44.8740234375 144.4456481933594 42.84842681884766 142.4161987304688 41.4473991394043 139.9823760986328 L 9.210575103759766 83.98237609863281 C 7.814849853515625 81.55782318115234 7.077125072479248 78.79757690429688 7.077125072479248 76 C 7.077125072479248 73.20242309570312 7.814849853515625 70.44214630126953 9.210550308227539 68.01760101318359 L 41.4473991394043 12.01760005950928 C 42.84842681884766 9.583800315856934 44.8740234375 7.554349899291992 47.30514907836914 6.148674964904785 C 49.73630142211914 4.743000030517578 52.50569915771484 4 55.31394958496094 4 L 119.6860504150391 4 C 122.4943237304688 4 125.2637252807617 4.743000030517578 127.6948471069336 6.148674964904785 C 130.1259765625 7.554349899291992 132.1515808105469 9.583800315856934 133.5526275634766 12.01760005950928 L 165.7894439697266 68.01760101318359 C 167.1851806640625 70.44214630126953 167.9228973388672 73.20242309570312 167.9228973388672 76 C 167.9228973388672 78.79757690429688 167.1851806640625 81.55785369873047 165.7894439697266 83.98239898681641 L 133.5525970458984 139.9823760986328 C 132.1515808105469 142.4161987304688 130.1259765625 144.4456481933594 127.6948471069336 145.851318359375 C 125.2637252807617 147.2570037841797 122.4943237304688 148 119.6860504150391 148 Z" stroke="none"/>
            <path d="M 55.31394195556641 8 C 51.03420257568359 8 47.04920959472656 10.30412292480469 44.91403198242188 14.01319885253906 L 12.67720031738281 70.01320648193359 C 10.55140686035156 73.70600128173828 10.55140686035156 78.29399871826172 12.67720031738281 81.98676300048828 L 44.91403198242188 137.9868011474609 C 47.04917907714844 141.6958770751953 51.03420257568359 144 55.31394195556641 144 L 119.6860580444336 144 C 123.9657897949219 144 127.9507904052734 141.6958770751953 130.0859680175781 137.9867706298828 L 162.3227996826172 81.98679351806641 C 164.4485931396484 78.29399871826172 164.4485931396484 73.70600128173828 162.3228302001953 70.01320648193359 L 130.0859680175781 14.01319885253906 C 127.9507904052734 10.30412292480469 123.9657897949219 8 119.6860580444336 8 L 55.31394195556641 8 M 55.31394195556641 0 L 119.6860580444336 0 C 126.8404388427734 0 133.4499206542969 3.82159423828125 137.0192260742188 10.02200317382812 L 169.2560882568359 66.02200317382812 C 172.8118286132812 72.19882202148438 172.8118286132812 79.80117797851562 169.2560882568359 85.97799682617188 L 137.0192260742188 141.9779663085938 C 133.4499359130859 148.1784057617188 126.8404388427734 152 119.6860580444336 152 L 55.31394195556641 152 C 48.15953063964844 152 41.55006408691406 148.1784057617188 37.98072814941406 141.9779663085938 L 5.743911743164062 85.97797393798828 C 2.18817138671875 79.80117797851562 2.18817138671875 72.19882202148438 5.743911743164062 66.02200317382812 L 37.98075866699219 10.02200317382812 C 41.55009460449219 3.82159423828125 48.15956115722656 0 55.31394195556641 0 Z" stroke="none" fill="#fff"/>
        </g>
    </g>
    <line id="Línea_1" data-name="Línea 1" x2="22" transform="translate(186.5 74.5)" fill="none" stroke="#03799d" stroke-width="2"/>
    <path id="Trazado_4" data-name="Trazado 4" d="M16,0,32,48H0Z" transform="translate(181 158)" fill="#03799d"/>
    <path id="Polígono_7" data-name="Polígono 7" d="M16,0,32,25H0Z" transform="translate(213 231) rotate(180)" fill="#03799d"/>
    <g id="Elipse_11" data-name="Elipse 11" transform="translate(208 63)" fill="none" stroke="#03799d" stroke-width="2">
        <ellipse cx="12.5" cy="12" rx="12.5" ry="12" stroke="none"/>
        <ellipse cx="12.5" cy="12" rx="11.5" ry="11" fill="none"/>
    </g>
    <g id="Elipse_12" data-name="Elipse 12" transform="translate(162 63)" fill="none" stroke="#03799d" stroke-width="2">
        <ellipse cx="12.5" cy="12" rx="12.5" ry="12" stroke="none"/>
        <ellipse cx="12.5" cy="12" rx="11.5" ry="11" fill="none"/>
    </g>
    <line id="Línea_2" data-name="Línea 2" y1="7" x2="22" transform="translate(185.5 114.5)" fill="none" stroke="#03799d" stroke-width="2"/>
</svg>
