<svg xmlns="http://www.w3.org/2000/svg" xmlns:xlink="http://www.w3.org/1999/xlink" width="213.921" height="343" viewBox="0 0 213.921 343">
    <defs>
        <filter id="Polígono_1" x="0" y="0" width="178" height="170" filterUnits="userSpaceOnUse">
            <feOffset dy="3" input="SourceAlpha"/>
            <feGaussianBlur stdDeviation="3" result="blur"/>
            <feFlood flood-opacity="0.161"/>
            <feComposite operator="in" in2="blur"/>
            <feComposite in="SourceGraphic"/>
        </filter>
    </defs>
    <g id="Rectángulo_57" data-name="Rectángulo 57" transform="translate(4.5 134)" fill="#c1e4ef" stroke="#fff" stroke-width="8">
        <path d="M50,0h79a50,50,0,0,1,50,50V209a0,0,0,0,1,0,0H0a0,0,0,0,1,0,0V50A50,50,0,0,1,50,0Z" stroke="none"/>
        <path d="M50,4h79a46,46,0,0,1,46,46V205a0,0,0,0,1,0,0H4a0,0,0,0,1,0,0V50A46,46,0,0,1,50,4Z" fill="none"/>
    </g>
    <g transform="matrix(1, 0, 0, 1, 0, 0)" filter="url(#Polígono_1)">
        <g id="Polígono_1-2" data-name="Polígono 1" transform="translate(9 6)" fill="#c1e4ef">
            <path d="M 114.916862487793 148 L 45.08313751220703 148 C 41.68304443359375 148 38.4317512512207 146.9438781738281 35.68070602416992 144.9458160400391 C 32.92966079711914 142.9477386474609 30.91961288452148 140.1825866699219 29.86786270141602 136.9492492675781 L 8.302659034729004 70.65215301513672 C 7.249863624572754 67.41556549072266 7.249477386474609 63.99390411376953 8.301545143127441 60.75708770751953 C 9.35361385345459 57.52026748657227 11.36568164825439 54.75274658203125 14.12022686004639 52.75367736816406 L 70.60227203369141 11.76263236999512 C 73.35234069824219 9.766814231872559 76.60202026367188 8.711882591247559 80 8.711882591247559 C 83.39797973632812 8.711882591247559 86.64763641357422 9.766814231872559 89.397705078125 11.76263236999512 L 145.8797760009766 52.75365447998047 C 148.6343231201172 54.75272369384766 150.6463928222656 57.52026748657227 151.6984558105469 60.75708770751953 C 152.7505187988281 63.99392700195312 152.7501373291016 67.41558837890625 151.6973419189453 70.65215301513672 L 130.1321411132812 136.9492492675781 C 129.0803833007812 140.1825866699219 127.0703430175781 142.9477386474609 124.3192977905273 144.9458160400391 C 121.5682525634766 146.9438781738281 118.3169555664062 148 114.916862487793 148 Z" stroke="none"/>
            <path d="M 79.99996948242188 12.71185302734375 C 77.45149993896484 12.71185302734375 75.01425170898438 13.5030517578125 72.95169067382812 14.99993896484375 L 16.46966552734375 55.99097442626953 C 12.245361328125 59.05669403076172 10.491943359375 64.45133209228516 12.10647583007812 69.41486358642578 L 33.67166900634766 135.7119140625 C 35.28419494628906 140.6692810058594 39.87010955810547 144 45.08313751220703 144 L 114.916862487793 144 C 120.1298904418945 144 124.7157745361328 140.6692810058594 126.3283081054688 135.7119140625 L 147.8935241699219 69.41486358642578 C 149.508056640625 64.45133209228516 147.7546081542969 59.05666351318359 143.5303344726562 55.99094390869141 L 87.04827880859375 14.99996948242188 C 84.98569488525391 13.50308227539062 82.54844665527344 12.71185302734375 79.99996948242188 12.71185302734375 M 79.99998474121094 4.711868286132812 C 84.12202453613281 4.711868286132812 88.24407196044922 5.9830322265625 91.74713897705078 8.52532958984375 L 148.2291870117188 49.51633453369141 C 155.2467193603516 54.60922241210938 158.1832733154297 63.64389038085938 155.5011596679688 71.88947296142578 L 133.9359436035156 138.1865539550781 C 131.2565307617188 146.4238586425781 123.578971862793 152 114.916862487793 152 L 45.08313751220703 152 C 36.42102813720703 152 28.74346923828125 146.4238586425781 26.06402587890625 138.1865539550781 L 4.49884033203125 71.88947296142578 C 1.816696166992188 63.64389038085938 4.753250122070312 54.60924530029297 11.77081298828125 49.516357421875 L 68.25283050537109 8.52532958984375 C 71.75590515136719 5.9830322265625 75.87794494628906 4.711868286132812 79.99998474121094 4.711868286132812 Z" stroke="none" fill="#fff"/>
        </g>
    </g>
    <line id="Línea_2" data-name="Línea 2" x2="25" transform="translate(44.5 69)" fill="none" stroke="#03799d" stroke-width="2"/>
    <line id="Línea_4" data-name="Línea 4" x2="25" transform="translate(108.5 69)" fill="none" stroke="#03799d" stroke-width="2"/>
    <ellipse id="Elipse_5" data-name="Elipse 5" cx="7" cy="13" rx="7" ry="13" transform="translate(53.5 69)" fill="#03799d"/>
    <ellipse id="Elipse_6" data-name="Elipse 6" cx="2.5" cy="4.5" rx="2.5" ry="4.5" transform="translate(56.5 71)" fill="#fff"/>
    <ellipse id="Elipse_7" data-name="Elipse 7" cx="7" cy="13" rx="7" ry="13" transform="translate(110.5 69)" fill="#03799d"/>
    <ellipse id="Elipse_8" data-name="Elipse 8" cx="2.5" cy="4.5" rx="2.5" ry="4.5" transform="translate(112.5 71)" fill="#fff"/>
    <g id="Elipse_9" data-name="Elipse 9" transform="translate(70.5 118)" fill="none" stroke="#03799d" stroke-width="1">
        <ellipse cx="19" cy="9.5" rx="19" ry="9.5" stroke="none"/>
        <ellipse cx="19" cy="9.5" rx="18.5" ry="9" fill="none"/>
    </g>
    <ellipse id="Elipse_10" data-name="Elipse 10" cx="22" cy="9.5" rx="22" ry="9.5" transform="translate(67.5 116)" fill="#c1e4ef"/>
    <g id="Rectángulo_58" data-name="Rectángulo 58" transform="translate(193.613 179.749) rotate(45)" fill="#c1e4ef" stroke="#fff" stroke-width="2">
        <rect width="10" height="88" rx="5" stroke="none"/>
        <rect x="1" y="1" width="8" height="86" rx="4" fill="none"/>
    </g>
    <g id="Polígono_5" data-name="Polígono 5" transform="translate(196.302 165.948) rotate(40)" fill="#03799d">
        <path d="M 16.08589172363281 19.49999618530273 L 6.914111137390137 19.49999618530273 C 5.650081157684326 19.49999618530273 4.51754093170166 18.84678649902344 3.884561061859131 17.75266647338867 C 3.251580953598022 16.65854644775391 3.249850988388062 15.35114574432373 3.879930973052979 14.25535583496094 L 8.465821266174316 6.279895782470703 C 9.097830772399902 5.180745601654053 10.23210048675537 4.524545669555664 11.50000095367432 4.524545669555664 C 12.76789093017578 4.524545669555664 13.90216064453125 5.180745601654053 14.53417110443115 6.279895782470703 L 19.12007141113281 14.25535583496094 C 19.75015068054199 15.35114574432373 19.74842071533203 16.65854644775391 19.11544036865234 17.75266647338867 C 18.48246002197266 18.84678649902344 17.34992027282715 19.49999618530273 16.08589172363281 19.49999618530273 Z" stroke="none"/>
        <path d="M 11.49999141693115 5.0245361328125 C 10.41323089599609 5.0245361328125 9.441000938415527 5.586996078491211 8.899280548095703 6.529125213623047 L 4.313390731811523 14.50458526611328 C 3.773321151733398 15.4438362121582 3.774801254272461 16.56447601318359 4.317350387573242 17.50228500366211 C 4.85991096496582 18.44010543823242 5.830661773681641 18.99999618530273 6.91411018371582 18.99999618530273 L 16.08589172363281 18.99999618530273 C 17.16934204101562 18.99999618530273 18.14009094238281 18.44010543823242 18.68265151977539 17.50228500366211 C 19.22520065307617 16.56447601318359 19.22668075561523 15.4438362121582 18.68661117553711 14.50458526611328 L 14.10071086883545 6.529125213623047 C 13.55899047851562 5.586996078491211 12.58676052093506 5.0245361328125 11.49999141693115 5.0245361328125 M 11.49999618530273 4.024539947509766 C 12.84930324554443 4.024539947509766 14.19861125946045 4.693244934082031 14.96762084960938 6.030654907226562 L 19.55352020263672 14.00611591339111 C 21.08685111999512 16.67277526855469 19.16196060180664 19.99999618530273 16.08589172363281 19.99999618530273 L 6.91411018371582 19.99999618530273 C 3.838041305541992 19.99999618530273 1.913150787353516 16.67277526855469 3.446481704711914 14.00611591339111 L 8.032370567321777 6.030654907226562 C 8.80138111114502 4.693244934082031 10.15068817138672 4.024539947509766 11.49999618530273 4.024539947509766 Z" stroke="none" fill="#fff"/>
    </g>
    <g id="Rectángulo_59" data-name="Rectángulo 59" transform="translate(144.5 214)" fill="#c0e3ee" stroke="#fff" stroke-width="2">
        <rect width="25" height="25" rx="10" stroke="none"/>
        <rect x="1" y="1" width="23" height="23" rx="9" fill="none"/>
    </g>
</svg>
