<svg xmlns="http://www.w3.org/2000/svg" xmlns:xlink="http://www.w3.org/1999/xlink" width="221.421" height="343" viewBox="0 0 221.421 343">
    <defs>
        <filter id="Polígono_1" x="0" y="0" width="193" height="170" filterUnits="userSpaceOnUse">
            <feOffset dy="3" input="SourceAlpha"/>
            <feGaussianBlur stdDeviation="3" result="blur"/>
            <feFlood flood-opacity="0.161"/>
            <feComposite operator="in" in2="blur"/>
            <feComposite in="SourceGraphic"/>
        </filter>
    </defs>
    <g id="Rectángulo_57" data-name="Rectángulo 57" transform="translate(12 134)" fill="#c1e4ef" stroke="#fff" stroke-width="8">
        <path d="M50,0h79a50,50,0,0,1,50,50V209a0,0,0,0,1,0,0H0a0,0,0,0,1,0,0V50A50,50,0,0,1,50,0Z" stroke="none"/>
        <path d="M50,4h79a46,46,0,0,1,46,46V205a0,0,0,0,1,0,0H4a0,0,0,0,1,0,0V50A46,46,0,0,1,50,4Z" fill="none"/>
    </g>
    <g transform="matrix(1, 0, 0, 1, 0, 0)" filter="url(#Polígono_1)">
        <g id="Polígono_1-2" data-name="Polígono 1" transform="translate(9 6)" fill="#c1e4ef">
            <path d="M 119.6860504150391 148 L 55.31394958496094 148 C 52.50567626953125 148 49.73627471923828 147.2570037841797 47.30514907836914 145.851318359375 C 44.8740234375 144.4456481933594 42.84842681884766 142.4161987304688 41.4473991394043 139.9823760986328 L 9.210575103759766 83.98237609863281 C 7.814849853515625 81.55782318115234 7.077125072479248 78.79757690429688 7.077125072479248 76 C 7.077125072479248 73.20242309570312 7.814849853515625 70.44214630126953 9.210550308227539 68.01760101318359 L 41.4473991394043 12.01760005950928 C 42.84842681884766 9.583800315856934 44.8740234375 7.554349899291992 47.30514907836914 6.148674964904785 C 49.73630142211914 4.743000030517578 52.50569915771484 4 55.31394958496094 4 L 119.6860504150391 4 C 122.4943237304688 4 125.2637252807617 4.743000030517578 127.6948471069336 6.148674964904785 C 130.1259765625 7.554349899291992 132.1515808105469 9.583800315856934 133.5526275634766 12.01760005950928 L 165.7894439697266 68.01760101318359 C 167.1851806640625 70.44214630126953 167.9228973388672 73.20242309570312 167.9228973388672 76 C 167.9228973388672 78.79757690429688 167.1851806640625 81.55785369873047 165.7894439697266 83.98239898681641 L 133.5525970458984 139.9823760986328 C 132.1515808105469 142.4161987304688 130.1259765625 144.4456481933594 127.6948471069336 145.851318359375 C 125.2637252807617 147.2570037841797 122.4943237304688 148 119.6860504150391 148 Z" stroke="none"/>
            <path d="M 55.31394195556641 8 C 51.03420257568359 8 47.04920959472656 10.30412292480469 44.91403198242188 14.01319885253906 L 12.67720031738281 70.01320648193359 C 10.55140686035156 73.70600128173828 10.55140686035156 78.29399871826172 12.67720031738281 81.98676300048828 L 44.91403198242188 137.9868011474609 C 47.04917907714844 141.6958770751953 51.03420257568359 144 55.31394195556641 144 L 119.6860580444336 144 C 123.9657897949219 144 127.9507904052734 141.6958770751953 130.0859680175781 137.9867706298828 L 162.3227996826172 81.98679351806641 C 164.4485931396484 78.29399871826172 164.4485931396484 73.70600128173828 162.3228302001953 70.01320648193359 L 130.0859680175781 14.01319885253906 C 127.9507904052734 10.30412292480469 123.9657897949219 8 119.6860580444336 8 L 55.31394195556641 8 M 55.31394195556641 0 L 119.6860580444336 0 C 126.8404388427734 0 133.4499206542969 3.82159423828125 137.0192260742188 10.02200317382812 L 169.2560882568359 66.02200317382812 C 172.8118286132812 72.19882202148438 172.8118286132812 79.80117797851562 169.2560882568359 85.97799682617188 L 137.0192260742188 141.9779663085938 C 133.4499359130859 148.1784057617188 126.8404388427734 152 119.6860580444336 152 L 55.31394195556641 152 C 48.15953063964844 152 41.55006408691406 148.1784057617188 37.98072814941406 141.9779663085938 L 5.743911743164062 85.97797393798828 C 2.18817138671875 79.80117797851562 2.18817138671875 72.19882202148438 5.743911743164062 66.02200317382812 L 37.98075866699219 10.02200317382812 C 41.55009460449219 3.82159423828125 48.15956115722656 0 55.31394195556641 0 Z" stroke="none" fill="#fff"/>
        </g>
    </g>
    <g id="Elipse_9" data-name="Elipse 9" transform="translate(78 106)" fill="none" stroke="#03799d" stroke-width="1">
        <ellipse cx="19" cy="9.5" rx="19" ry="9.5" stroke="none"/>
        <ellipse cx="19" cy="9.5" rx="18.5" ry="9" fill="none"/>
    </g>
    <ellipse id="Elipse_10" data-name="Elipse 10" cx="22" cy="9.5" rx="22" ry="9.5" transform="translate(75 104)" fill="#c1e4ef"/>
    <line id="Línea_2" data-name="Línea 2" x2="22" transform="translate(55 56)" fill="none" stroke="#03799d" stroke-width="2"/>
    <line id="Línea_4" data-name="Línea 4" x2="22" transform="translate(116 56)" fill="none" stroke="#03799d" stroke-width="2"/>
    <ellipse id="Elipse_5" data-name="Elipse 5" cx="6.5" cy="13" rx="6.5" ry="13" transform="translate(62 56)" fill="#03799d"/>
    <ellipse id="Elipse_6" data-name="Elipse 6" cx="2" cy="4.5" rx="2" ry="4.5" transform="translate(64 58)" fill="#fff"/>
    <ellipse id="Elipse_7" data-name="Elipse 7" cx="6.5" cy="13" rx="6.5" ry="13" transform="translate(118 56)" fill="#03799d"/>
    <ellipse id="Elipse_8" data-name="Elipse 8" cx="2" cy="4.5" rx="2" ry="4.5" transform="translate(120 58)" fill="#fff"/>
    <g id="Rectángulo_58" data-name="Rectángulo 58" transform="translate(201.113 179.749) rotate(45)" fill="#c1e4ef" stroke="#fff" stroke-width="2">
        <rect width="10" height="88" rx="5" stroke="none"/>
        <rect x="1" y="1" width="8" height="86" rx="4" fill="none"/>
    </g>
    <g id="Polígono_5" data-name="Polígono 5" transform="translate(203.802 165.948) rotate(40)" fill="#03799d">
        <path d="M 16.08589172363281 19.49999618530273 L 6.914111137390137 19.49999618530273 C 5.650081157684326 19.49999618530273 4.51754093170166 18.84678649902344 3.884561061859131 17.75266647338867 C 3.251580953598022 16.65854644775391 3.249850988388062 15.35114574432373 3.879930973052979 14.25535583496094 L 8.465821266174316 6.279895782470703 C 9.097830772399902 5.180745601654053 10.23210048675537 4.524545669555664 11.50000095367432 4.524545669555664 C 12.76789093017578 4.524545669555664 13.90216064453125 5.180745601654053 14.53417110443115 6.279895782470703 L 19.12007141113281 14.25535583496094 C 19.75015068054199 15.35114574432373 19.74842071533203 16.65854644775391 19.11544036865234 17.75266647338867 C 18.48246002197266 18.84678649902344 17.34992027282715 19.49999618530273 16.08589172363281 19.49999618530273 Z" stroke="none"/>
        <path d="M 11.49999141693115 5.0245361328125 C 10.41323089599609 5.0245361328125 9.441000938415527 5.586996078491211 8.899280548095703 6.529125213623047 L 4.313390731811523 14.50458526611328 C 3.773321151733398 15.4438362121582 3.774801254272461 16.56447601318359 4.317350387573242 17.50228500366211 C 4.85991096496582 18.44010543823242 5.830661773681641 18.99999618530273 6.91411018371582 18.99999618530273 L 16.08589172363281 18.99999618530273 C 17.16934204101562 18.99999618530273 18.14009094238281 18.44010543823242 18.68265151977539 17.50228500366211 C 19.22520065307617 16.56447601318359 19.22668075561523 15.4438362121582 18.68661117553711 14.50458526611328 L 14.10071086883545 6.529125213623047 C 13.55899047851562 5.586996078491211 12.58676052093506 5.0245361328125 11.49999141693115 5.0245361328125 M 11.49999618530273 4.024539947509766 C 12.84930324554443 4.024539947509766 14.19861125946045 4.693244934082031 14.96762084960938 6.030654907226562 L 19.55352020263672 14.00611591339111 C 21.08685111999512 16.67277526855469 19.16196060180664 19.99999618530273 16.08589172363281 19.99999618530273 L 6.91411018371582 19.99999618530273 C 3.838041305541992 19.99999618530273 1.913150787353516 16.67277526855469 3.446481704711914 14.00611591339111 L 8.032370567321777 6.030654907226562 C 8.80138111114502 4.693244934082031 10.15068817138672 4.024539947509766 11.49999618530273 4.024539947509766 Z" stroke="none" fill="#fff"/>
    </g>
    <g id="Rectángulo_59" data-name="Rectángulo 59" transform="translate(152 214)" fill="#c0e3ee" stroke="#fff" stroke-width="2">
        <rect width="25" height="25" rx="10" stroke="none"/>
        <rect x="1" y="1" width="23" height="23" rx="9" fill="none"/>
    </g>
</svg>
