<svg xmlns="http://www.w3.org/2000/svg" xmlns:xlink="http://www.w3.org/1999/xlink" width="210.386" height="343" viewBox="0 0 210.386 343">
    <defs>
        <filter id="Polígono_1" x="0" y="0" width="174" height="170" filterUnits="userSpaceOnUse">
            <feOffset dy="3" input="SourceAlpha"/>
            <feGaussianBlur stdDeviation="3" result="blur"/>
            <feFlood flood-opacity="0.161"/>
            <feComposite operator="in" in2="blur"/>
            <feComposite in="SourceGraphic"/>
        </filter>
    </defs>
    <g id="Rectángulo_57" data-name="Rectángulo 57" transform="translate(2.5 134)" fill="#c1e4ef" stroke="#fff" stroke-width="8">
        <path d="M50,0h79a50,50,0,0,1,50,50V209a0,0,0,0,1,0,0H0a0,0,0,0,1,0,0V50A50,50,0,0,1,50,0Z" stroke="none"/>
        <path d="M50,4h79a46,46,0,0,1,46,46V205a0,0,0,0,1,0,0H4a0,0,0,0,1,0,0V50A46,46,0,0,1,50,4Z" fill="none"/>
    </g>
    <g transform="matrix(1, 0, 0, 1, 0, 0)" filter="url(#Polígono_1)">
        <g id="Polígono_1-2" data-name="Polígono 1" transform="translate(9 6)" fill="#c1e4ef">
            <path d="M 52.91472625732422 148.0000152587891 C 50.52643203735352 148.0000152587891 48.12656784057617 147.4524383544922 45.97463607788086 146.4164886474609 C 43.82270431518555 145.3805541992188 41.89786529541016 143.8462219238281 40.40824890136719 141.9794006347656 L 9.137045860290527 102.7894439697266 C 7.646227359771729 100.9211044311523 6.577000141143799 98.70188140869141 6.044954776763916 96.37162780761719 C 5.512886524200439 94.04137420654297 5.512954711914062 91.57797241210938 6.045113563537598 89.24776458740234 L 17.20375061035156 40.38701248168945 C 17.73572731018066 38.0576286315918 18.80454635620117 35.83910369873047 20.29461288452148 33.97126388549805 C 21.78470420837402 32.10344696044922 23.71031761169434 30.56844520568848 25.86329460144043 29.53224182128906 L 71.06113433837891 7.778809547424316 C 73.21275329589844 6.743241310119629 75.61215972900391 6.195877552032471 78 6.195877552032471 C 80.3878173828125 6.195877552032471 82.78722381591797 6.743241310119629 84.93881988525391 7.778809547424316 L 130.1366577148438 29.53221893310547 C 132.2896423339844 30.56844520568848 134.2152709960938 32.10342407226562 135.7053375244141 33.97124099731445 C 137.1954345703125 35.83905792236328 138.2642211914062 38.0576057434082 138.7962341308594 40.38701248168945 L 149.9548797607422 89.24769592285156 C 150.4870452880859 91.57792663574219 150.4870910644531 94.04133605957031 149.9550476074219 96.37160491943359 C 149.4229736328125 98.70185852050781 148.3537445068359 100.9211044311523 146.8629302978516 102.7894439697266 L 115.5917510986328 141.9794006347656 C 114.1022262573242 143.8460845947266 112.1773834228516 145.38037109375 110.0253219604492 146.4163818359375 C 107.8732528686523 147.4523773193359 105.4734573364258 147.9999847412109 103.0853424072266 147.9999847412109 L 99.08534240722656 147.9999847412109 L 52.91472625732422 148.0000152587891 Z" stroke="none"/>
            <path d="M 77.99996948242188 10.19589233398438 C 76.20908355712891 10.19589233398438 74.40953063964844 10.60643005371094 72.79582977294922 11.383056640625 L 27.59800720214844 33.13653564453125 C 24.28836059570312 34.72942352294922 21.921142578125 37.69675445556641 21.10333251953125 41.277587890625 L 9.944717407226562 90.13833618164062 C 9.126617431640625 93.72058868408203 9.971832275390625 97.42239379882812 12.263671875 100.2945861816406 L 43.53488922119141 139.4845581054688 C 45.82466888427734 142.3541717529297 49.24346923828125 144 52.91471862792969 144 L 103.0853576660156 143.9999847412109 C 106.7565307617188 143.9999847412109 110.1753387451172 142.3541412353516 112.4651336669922 139.4845275878906 L 143.7362976074219 100.2946166992188 C 146.0281372070312 97.42239379882812 146.8733673095703 93.72053527832031 146.0552825927734 90.13828277587891 L 134.8966064453125 41.27756500244141 C 134.0788269042969 37.69673156738281 131.7116088867188 34.72942352294922 128.4019470214844 33.13650512695312 L 83.20410919189453 11.383056640625 C 81.59044647216797 10.60643005371094 79.79086303710938 10.19589233398438 77.99996948242188 10.19589233398438 M 77.99998474121094 2.195892333984375 C 80.96640014648438 2.195892333984375 83.93282318115234 2.855438232421875 86.67355346679688 4.174530029296875 L 131.8713684082031 25.92794799804688 C 137.3563537597656 28.56784057617188 141.3405303955078 33.56200408935547 142.69580078125 39.49642181396484 L 153.8544769287109 88.35711669921875 C 155.2102203369141 94.29367065429688 153.7875518798828 100.5244750976562 149.9895629882812 105.2842864990234 L 118.7183609008789 144.4742279052734 C 114.9233551025391 149.2301940917969 109.1935806274414 151.9991455078125 103.0852813720703 151.9999847412109 L 52.91471862792969 152 C 46.83022308349609 152 41.07661437988281 149.230224609375 37.28163909912109 144.4742279052734 L 6.01043701171875 105.2842864990234 C 2.212417602539062 100.5245056152344 0.7897491455078125 94.293701171875 2.145523071289062 88.35717010498047 L 13.30413818359375 39.49645233154297 C 14.65943908691406 33.56203460693359 18.64358520507812 28.56787109375 24.12858581542969 25.927978515625 L 69.326416015625 4.174530029296875 C 72.06715393066406 2.855438232421875 75.0335693359375 2.195892333984375 77.99998474121094 2.195892333984375 Z" stroke="none" fill="#fff"/>
        </g>
    </g>
    <g id="Elipse_9" data-name="Elipse 9" transform="translate(68.5 113)" fill="none" stroke="#03799d" stroke-width="1">
        <ellipse cx="19" cy="9.5" rx="19" ry="9.5" stroke="none"/>
        <ellipse cx="19" cy="9.5" rx="18.5" ry="9" fill="none"/>
    </g>
    <ellipse id="Elipse_10" data-name="Elipse 10" cx="22" cy="9.5" rx="22" ry="9.5" transform="translate(65.5 111)" fill="#c1e4ef"/>
    <g id="Rectángulo_58" data-name="Rectángulo 58" transform="translate(190.077 179.749) rotate(45)" fill="#c1e4ef" stroke="#fff" stroke-width="2">
        <rect width="10" height="88" rx="5" stroke="none"/>
        <rect x="1" y="1" width="8" height="86" rx="4" fill="none"/>
    </g>
    <g id="Polígono_5" data-name="Polígono 5" transform="translate(192.767 165.948) rotate(40)" fill="#03799d">
        <path d="M 16.08589172363281 19.49999618530273 L 6.914111137390137 19.49999618530273 C 5.650081157684326 19.49999618530273 4.51754093170166 18.84678649902344 3.884561061859131 17.75266647338867 C 3.251580953598022 16.65854644775391 3.249850988388062 15.35114574432373 3.879930973052979 14.25535583496094 L 8.465821266174316 6.279895782470703 C 9.097830772399902 5.180745601654053 10.23210048675537 4.524545669555664 11.50000095367432 4.524545669555664 C 12.76789093017578 4.524545669555664 13.90216064453125 5.180745601654053 14.53417110443115 6.279895782470703 L 19.12007141113281 14.25535583496094 C 19.75015068054199 15.35114574432373 19.74842071533203 16.65854644775391 19.11544036865234 17.75266647338867 C 18.48246002197266 18.84678649902344 17.34992027282715 19.49999618530273 16.08589172363281 19.49999618530273 Z" stroke="none"/>
        <path d="M 11.49999141693115 5.0245361328125 C 10.41323089599609 5.0245361328125 9.441000938415527 5.586996078491211 8.899280548095703 6.529125213623047 L 4.313390731811523 14.50458526611328 C 3.773321151733398 15.4438362121582 3.774801254272461 16.56447601318359 4.317350387573242 17.50228500366211 C 4.85991096496582 18.44010543823242 5.830661773681641 18.99999618530273 6.91411018371582 18.99999618530273 L 16.08589172363281 18.99999618530273 C 17.16934204101562 18.99999618530273 18.14009094238281 18.44010543823242 18.68265151977539 17.50228500366211 C 19.22520065307617 16.56447601318359 19.22668075561523 15.4438362121582 18.68661117553711 14.50458526611328 L 14.10071086883545 6.529125213623047 C 13.55899047851562 5.586996078491211 12.58676052093506 5.0245361328125 11.49999141693115 5.0245361328125 M 11.49999618530273 4.024539947509766 C 12.84930324554443 4.024539947509766 14.19861125946045 4.693244934082031 14.96762084960938 6.030654907226562 L 19.55352020263672 14.00611591339111 C 21.08685111999512 16.67277526855469 19.16196060180664 19.99999618530273 16.08589172363281 19.99999618530273 L 6.91411018371582 19.99999618530273 C 3.838041305541992 19.99999618530273 1.913150787353516 16.67277526855469 3.446481704711914 14.00611591339111 L 8.032370567321777 6.030654907226562 C 8.80138111114502 4.693244934082031 10.15068817138672 4.024539947509766 11.49999618530273 4.024539947509766 Z" stroke="none" fill="#fff"/>
    </g>
    <line id="Línea_2" data-name="Línea 2" x2="22" transform="translate(43.964 69)" fill="none" stroke="#03799d" stroke-width="2"/>
    <line id="Línea_4" data-name="Línea 4" x2="22" transform="translate(104.964 69)" fill="none" stroke="#03799d" stroke-width="2"/>
    <ellipse id="Elipse_5" data-name="Elipse 5" cx="6.5" cy="13" rx="6.5" ry="13" transform="translate(50.964 69)" fill="#03799d"/>
    <ellipse id="Elipse_6" data-name="Elipse 6" cx="2" cy="4.5" rx="2" ry="4.5" transform="translate(56.964 71)" fill="#fff"/>
    <ellipse id="Elipse_7" data-name="Elipse 7" cx="6.5" cy="13" rx="6.5" ry="13" transform="translate(106.964 69)" fill="#03799d"/>
    <ellipse id="Elipse_8" data-name="Elipse 8" cx="2" cy="4.5" rx="2" ry="4.5" transform="translate(108.964 71)" fill="#fff"/>
    <g id="Rectángulo_59" data-name="Rectángulo 59" transform="translate(140.964 214)" fill="#c0e3ee" stroke="#fff" stroke-width="2">
        <rect width="25" height="25" rx="10" stroke="none"/>
        <rect x="1" y="1" width="23" height="23" rx="9" fill="none"/>
    </g>
</svg>
