<svg xmlns="http://www.w3.org/2000/svg" width="306" height="392" viewBox="0 0 306 392">
    <g id="Rectángulo_62" data-name="Rectángulo 62" transform="translate(8 8)" fill="#f0ddc2" stroke="#fff" stroke-width="8">
        <rect width="290" height="376" stroke="none"/>
        <rect x="-4" y="-4" width="298" height="384" fill="none"/>
    </g>
    <line id="Línea_5" data-name="Línea 5" x2="1" y2="312" transform="translate(68.5 39.5)" fill="none" stroke="#fff" stroke-width="8"/>
    <line id="Línea_6" data-name="Línea 6" x2="1" y2="312" transform="translate(237.5 39.5)" fill="none" stroke="#fff" stroke-width="8"/>
    <g id="Rectángulo_60" data-name="Rectángulo 60" transform="translate(25 178)" fill="#9e5e03" stroke="#fff" stroke-linejoin="bevel" stroke-width="8">
        <rect width="255" height="53" rx="15" stroke="none"/>
        <rect x="-4" y="-4" width="263" height="61" rx="19" fill="none"/>
    </g>
    <rect id="Rectángulo_61" data-name="Rectángulo 61" width="103" height="9" rx="4.5" transform="translate(45 200)" fill="#f0ddc2"/>
    <circle id="Elipse_13" data-name="Elipse 13" cx="4.5" cy="4.5" r="4.5" transform="translate(188 200)" fill="#f0ddc2"/>
    <circle id="Elipse_14" data-name="Elipse 14" cx="4.5" cy="4.5" r="4.5" transform="translate(201 200)" fill="#f0ddc2"/>
    <circle id="Elipse_15" data-name="Elipse 15" cx="4.5" cy="4.5" r="4.5" transform="translate(214 200)" fill="#f0ddc2"/>
    <circle id="Elipse_16" data-name="Elipse 16" cx="4.5" cy="4.5" r="4.5" transform="translate(227 200)" fill="#f0ddc2"/>
    <circle id="Elipse_17" data-name="Elipse 17" cx="4.5" cy="4.5" r="4.5" transform="translate(240 200)" fill="#f0ddc2"/>
    <circle id="Elipse_18" data-name="Elipse 18" cx="4.5" cy="4.5" r="4.5" transform="translate(253 200)" fill="#f0ddc2"/>
    <circle id="Elipse_19" data-name="Elipse 19" cx="4.5" cy="4.5" r="4.5" transform="translate(195 213)" fill="#f0ddc2"/>
    <circle id="Elipse_20" data-name="Elipse 20" cx="4.5" cy="4.5" r="4.5" transform="translate(208 213)" fill="#f0ddc2"/>
    <circle id="Elipse_21" data-name="Elipse 21" cx="4.5" cy="4.5" r="4.5" transform="translate(221 213)" fill="#f0ddc2"/>
    <circle id="Elipse_22" data-name="Elipse 22" cx="4.5" cy="4.5" r="4.5" transform="translate(234 213)" fill="#f0ddc2"/>
    <circle id="Elipse_23" data-name="Elipse 23" cx="4.5" cy="4.5" r="4.5" transform="translate(247 213)" fill="#f0ddc2"/>
    <circle id="Elipse_24" data-name="Elipse 24" cx="4.5" cy="4.5" r="4.5" transform="translate(195 187)" fill="#f0ddc2"/>
    <circle id="Elipse_25" data-name="Elipse 25" cx="4.5" cy="4.5" r="4.5" transform="translate(208 187)" fill="#f0ddc2"/>
    <circle id="Elipse_26" data-name="Elipse 26" cx="4.5" cy="4.5" r="4.5" transform="translate(221 187)" fill="#f0ddc2"/>
    <circle id="Elipse_27" data-name="Elipse 27" cx="4.5" cy="4.5" r="4.5" transform="translate(234 187)" fill="#f0ddc2"/>
    <circle id="Elipse_28" data-name="Elipse 28" cx="4.5" cy="4.5" r="4.5" transform="translate(247 187)" fill="#f0ddc2"/>
    <circle id="Elipse_29" data-name="Elipse 29" cx="7" cy="7" r="7" transform="translate(160 198)" fill="#f0ddc2"/>
    <g id="Rectángulo_63" data-name="Rectángulo 63" transform="translate(25 255)" fill="#9e5e03" stroke="#fff" stroke-linejoin="bevel" stroke-width="8">
        <rect width="255" height="53" rx="15" stroke="none"/>
        <rect x="-4" y="-4" width="263" height="61" rx="19" fill="none"/>
    </g>
    <rect id="Rectángulo_64" data-name="Rectángulo 64" width="103" height="9" rx="4.5" transform="translate(45 277)" fill="#f0ddc2"/>
    <circle id="Elipse_30" data-name="Elipse 30" cx="4.5" cy="4.5" r="4.5" transform="translate(188 277)" fill="#f0ddc2"/>
    <circle id="Elipse_31" data-name="Elipse 31" cx="4.5" cy="4.5" r="4.5" transform="translate(201 277)" fill="#f0ddc2"/>
    <circle id="Elipse_32" data-name="Elipse 32" cx="4.5" cy="4.5" r="4.5" transform="translate(214 277)" fill="#f0ddc2"/>
    <circle id="Elipse_33" data-name="Elipse 33" cx="4.5" cy="4.5" r="4.5" transform="translate(227 277)" fill="#f0ddc2"/>
    <circle id="Elipse_34" data-name="Elipse 34" cx="4.5" cy="4.5" r="4.5" transform="translate(240 277)" fill="#f0ddc2"/>
    <circle id="Elipse_35" data-name="Elipse 35" cx="4.5" cy="4.5" r="4.5" transform="translate(253 277)" fill="#f0ddc2"/>
    <circle id="Elipse_36" data-name="Elipse 36" cx="4.5" cy="4.5" r="4.5" transform="translate(195 290)" fill="#f0ddc2"/>
    <circle id="Elipse_37" data-name="Elipse 37" cx="4.5" cy="4.5" r="4.5" transform="translate(208 290)" fill="#f0ddc2"/>
    <circle id="Elipse_38" data-name="Elipse 38" cx="4.5" cy="4.5" r="4.5" transform="translate(221 290)" fill="#f0ddc2"/>
    <circle id="Elipse_39" data-name="Elipse 39" cx="4.5" cy="4.5" r="4.5" transform="translate(234 290)" fill="#f0ddc2"/>
    <circle id="Elipse_40" data-name="Elipse 40" cx="4.5" cy="4.5" r="4.5" transform="translate(247 290)" fill="#f0ddc2"/>
    <circle id="Elipse_41" data-name="Elipse 41" cx="4.5" cy="4.5" r="4.5" transform="translate(195 264)" fill="#f0ddc2"/>
    <circle id="Elipse_42" data-name="Elipse 42" cx="4.5" cy="4.5" r="4.5" transform="translate(208 264)" fill="#f0ddc2"/>
    <circle id="Elipse_43" data-name="Elipse 43" cx="4.5" cy="4.5" r="4.5" transform="translate(221 264)" fill="#f0ddc2"/>
    <circle id="Elipse_44" data-name="Elipse 44" cx="4.5" cy="4.5" r="4.5" transform="translate(234 264)" fill="#f0ddc2"/>
    <circle id="Elipse_45" data-name="Elipse 45" cx="4.5" cy="4.5" r="4.5" transform="translate(247 264)" fill="#f0ddc2"/>
    <circle id="Elipse_46" data-name="Elipse 46" cx="7" cy="7" r="7" transform="translate(160 275)" fill="#f0ddc2"/>
</svg>
