<svg xmlns="http://www.w3.org/2000/svg" width="306" height="392" viewBox="0 0 306 392">
    <g id="Rectángulo_62" data-name="Rectángulo 62" transform="translate(8 8)" fill="#f0ddc2" stroke="#fff" stroke-width="8">
        <rect width="290" height="376" stroke="none"/>
        <rect x="-4" y="-4" width="298" height="384" fill="none"/>
    </g>
    <line id="Línea_5" data-name="Línea 5" x2="1" y2="312" transform="translate(68.5 39.5)" fill="none" stroke="#fff" stroke-width="8"/>
    <line id="Línea_6" data-name="Línea 6" x2="1" y2="312" transform="translate(237.5 39.5)" fill="none" stroke="#fff" stroke-width="8"/>
    <g id="Rectángulo_60" data-name="Rectángulo 60" transform="translate(25 247)" fill="#9e5e03" stroke="#fff" stroke-linejoin="bevel" stroke-width="8">
        <rect width="255" height="53" rx="15" stroke="none"/>
        <rect x="-4" y="-4" width="263" height="61" rx="19" fill="none"/>
    </g>
    <rect id="Rectángulo_61" data-name="Rectángulo 61" width="103" height="9" rx="4.5" transform="translate(45 269)" fill="#f0ddc2"/>
    <circle id="Elipse_13" data-name="Elipse 13" cx="4.5" cy="4.5" r="4.5" transform="translate(188 269)" fill="#f0ddc2"/>
    <circle id="Elipse_14" data-name="Elipse 14" cx="4.5" cy="4.5" r="4.5" transform="translate(201 269)" fill="#f0ddc2"/>
    <circle id="Elipse_15" data-name="Elipse 15" cx="4.5" cy="4.5" r="4.5" transform="translate(214 269)" fill="#f0ddc2"/>
    <circle id="Elipse_16" data-name="Elipse 16" cx="4.5" cy="4.5" r="4.5" transform="translate(227 269)" fill="#f0ddc2"/>
    <circle id="Elipse_17" data-name="Elipse 17" cx="4.5" cy="4.5" r="4.5" transform="translate(240 269)" fill="#f0ddc2"/>
    <circle id="Elipse_18" data-name="Elipse 18" cx="4.5" cy="4.5" r="4.5" transform="translate(253 269)" fill="#f0ddc2"/>
    <circle id="Elipse_19" data-name="Elipse 19" cx="4.5" cy="4.5" r="4.5" transform="translate(195 282)" fill="#f0ddc2"/>
    <circle id="Elipse_20" data-name="Elipse 20" cx="4.5" cy="4.5" r="4.5" transform="translate(208 282)" fill="#f0ddc2"/>
    <circle id="Elipse_21" data-name="Elipse 21" cx="4.5" cy="4.5" r="4.5" transform="translate(221 282)" fill="#f0ddc2"/>
    <circle id="Elipse_22" data-name="Elipse 22" cx="4.5" cy="4.5" r="4.5" transform="translate(234 282)" fill="#f0ddc2"/>
    <circle id="Elipse_23" data-name="Elipse 23" cx="4.5" cy="4.5" r="4.5" transform="translate(247 282)" fill="#f0ddc2"/>
    <circle id="Elipse_24" data-name="Elipse 24" cx="4.5" cy="4.5" r="4.5" transform="translate(195 256)" fill="#f0ddc2"/>
    <circle id="Elipse_25" data-name="Elipse 25" cx="4.5" cy="4.5" r="4.5" transform="translate(208 256)" fill="#f0ddc2"/>
    <circle id="Elipse_26" data-name="Elipse 26" cx="4.5" cy="4.5" r="4.5" transform="translate(221 256)" fill="#f0ddc2"/>
    <circle id="Elipse_27" data-name="Elipse 27" cx="4.5" cy="4.5" r="4.5" transform="translate(234 256)" fill="#f0ddc2"/>
    <circle id="Elipse_28" data-name="Elipse 28" cx="4.5" cy="4.5" r="4.5" transform="translate(247 256)" fill="#f0ddc2"/>
    <circle id="Elipse_29" data-name="Elipse 29" cx="7" cy="7" r="7" transform="translate(160 267)" fill="#f0ddc2"/>
</svg>
