<svg xmlns="http://www.w3.org/2000/svg" xmlns:xlink="http://www.w3.org/1999/xlink" width="241" height="275" viewBox="0 0 241 275">
    <defs>
        <filter id="Rectángulo_12" x="57" y="178" width="126" height="97" filterUnits="userSpaceOnUse">
            <feOffset dy="3" input="SourceAlpha"/>
            <feGaussianBlur stdDeviation="3" result="blur"/>
            <feFlood flood-opacity="0.161"/>
            <feComposite operator="in" in2="blur"/>
            <feComposite in="SourceGraphic"/>
        </filter>
        <filter id="Rectángulo_11" x="81" y="66" width="79" height="174" filterUnits="userSpaceOnUse">
            <feOffset dy="3" input="SourceAlpha"/>
            <feGaussianBlur stdDeviation="3" result="blur-2"/>
            <feFlood flood-opacity="0.161"/>
            <feComposite operator="in" in2="blur-2"/>
            <feComposite in="SourceGraphic"/>
        </filter>
        <filter id="Rectángulo_10" x="0" y="0" width="241" height="174" filterUnits="userSpaceOnUse">
            <feOffset dy="3" input="SourceAlpha"/>
            <feGaussianBlur stdDeviation="3" result="blur-3"/>
            <feFlood flood-opacity="0.161"/>
            <feComposite operator="in" in2="blur-3"/>
            <feComposite in="SourceGraphic"/>
        </filter>
    </defs>
    <g transform="matrix(1, 0, 0, 1, 0, 0)" filter="url(#Rectángulo_12)">
        <rect id="Rectángulo_12-2" data-name="Rectángulo 12" width="100" height="71" rx="20" transform="translate(70 188)" fill="#f0ddc2" stroke="#fff" stroke-linejoin="bevel" stroke-width="8"/>
    </g>
    <g transform="matrix(1, 0, 0, 1, 0, 0)" filter="url(#Rectángulo_11)">
        <rect id="Rectángulo_11-2" data-name="Rectángulo 11" width="53" height="148" rx="20" transform="translate(94 76)" fill="#f0ddc2" stroke="#fff" stroke-linejoin="bevel" stroke-width="8"/>
    </g>
    <g transform="matrix(1, 0, 0, 1, 0, 0)" filter="url(#Rectángulo_10)">
        <rect id="Rectángulo_10-2" data-name="Rectángulo 10" width="215" height="148" rx="20" transform="translate(13 10)" fill="#f0ddc2" stroke="#fff" stroke-linejoin="bevel" stroke-width="8"/>
    </g>
    <line id="Línea_3" data-name="Línea 3" y1="1" x2="210" transform="translate(15.5 17.5)" fill="none" stroke="#9e5e03" stroke-width="8"/>
    <g id="Rectángulo_14" data-name="Rectángulo 14" transform="translate(192 30)" fill="none" stroke="#9e5e03" stroke-width="2">
        <rect width="18" height="18" rx="5" stroke="none"/>
        <rect x="1" y="1" width="16" height="16" rx="4" fill="none"/>
    </g>
    <g id="Rectángulo_15" data-name="Rectángulo 15" transform="translate(192 58)" fill="none" stroke="#9e5e03" stroke-width="2">
        <rect width="18" height="18" rx="5" stroke="none"/>
        <rect x="1" y="1" width="16" height="16" rx="4" fill="none"/>
    </g>
    <rect id="Rectángulo_13" data-name="Rectángulo 13" width="215" height="148" rx="20" transform="translate(13 10)" fill="none" stroke="#fff" stroke-linejoin="bevel" stroke-width="8"/>
    <rect id="Rectángulo_20" data-name="Rectángulo 20" width="85" height="19" rx="9.5" transform="translate(78 132)" fill="#9e5e03"/>
    <rect id="Rectángulo_16" data-name="Rectángulo 16" width="8" height="8" rx="2" transform="translate(93 138)" fill="#f0ddc2"/>
    <rect id="Rectángulo_21" data-name="Rectángulo 21" width="8" height="8" rx="2" transform="translate(105 138)" fill="#f0ddc2"/>
    <rect id="Rectángulo_22" data-name="Rectángulo 22" width="8" height="8" rx="2" transform="translate(117 138)" fill="#f0ddc2"/>
    <rect id="Rectángulo_23" data-name="Rectángulo 23" width="8" height="8" rx="2" transform="translate(129 138)" fill="#f0ddc2"/>
    <rect id="Rectángulo_24" data-name="Rectángulo 24" width="8" height="8" rx="2" transform="translate(141 138)" fill="#f0ddc2"/>
</svg>
