<svg xmlns="http://www.w3.org/2000/svg" width="212.099" height="252.606" viewBox="0 0 212.099 252.606">
    <g id="Capa_2" data-name="Capa 2" transform="translate(0.009)">
        <g id="Capa_1" data-name="Capa 1" transform="translate(-0.009)">
            <path id="Trazado_5" data-name="Trazado 5" d="M377.218,401.35l.553,19.779a4.223,4.223,0,0,1-2.511,4.06l-32.03,14.13h0l.252-37.99Z" transform="translate(-173.886 -203.326)" fill="#d2deb9"/>
            <path id="Trazado_6" data-name="Trazado 6" d="M364.523,429.936l-21.333,9.4.257-37.97h20.218Z" transform="translate(-173.866 -203.346)" fill="#d2deb9"/>
            <path id="Trazado_7" data-name="Trazado 7" d="M213.131,41.792,194.5,12.007a8.432,8.432,0,0,0-7.154-3.947H103.9a8.432,8.432,0,0,0-7.154,3.947L78.13,41.792l67.5,25.31Z" transform="translate(-39.579 -4.083)" fill="#d2deb9"/>
            <path id="Trazado_8" data-name="Trazado 8" d="M86.68,461.23V478.1a4.218,4.218,0,0,0,4.218,4.228H209.026a4.218,4.218,0,0,0,4.218-4.218V461.24Z" transform="translate(-43.91 -233.673)" fill="#d2deb9"/>
            <path id="Trazado_9" data-name="Trazado 9" d="M17.7,401.35l-.553,19.779a4.228,4.228,0,0,0,2.516,4.06l31.773,14.13h0V401.33Z" transform="translate(-8.68 -203.326)" fill="#d2deb9"/>
            <path id="Trazado_10" data-name="Trazado 10" d="M207.684,89.19a25.315,25.315,0,0,0-15.561-22.508L160.548,53.534a8.442,8.442,0,0,0-7.776.671l-35.9,22.848a12.675,12.675,0,0,1-13.592,0L67.4,54.205a8.442,8.442,0,0,0-7.776-.671L28.053,66.683A25.315,25.315,0,0,0,12.492,89.19L8,221.9a4.223,4.223,0,0,0,2.6,4.041l27.782,11.525h.587l-.38,12.453a8.437,8.437,0,0,0,8.432,8.654H173.163a8.442,8.442,0,0,0,8.437-8.654l-.37-12.453h0l28.359-11.535a4.223,4.223,0,0,0,2.6-4.041Z" transform="translate(-4.046 -26.794)" fill="#d6e3bd"/>
            <path id="Trazado_11" data-name="Trazado 11" d="M386.619,243.689l-4.5-132.717a25.265,25.265,0,0,0-5.7-15.072l-16.72,16.72a25.31,25.31,0,0,0-7.4,17.895v6.414l3.38,122.356,28.359-11.535A4.223,4.223,0,0,0,386.619,243.689Z" transform="translate(-178.476 -48.586)" fill="#d6e3bd"/>
            <path id="Trazado_12" data-name="Trazado 12" d="M35.182,112.5,18.329,95.65a25.221,25.221,0,0,0-5.817,15.206L8,243.562a4.218,4.218,0,0,0,2.6,4.041l27.782,11.525h.587L42.6,136.772V130.4a25.314,25.314,0,0,0-7.414-17.9Z" transform="translate(-4.046 -48.459)" fill="#d6e3bd"/>
            <path id="Trazado_13" data-name="Trazado 13" d="M196.82,315.86a149.006,149.006,0,0,0,16.873,50.625H120.88a148.947,148.947,0,0,0,16.878-50.625Z" transform="translate(-61.237 -160.024)" fill="#d2deb9"/>
            <path id="Trazado_14" data-name="Trazado 14" d="M212.086,194.97l-4.5-132.717a29.336,29.336,0,0,0-17.993-26.025l-17.362-7.223L158.3,5.98A12.458,12.458,0,0,0,147.7,0H64.39A12.458,12.458,0,0,0,53.773,5.98L39.86,29.005,22.5,36.238A29.336,29.336,0,0,0,4.505,62.263L0,194.97a8.2,8.2,0,0,0,4.973,7.805l-.71,14.85a8.229,8.229,0,0,0,4.87,7.845L38.8,238.559v5.856a8.18,8.18,0,0,0,8.175,8.19H165.107a8.18,8.18,0,0,0,8.175-8.175v-5.856l29.676-13.1a8.229,8.229,0,0,0,4.87-7.869l-.71-14.826a8.2,8.2,0,0,0,4.968-7.805ZM159.848,23.854l-1.83-.765a12.4,12.4,0,0,0-11.422.987L110.713,46.92a8.728,8.728,0,0,1-8.338.548L151.337,9.8c.064.094.133.178.192.276Zm-52.588,9.867L71.8,7.894h69.023ZM60.537,10.084a4.09,4.09,0,0,1,.257-.37l39.948,29.025L95.216,43,65.471,24.076a12.393,12.393,0,0,0-11.417-.987l-1.835.765ZM12.409,62.53A21.417,21.417,0,0,1,25.542,43.54L57.118,30.392a4.49,4.49,0,0,1,4.13.355L93.677,51.385V109.43a3.947,3.947,0,0,0,7.894,0V55.563a16.661,16.661,0,0,0,8.965,0V109.43a3.947,3.947,0,0,0,7.894,0V51.385l32.429-20.633a4.475,4.475,0,0,1,4.13-.36L186.539,43.54a21.407,21.407,0,0,1,13.134,18.99l4.5,132.717a.276.276,0,0,1-.163.252l-23.05,9.571L177.51,88.215a3.949,3.949,0,0,0-7.894.237l4,134.769a4.485,4.485,0,0,1-4.48,4.6H42.978a4.48,4.48,0,0,1-4.5-4.578l4-134.789a3.949,3.949,0,1,0-7.894-.237L31.127,205.069l-23.06-9.576a.276.276,0,0,1-.163-.252Zm-.247,155.461L12.735,206l18.136,7.534L30.585,223a12.413,12.413,0,0,0,.4,3.454l-18.654-8.21A.271.271,0,0,1,12.162,217.991ZM165.107,244.7H46.979a.266.266,0,0,1-.266-.266v-8.7H165.373v8.7a.266.266,0,0,1-.266.281Zm34.659-26.45L181.1,226.482a12.557,12.557,0,0,0,.4-3.478l-.281-9.473L199.352,206l.572,11.994a.271.271,0,0,1-.158.257Z" transform="translate(0.009)" fill="#598e3a"/>
            <path id="Trazado_15" data-name="Trazado 15" d="M116.815,366.378h92.813a3.947,3.947,0,0,0,3.389-5.99,145.8,145.8,0,0,1-16.35-49.15,3.947,3.947,0,0,0-3.917-3.4H133.693a3.947,3.947,0,0,0-3.917,3.4,146.648,146.648,0,0,1-16.35,49.15,3.947,3.947,0,0,0,3.389,5.99Zm20.287-50.63h52.3a157.919,157.919,0,0,0,13.686,42.721H123.4A157.919,157.919,0,0,0,137.1,315.749Z" transform="translate(-57.172 -155.961)" fill="#578839"/>
        </g>
    </g>
    <rect id="Rectángulo_101" data-name="Rectángulo 101" width="26" height="27" rx="10" transform="translate(133.049 82.606)" fill="#5c9d03"/>
</svg>
