<svg xmlns="http://www.w3.org/2000/svg" xmlns:xlink="http://www.w3.org/1999/xlink" width="201" height="187" viewBox="0 0 201 187">
    <defs>
        <filter id="Rectángulo_97" x="0" y="0" width="156" height="187" filterUnits="userSpaceOnUse">
            <feOffset dy="3" input="SourceAlpha"/>
            <feGaussianBlur stdDeviation="3" result="blur"/>
            <feFlood flood-opacity="0.161"/>
            <feComposite operator="in" in2="blur"/>
            <feComposite in="SourceGraphic"/>
        </filter>
        <filter id="Elipse_81" x="93" y="38" width="108" height="105" filterUnits="userSpaceOnUse">
            <feOffset dy="3" input="SourceAlpha"/>
            <feGaussianBlur stdDeviation="3" result="blur-2"/>
            <feFlood flood-opacity="0.161"/>
            <feComposite operator="in" in2="blur-2"/>
            <feComposite in="SourceGraphic"/>
        </filter>
    </defs>
    <g transform="matrix(1, 0, 0, 1, 0, 0)" filter="url(#Rectángulo_97)">
        <g id="Rectángulo_97-2" data-name="Rectángulo 97" transform="translate(9 6)" fill="#ddf0c2" stroke="#5c9d03" stroke-width="8">
            <path d="M10,0H128a10,10,0,0,1,10,10V129a40,40,0,0,1-40,40H40A40,40,0,0,1,0,129V10A10,10,0,0,1,10,0Z" stroke="none"/>
            <path d="M10,4H128a6,6,0,0,1,6,6V129a36,36,0,0,1-36,36H40A36,36,0,0,1,4,129V10A6,6,0,0,1,10,4Z" fill="none"/>
        </g>
    </g>
    <g transform="matrix(1, 0, 0, 1, 0, 0)" filter="url(#Elipse_81)">
        <g id="Elipse_81-2" data-name="Elipse 81" transform="translate(102 44)" fill="none" stroke="#5c9d03" stroke-width="12">
            <ellipse cx="45" cy="43.5" rx="45" ry="43.5" stroke="none"/>
            <ellipse cx="45" cy="43.5" rx="39" ry="37.5" fill="none"/>
        </g>
    </g>
    <rect id="Rectángulo_98" data-name="Rectángulo 98" width="59" height="97" transform="translate(80 41)" fill="#ddf0c2"/>
    <rect id="Rectángulo_101" data-name="Rectángulo 101" width="46" height="46" rx="10" transform="translate(59 65)" fill="#5c9d03"/>
</svg>
