<svg xmlns="http://www.w3.org/2000/svg" xmlns:xlink="http://www.w3.org/1999/xlink" width="199" height="380" viewBox="0 0 199 380">
    <defs>
        <filter id="Rectángulo_11" x="60" y="170" width="79" height="111" filterUnits="userSpaceOnUse">
            <feOffset dy="3" input="SourceAlpha"/>
            <feGaussianBlur stdDeviation="3" result="blur"/>
            <feFlood flood-opacity="0.161"/>
            <feComposite operator="in" in2="blur"/>
            <feComposite in="SourceGraphic"/>
        </filter>
        <filter id="Rectángulo_75" x="76" y="273" width="47" height="107" filterUnits="userSpaceOnUse">
            <feOffset dy="3" input="SourceAlpha"/>
            <feGaussianBlur stdDeviation="3" result="blur-2"/>
            <feFlood flood-opacity="0.161"/>
            <feComposite operator="in" in2="blur-2"/>
            <feComposite in="SourceGraphic"/>
        </filter>
        <filter id="Rectángulo_74" x="12" y="239" width="175" height="70" filterUnits="userSpaceOnUse">
            <feOffset dy="3" input="SourceAlpha"/>
            <feGaussianBlur stdDeviation="3" result="blur-3"/>
            <feFlood flood-opacity="0.161"/>
            <feComposite operator="in" in2="blur-3"/>
            <feComposite in="SourceGraphic"/>
        </filter>
        <filter id="Rectángulo_75-2" x="76" y="38" width="47" height="107" filterUnits="userSpaceOnUse">
            <feOffset dy="3" input="SourceAlpha"/>
            <feGaussianBlur stdDeviation="3" result="blur-4"/>
            <feFlood flood-opacity="0.161"/>
            <feComposite operator="in" in2="blur-4"/>
            <feComposite in="SourceGraphic"/>
        </filter>
        <filter id="Rectángulo_85" x="45" y="0" width="109" height="70" filterUnits="userSpaceOnUse">
            <feOffset dy="3" input="SourceAlpha"/>
            <feGaussianBlur stdDeviation="3" result="blur-5"/>
            <feFlood flood-opacity="0.161"/>
            <feComposite operator="in" in2="blur-5"/>
            <feComposite in="SourceGraphic"/>
        </filter>
        <filter id="Rectángulo_73" x="13" y="57" width="173" height="190" filterUnits="userSpaceOnUse">
            <feOffset dy="3" input="SourceAlpha"/>
            <feGaussianBlur stdDeviation="3" result="blur-6"/>
            <feFlood flood-opacity="0.161"/>
            <feComposite operator="in" in2="blur-6"/>
            <feComposite in="SourceGraphic"/>
        </filter>
    </defs>
    <g transform="matrix(1, 0, 0, 1, 0, 0)" filter="url(#Rectángulo_11)">
        <rect id="Rectángulo_11-2" data-name="Rectángulo 11" width="53" height="85" rx="20" transform="translate(73 180)" fill="#f0ddc2" stroke="#fff" stroke-linejoin="bevel" stroke-width="8"/>
    </g>
    <g transform="matrix(1, 0, 0, 1, 0, 0)" filter="url(#Rectángulo_75)">
        <rect id="Rectángulo_75-3" data-name="Rectángulo 75" width="25" height="85" rx="12.5" transform="translate(87 281)" fill="#f0ddc2" stroke="#fff" stroke-linejoin="bevel" stroke-width="4"/>
    </g>
    <g transform="matrix(1, 0, 0, 1, 0, 0)" filter="url(#Rectángulo_74)">
        <g id="Rectángulo_74-2" data-name="Rectángulo 74" transform="translate(21 245)" fill="#9e5e03" stroke="#fff" stroke-width="8">
            <rect width="157" height="52" rx="26" stroke="none"/>
            <rect x="4" y="4" width="149" height="44" rx="22" fill="none"/>
        </g>
    </g>
    <g id="Rectángulo_76" data-name="Rectángulo 76" transform="translate(8 235)" fill="#9e5e03" stroke="#fff" stroke-width="8">
        <rect width="13" height="45" rx="6.5" stroke="none"/>
        <rect x="-4" y="-4" width="21" height="53" rx="10.5" fill="none"/>
    </g>
    <g id="Rectángulo_77" data-name="Rectángulo 77" transform="translate(178 235)" fill="#9e5e03" stroke="#fff" stroke-width="8">
        <rect width="13" height="45" rx="6.5" stroke="none"/>
        <rect x="-4" y="-4" width="21" height="53" rx="10.5" fill="none"/>
    </g>
    <g transform="matrix(1, 0, 0, 1, 0, 0)" filter="url(#Rectángulo_75-2)">
        <rect id="Rectángulo_75-4" data-name="Rectángulo 75" width="25" height="85" rx="12.5" transform="translate(87 46)" fill="#f0ddc2" stroke="#fff" stroke-linejoin="bevel" stroke-width="4"/>
    </g>
    <g transform="matrix(1, 0, 0, 1, 0, 0)" filter="url(#Rectángulo_85)">
        <g id="Rectángulo_85-2" data-name="Rectángulo 85" transform="translate(54 6)" fill="#9e5e03" stroke="#fff" stroke-width="8">
            <rect width="91" height="52" rx="26" stroke="none"/>
            <rect x="4" y="4" width="83" height="44" rx="22" fill="none"/>
        </g>
    </g>
    <g transform="matrix(1, 0, 0, 1, 0, 0)" filter="url(#Rectángulo_73)">
        <g id="Rectángulo_73-2" data-name="Rectángulo 73" transform="translate(22 63)" fill="#9e5e03" stroke="#fff" stroke-width="8">
            <rect width="155" height="172" rx="40" stroke="none"/>
            <rect x="4" y="4" width="147" height="164" rx="36" fill="none"/>
        </g>
    </g>
    <line id="Línea_19" data-name="Línea 19" y2="156" transform="translate(54.5 70.5)" fill="none" stroke="#f0ddc2" stroke-width="3"/>
    <line id="Línea_20" data-name="Línea 20" y2="156" transform="translate(142.5 70.5)" fill="none" stroke="#f0ddc2" stroke-width="3"/>
    <circle id="Elipse_68" data-name="Elipse 68" cx="8.5" cy="8.5" r="8.5" transform="translate(91 102)" fill="#f0ddc2"/>
</svg>
