<svg xmlns="http://www.w3.org/2000/svg" xmlns:xlink="http://www.w3.org/1999/xlink" width="278.929" height="344.358" viewBox="0 0 278.929 344.358">
    <defs>
        <filter id="Rectángulo_1" x="0" y="0" width="229.442" height="102.79" filterUnits="userSpaceOnUse">
            <feOffset dy="3" input="SourceAlpha"/>
            <feGaussianBlur stdDeviation="3" result="blur"/>
            <feFlood flood-color="#02617e" flood-opacity="0.231"/>
            <feComposite operator="in" in2="blur"/>
            <feComposite in="SourceGraphic"/>
        </filter>
        <filter id="Rectángulo_3" x="53.31" y="194.5" width="225.55" height="149.858" filterUnits="userSpaceOnUse">
            <feOffset dy="3" input="SourceAlpha"/>
            <feGaussianBlur stdDeviation="3" result="blur-2"/>
            <feFlood flood-opacity="0.161"/>
            <feComposite operator="in" in2="blur-2"/>
            <feComposite in="SourceGraphic"/>
        </filter>
        <filter id="Icon_awesome-dollar-sign" x="83.921" y="81.589" width="107.113" height="134.74" filterUnits="userSpaceOnUse">
            <feOffset dy="3" input="SourceAlpha"/>
            <feGaussianBlur stdDeviation="3" result="blur-3"/>
            <feFlood flood-opacity="0.161"/>
            <feComposite operator="in" in2="blur-3"/>
            <feComposite in="SourceGraphic"/>
        </filter>
    </defs>
    <g id="Componente_7_4" data-name="Componente 7 – 4" transform="translate(9 52.79) rotate(-13)">
        <rect id="Rectángulo_2" data-name="Rectángulo 2" width="208" height="260" transform="translate(0 39)" fill="#b6d689"/>
        <g transform="matrix(0.97, 0.22, -0.22, 0.97, 3.11, -53.46)" filter="url(#Rectángulo_1)">
            <rect id="Rectángulo_1-2" data-name="Rectángulo 1" width="208" height="39" transform="translate(9 52.79) rotate(-13)" fill="#5c9d03"/>
        </g>
        <text id="Inversión" transform="translate(62 26)" fill="#fff" font-size="21" font-family="AvenirNext-UltraLight, Avenir Next" font-weight="100"><tspan x="0" y="0">Inversión</tspan></text>
        <rect id="Rectángulo_6" data-name="Rectángulo 6" width="23.953" height="23.953" transform="translate(181.176 2.684) rotate(45)" fill="#ddf0c2"/>
        <text id="_-500" data-name="-500" transform="translate(174 25)" fill="#5e9e03" font-size="6" font-family="AvenirNext-Medium, Avenir Next" font-weight="500"><tspan x="0" y="0">-500</tspan></text>
        <path id="Icon_awesome-coins" data-name="Icon awesome-coins" d="M0,5.712v.6c0,.5,1.212.9,2.706.9s2.706-.4,2.706-.9v-.6a5.125,5.125,0,0,1-2.706.6A5.125,5.125,0,0,1,0,5.712ZM4.51,1.8C6,1.8,7.215,1.4,7.215.9S6,0,4.51,0,1.8.4,1.8.9,3.016,1.8,4.51,1.8ZM0,4.233v.727c0,.5,1.212.9,2.706.9s2.706-.4,2.706-.9V4.233a4.538,4.538,0,0,1-2.706.727A4.538,4.538,0,0,1,0,4.233Zm5.862.155c.807-.156,1.353-.447,1.353-.781v-.6a3.461,3.461,0,0,1-1.353.486ZM2.706,2.255C1.212,2.255,0,2.759,0,3.382S1.212,4.51,2.706,4.51s2.706-.5,2.706-1.127S4.2,2.255,2.706,2.255Zm3.09.793C6.642,2.9,7.215,2.6,7.215,2.255v-.6a4.588,4.588,0,0,1-2.265.589A1.578,1.578,0,0,1,5.8,3.048Z" transform="translate(177.568 8.919)" fill="#5e9e03"/>
        <g transform="matrix(0.97, 0.22, -0.22, 0.97, 3.11, -53.46)" filter="url(#Rectángulo_3)">
            <rect id="Rectángulo_3-2" data-name="Rectángulo 3" width="192" height="91" rx="20" transform="translate(62.31 243.69) rotate(-13)" fill="#fff"/>
        </g>
        <text id="Inversión_Startup_Capital" data-name="Inversión Startup Capital" transform="translate(65 214)" font-size="6" font-family="AvenirNext-Regular, Avenir Next"><tspan x="0" y="0">Inversión Startup Capital</tspan></text>
        <text id="Lorem_ipsum_dolor_sit_amet_consectetur_adipiscing._Sed_pellentesque_massa_at_eros_placerat_ornare._Nunc_ullamcorper_vel_leo_ut_consectetur._" data-name="Lorem ipsum dolor sit amet, consectetur adipiscing.
Sed pellentesque massa at eros placerat ornare.
Nunc ullamcorper vel leo ut consectetur. " transform="translate(17 230)" font-size="6" font-family="AvenirNext-UltraLight, Avenir Next" font-weight="100"><tspan x="0" y="0">Lorem ipsum dolor sit amet, consectetur adipiscing. </tspan><tspan x="0" y="8">Sed pellentesque massa at eros placerat ornare. </tspan><tspan x="0" y="16">Nunc ullamcorper vel leo ut consectetur. </tspan></text>
        <g id="Icon_awesome-dollar-sign-2" data-name="Icon awesome-dollar-sign" transform="translate(80.53 77.556)">
            <g transform="matrix(0.97, 0.22, -0.22, 0.97, -77.42, -131.02)" filter="url(#Icon_awesome-dollar-sign)">
                <g id="Icon_awesome-dollar-sign-3" data-name="Icon awesome-dollar-sign" transform="translate(104.91 110.24) rotate(-13)" fill="#ddf0c2">
                    <path d="M 26.3256893157959 89.25320434570312 L 21.05986022949219 89.25320434570312 C 16.85105895996094 89.25320434570312 13.42695140838623 85.82909393310547 13.42695140838623 81.62029266357422 L 13.42695140838623 78.25693511962891 C 8.961471557617188 77.43476867675781 4.711836338043213 75.54119873046875 1.11977207660675 72.72906494140625 C -0.657872200012207 71.34854888916016 -1.749752521514893 69.27858734130859 -1.876648426055908 67.04660034179688 C -2.001710414886475 64.84676361083984 -1.168584942817688 62.70512390136719 0.4090799689292908 61.17025756835938 L 6.123291492462158 55.58739471435547 C 7.554935455322266 54.18383026123047 9.446287155151367 53.41097259521484 11.44932079315186 53.41097259521484 C 12.94398212432861 53.41097259521484 14.38658237457275 53.84957122802734 15.62116718292236 54.67937088012695 L 15.63239765167236 54.68690872192383 L 15.64358234405518 54.69452667236328 C 16.46147537231445 55.25069427490234 17.46164321899414 55.55698776245117 18.45985984802246 55.55698776245117 L 28.34973907470703 55.55698776245117 L 12.46422863006592 50.90756988525391 C 10.20545959472656 50.2462158203125 8.051090240478516 49.27401733398438 6.060505390167236 48.0178337097168 C 4.073367118835449 46.76384735107422 2.287766933441162 45.2512321472168 0.75327467918396 43.52204895019531 C -2.514771461486816 39.83932495117188 -4.469817638397217 35.39389419555664 -4.900540828704834 30.66632461547852 C -5.200817584991455 27.36320304870605 -4.809110164642334 24.11907958984375 -3.736402273178101 21.02307891845703 C -2.708233118057251 18.0556640625 -1.107663750648499 15.36924839019775 1.020843863487244 13.0384635925293 C 3.155582427978516 10.7008638381958 5.695505619049072 8.857602119445801 8.570059776306152 7.559925079345703 C 10.13894176483154 6.851672172546387 11.76201820373535 6.327203750610352 13.42695140838623 5.989176750183105 L 13.42695140838623 2.632909774780273 C 13.42695140838623 -1.575890183448792 16.85105895996094 -4.999997615814209 21.05986022949219 -4.999997615814209 L 26.3256893157959 -4.999997615814209 C 30.53449058532715 -4.999997615814209 33.95859909057617 -1.575890183448792 33.95859909057617 2.632909774780273 L 33.95859909057617 5.996270179748535 C 38.42407608032227 6.818439483642578 42.6737174987793 8.712014198303223 46.26580429077148 11.52414608001709 C 48.04346466064453 12.90468311309814 49.13533401489258 14.97464561462402 49.26221466064453 17.20666313171387 C 49.38726806640625 19.40663909912109 48.55403900146484 21.54838180541992 46.97615814208984 23.083251953125 L 41.26226806640625 28.66580009460449 C 39.83060836791992 30.06938171386719 37.93926239013672 30.84223365783691 35.93622970581055 30.84223365783691 C 34.44156646728516 30.84223365783691 32.99896621704102 30.40361785888672 31.76438331604004 29.57383346557617 L 31.75316619873047 29.56629371643066 L 31.74199867248535 29.55869483947754 C 30.92407417297363 29.00252532958984 29.92388916015625 28.69621849060059 28.92568969726562 28.69621849060059 L 19.03608131408691 28.69621849060059 L 35.82598114013672 33.60881805419922 C 38.86821365356445 34.49678802490234 41.65229034423828 35.98652648925781 44.09773635864258 38.03573989868164 C 46.47872161865234 40.03094100952148 48.40807342529297 42.44497299194336 49.83219909667969 45.21078491210938 C 51.23898315429688 47.94289398193359 52.07404327392578 50.87109375 52.3141975402832 53.91401672363281 C 52.56630706787109 57.1085090637207 52.14871978759766 60.29096984863281 51.07301330566406 63.37298583984375 C 49.49056625366211 67.90452575683594 46.48107528686523 71.75980377197266 42.36962890625 74.52278900146484 C 40.43508911132812 75.82283020019531 38.30890655517578 76.84089660644531 36.05012130737305 77.54866027832031 C 35.36049270629883 77.76475524902344 34.66265106201172 77.95059967041016 33.95859909057617 78.10585021972656 L 33.95859909057617 81.62029266357422 C 33.95859909057617 85.82909393310547 30.53449058532715 89.25320434570312 26.3256893157959 89.25320434570312 Z" stroke="none"/>
                    <path d="M 21.05985450744629 0 C 19.61177253723145 0 18.42695999145508 1.184806823730469 18.42695999145508 2.632911682128906 L 18.42695999145508 10.53164672851562 L 18.01556396484375 10.53164672851562 C 7.533271789550781 10.53164672851562 -0.8920402526855469 19.53291320800781 0.07883453369140625 30.21266555786133 C 0.7699813842773438 37.79874801635742 6.562397003173828 43.96964263916016 13.86872863769531 46.10887145996094 L 30.73581314086914 51.04558181762695 C 32.79277038574219 51.65445709228516 34.22441864013672 53.56330871582031 34.22441864013672 55.70256042480469 C 34.22441864013672 58.38483047485352 32.05227279663086 60.55699920654297 29.3700008392334 60.55699920654297 L 18.4598560333252 60.55699920654297 C 16.4522705078125 60.55699920654297 14.47758483886719 59.94814300537109 12.83200073242188 58.82914352416992 C 11.82821273803711 58.15445709228516 10.47885513305664 58.31902313232422 9.623146057128906 59.15824890136719 L 3.896564483642578 64.75318908691406 C 2.72821044921875 65.88864135742188 2.892772674560547 67.78103637695312 4.192771911621094 68.78485107421875 C 8.224418640136719 71.94432830810547 13.25985717773438 73.70510101318359 18.42695999145508 73.7215576171875 L 18.42695999145508 81.62029266357422 C 18.42695999145508 83.06839752197266 19.61177253723145 84.25320434570312 21.05985450744629 84.25320434570312 L 26.3256893157959 84.25320434570312 C 27.7737922668457 84.25320434570312 28.95860481262207 83.06839752197266 28.95860481262207 81.62029266357422 L 28.95860481262207 73.68864440917969 C 36.62696075439453 73.54054260253906 43.8181037902832 68.98230743408203 46.35227203369141 61.72533416748047 C 49.89025115966797 51.588623046875 43.94975280761719 41.18862152099609 34.42189788818359 38.40760040283203 L 34.42189788818359 38.40762329101562 L 16.64973068237305 33.20760345458984 C 14.5927734375 32.61520767211914 13.16112518310547 30.68989562988281 13.16112518310547 28.55064392089844 C 13.16112518310547 25.86837387084961 15.33327102661133 23.69620513916016 18.01556396484375 23.69620513916016 L 28.92568969726562 23.69620513916016 C 30.93329238891602 23.69620513916016 32.90798187255859 24.30508041381836 34.55354309082031 25.4240608215332 C 35.55733489990234 26.0987434387207 36.90670776367188 25.93418121337891 37.76241683959961 25.09495544433594 L 43.48897933959961 19.5 C 44.65733337402344 18.36456298828125 44.49279403686523 16.47216796875 43.19279479980469 15.46835327148438 C 39.16112518310547 12.30887603759766 34.12568664550781 10.54810333251953 28.95860481262207 10.53164672851562 L 28.95860481262207 2.632911682128906 C 28.95860481262207 1.184806823730469 27.7737922668457 0 26.3256893157959 0 L 21.05985450744629 0 M 21.05985450744629 -10 L 26.3256893157959 -10 C 33.11378479003906 -10 38.6685791015625 -4.618667602539062 38.94759750366211 2.102081298828125 C 42.70113754272461 3.297080993652344 46.24190139770508 5.152984619140625 49.36104202270508 7.59735107421875 C 52.24044036865234 9.820396423339844 54.04452133178711 13.23543548583984 54.25414657592773 16.9228515625 C 54.46160507202148 20.57220458984375 53.07808303833008 24.12539291381836 50.45831298828125 26.67137145996094 L 44.75081253051758 32.24772644042969 C 44.73915100097656 32.25916290283203 44.72735595703125 32.27068710327148 44.71565628051758 32.28207397460938 C 48.71816253662109 34.92121887207031 52.04227066040039 38.58075332641602 54.27752304077148 42.92187118530273 C 57.82466888427734 49.81083297729492 58.36312866210938 57.65899658203125 55.79370880126953 65.02064514160156 C 53.05448913574219 72.86486053466797 46.76704788208008 78.94282531738281 38.95678329467773 81.83649444580078 C 38.84086608886719 88.70289611816406 33.21922302246094 94.25320434570312 26.3256893157959 94.25320434570312 L 21.05985450744629 94.25320434570312 C 14.27175903320312 94.25320434570312 8.716983795166016 88.87187194824219 8.437965393066406 82.151123046875 C 4.684425354003906 80.95613098144531 1.143642425537109 79.1002197265625 -1.975498199462891 76.65585327148438 C -4.854854583740234 74.43283081054688 -6.658935546875 71.01779174804688 -6.868583679199219 67.33039855957031 C -7.076061248779297 63.68106079101562 -5.692562103271484 60.12785339355469 -3.072830200195312 57.58187103271484 L 2.634773254394531 52.00543594360352 C 2.688323974609375 51.95291519165039 2.742095947265625 51.90110015869141 2.796440124511719 51.84964752197266 C -4.307918548583984 47.10539627075195 -9.115306854248047 39.51237487792969 -9.879917144775391 31.11997604370117 C -10.59243774414062 23.28216552734375 -7.964916229248047 15.46347808837891 -2.671268463134766 9.666770935058594 C 0.4031410217285156 6.300186157226562 4.230415344238281 3.766143798828125 8.433258056640625 2.231208801269531 C 8.646049499511719 -4.549522399902344 14.2283935546875 -10 21.05985450744629 -10 Z" stroke="none" fill="#5e9e03"/>
                </g>
            </g>
        </g>
        <path id="Polígono_3" data-name="Polígono 3" d="M7.458,5.57a12.7,12.7,0,0,1,15.084,0l.135.1a12.7,12.7,0,0,1,4.551,14.079l-.135.421A12.7,12.7,0,0,1,15,29h0A12.7,12.7,0,0,1,2.907,20.17l-.135-.421A12.7,12.7,0,0,1,7.323,5.669Z" transform="translate(9 4)" fill="#ddf0c2"/>
        <text id="_1" data-name="1" transform="translate(19 24)" fill="#5e9e03" font-size="17" font-family="AvenirNext-Regular, Avenir Next"><tspan x="0" y="0">1</tspan></text>
        <rect id="Rectángulo_7" data-name="Rectángulo 7" width="64" height="14" rx="7" transform="translate(13 262)" fill="#ddf0c2"/>
        <text id="_100_Horas_mes" data-name="+100 Horas/mes" transform="translate(17 271)" font-size="6" font-family="AvenirNext-UltraLight, Avenir Next" font-weight="100"><tspan x="0" y="0">+100 Horas/mes</tspan></text>
        <rect id="Rectángulo_8" data-name="Rectángulo 8" width="61" height="14" rx="7" transform="translate(82 262)" fill="#ddf0c2"/>
        <text id="_80_Dinero_mes" data-name="+80 Dinero/mes" transform="translate(86 271)" font-size="6" font-family="AvenirNext-UltraLight, Avenir Next" font-weight="100"><tspan x="0" y="0">+80 Dinero/mes</tspan></text>
        <rect id="Rectángulo_9" data-name="Rectángulo 9" width="47.039" height="13.76" rx="6.88" transform="matrix(1, 0.017, -0.017, 1, 148.429, 261.93)" fill="#ddf0c2"/>
        <text id="_10_Cultura" data-name="+10 Cultura" transform="translate(152 271)" font-size="6" font-family="AvenirNext-UltraLight, Avenir Next" font-weight="100"><tspan x="0" y="0">+10 Cultura</tspan></text>
    </g>
</svg>
