<svg xmlns="http://www.w3.org/2000/svg" xmlns:xlink="http://www.w3.org/1999/xlink" width="326.995" height="230" viewBox="0 0 326.995 230">
    <defs>
        <filter id="Elipse_78" x="108.995" y="9" width="208" height="208" filterUnits="userSpaceOnUse">
            <feOffset dy="3" input="SourceAlpha"/>
            <feGaussianBlur stdDeviation="3" result="blur"/>
            <feFlood flood-opacity="0.161"/>
            <feComposite operator="in" in2="blur"/>
            <feComposite in="SourceGraphic"/>
        </filter>
        <filter id="Elipse_79" x="118.995" y="22" width="208" height="208" filterUnits="userSpaceOnUse">
            <feOffset dy="3" input="SourceAlpha"/>
            <feGaussianBlur stdDeviation="3" result="blur-2"/>
            <feFlood flood-opacity="0.161"/>
            <feComposite operator="in" in2="blur-2"/>
            <feComposite in="SourceGraphic"/>
        </filter>
        <filter id="Elipse_80" x="108.995" y="13" width="208" height="208" filterUnits="userSpaceOnUse">
            <feOffset dy="3" input="SourceAlpha"/>
            <feGaussianBlur stdDeviation="3" result="blur-3"/>
            <feFlood flood-opacity="0.161"/>
            <feComposite operator="in" in2="blur-3"/>
            <feComposite in="SourceGraphic"/>
        </filter>
        <filter id="Elipse_76" x="99.995" y="0" width="208" height="208" filterUnits="userSpaceOnUse">
            <feOffset dy="3" input="SourceAlpha"/>
            <feGaussianBlur stdDeviation="3" result="blur-4"/>
            <feFlood flood-opacity="0.161"/>
            <feComposite operator="in" in2="blur-4"/>
            <feComposite in="SourceGraphic"/>
        </filter>
        <filter id="Elipse_77" x="120.995" y="21" width="164" height="165" filterUnits="userSpaceOnUse">
            <feOffset dy="3" input="SourceAlpha"/>
            <feGaussianBlur stdDeviation="3" result="blur-5"/>
            <feFlood flood-opacity="0.161"/>
            <feComposite operator="in" in2="blur-5"/>
            <feComposite in="SourceGraphic"/>
        </filter>
        <filter id="Icon_metro-spoon-fork" x="0" y="21.667" width="113.991" height="164.666" filterUnits="userSpaceOnUse">
            <feOffset dy="3" input="SourceAlpha"/>
            <feGaussianBlur stdDeviation="3" result="blur-6"/>
            <feFlood flood-opacity="0.161"/>
            <feComposite operator="in" in2="blur-6"/>
            <feComposite in="SourceGraphic"/>
        </filter>
        <filter id="Polígono_23" x="173.995" y="28" width="58" height="52" filterUnits="userSpaceOnUse">
            <feOffset dy="3" input="SourceAlpha"/>
            <feGaussianBlur stdDeviation="3" result="blur-7"/>
            <feFlood flood-opacity="0.161"/>
            <feComposite operator="in" in2="blur-7"/>
            <feComposite in="SourceGraphic"/>
        </filter>
        <filter id="Polígono_24" x="173.995" y="58" width="58" height="78" filterUnits="userSpaceOnUse">
            <feOffset dy="3" input="SourceAlpha"/>
            <feGaussianBlur stdDeviation="3" result="blur-8"/>
            <feFlood flood-opacity="0.161"/>
            <feComposite operator="in" in2="blur-8"/>
            <feComposite in="SourceGraphic"/>
        </filter>
        <filter id="Polígono_25" x="173.995" y="117" width="58" height="52" filterUnits="userSpaceOnUse">
            <feOffset dy="3" input="SourceAlpha"/>
            <feGaussianBlur stdDeviation="3" result="blur-9"/>
            <feFlood flood-opacity="0.161"/>
            <feComposite operator="in" in2="blur-9"/>
            <feComposite in="SourceGraphic"/>
        </filter>
    </defs>
    <g transform="matrix(1, 0, 0, 1, 0, 0)" filter="url(#Elipse_78)">
        <g id="Elipse_78-2" data-name="Elipse 78" transform="translate(118 15)" fill="#ddf0c2" stroke="#5c9d03" stroke-width="8">
            <circle cx="95" cy="95" r="95" stroke="none"/>
            <circle cx="95" cy="95" r="91" fill="none"/>
        </g>
    </g>
    <g transform="matrix(1, 0, 0, 1, 0, 0)" filter="url(#Elipse_79)">
        <g id="Elipse_79-2" data-name="Elipse 79" transform="translate(128 28)" fill="#ddf0c2" stroke="#5c9d03" stroke-width="8">
            <circle cx="95" cy="95" r="95" stroke="none"/>
            <circle cx="95" cy="95" r="91" fill="none"/>
        </g>
    </g>
    <g transform="matrix(1, 0, 0, 1, 0, 0)" filter="url(#Elipse_80)">
        <g id="Elipse_80-2" data-name="Elipse 80" transform="translate(118 19)" fill="#ddf0c2" stroke="#5c9d03" stroke-width="8">
            <circle cx="95" cy="95" r="95" stroke="none"/>
            <circle cx="95" cy="95" r="91" fill="none"/>
        </g>
    </g>
    <g transform="matrix(1, 0, 0, 1, 0, 0)" filter="url(#Elipse_76)">
        <g id="Elipse_76-2" data-name="Elipse 76" transform="translate(109 6)" fill="#ddf0c2" stroke="#5c9d03" stroke-width="8">
            <circle cx="95" cy="95" r="95" stroke="none"/>
            <circle cx="95" cy="95" r="91" fill="none"/>
        </g>
    </g>
    <g transform="matrix(1, 0, 0, 1, 0, 0)" filter="url(#Elipse_77)">
        <g id="Elipse_77-2" data-name="Elipse 77" transform="translate(130 27)" fill="#ddf0c2" stroke="#5c9d03" stroke-width="8">
            <ellipse cx="73" cy="73.5" rx="73" ry="73.5" stroke="none"/>
            <ellipse cx="73" cy="73.5" rx="69" ry="69.5" fill="none"/>
        </g>
    </g>
    <g transform="matrix(1, 0, 0, 1, 0, 0)" filter="url(#Icon_metro-spoon-fork)">
        <g id="Icon_metro-spoon-fork-2" data-name="Icon metro-spoon-fork" transform="translate(13.47 33.74)" fill="#ddf0c2">
            <path d="M 70.19368743896484 136.5945129394531 L 67.23106384277344 136.5945129394531 C 64.89466094970703 136.5945129394531 62.66104507446289 135.6045684814453 60.94168472290039 133.8070220947266 C 58.69868469238281 131.4620361328125 57.50710296630859 127.9843521118164 57.67252349853516 124.2656707763672 L 60.39547348022461 63.09460830688477 L 56.86192321777344 63.09460830688477 C 54.78570556640625 63.09460830688477 52.84204483032227 62.05688858032227 51.52934265136719 60.24752807617188 C 50.47820281982422 58.79868698120117 49.8993034362793 56.9390869140625 49.8993034362793 55.01128768920898 L 49.8993034362793 1.928028583526611 L 49.8993034362793 -2.071971416473389 L 53.8993034362793 -2.071971416473389 L 56.36808395385742 -2.071971416473389 L 59.91352462768555 -2.071971416473389 L 60.33916473388672 1.447828650474548 L 62.44617080688477 18.87193489074707 L 63.48520278930664 1.686628580093384 L 63.71244430541992 -2.071971416473389 L 67.4779052734375 -2.071971416473389 L 69.94678497314453 -2.071971416473389 L 73.71224212646484 -2.071971416473389 L 73.93948364257812 1.686628580093384 L 74.97850799560547 18.87191772460938 L 77.08550262451172 1.447828650474548 L 77.51114654541016 -2.071971416473389 L 81.05658721923828 -2.071971416473389 L 83.52538299560547 -2.071971416473389 L 87.52538299560547 -2.071971416473389 L 87.52538299560547 1.928028583526611 L 87.52538299560547 55.01128768920898 C 87.52538299560547 56.9390869140625 86.94648742675781 58.79868698120117 85.89534759521484 60.24752807617188 C 84.58262634277344 62.05688858032227 82.63898468017578 63.09460830688477 80.56276702880859 63.09460830688477 L 77.02920532226562 63.09460830688477 L 79.75222778320312 124.2655258178711 C 79.91764831542969 127.9843063354492 78.72610473632812 131.4620056152344 76.48308563232422 133.8070068359375 C 74.76372528076172 135.6045532226562 72.53010559082031 136.5945129394531 70.19368743896484 136.5945129394531 Z M 22.79172515869141 136.5945129394531 L 19.82910537719727 136.5945129394531 C 17.49268531799316 136.5945129394531 15.25906467437744 135.6045532226562 13.53970432281494 133.8070068359375 C 11.29668426513672 131.4620056152344 10.10514450073242 127.9843063354492 10.27056407928467 124.2656478881836 L 13.097243309021 60.76401519775391 C 11.61909675598145 59.88504791259766 10.2152099609375 58.76665496826172 8.901604652404785 57.41964721679688 C 6.961724758148193 55.43045043945312 5.262844562530518 52.98678970336914 3.852144479751587 50.15657043457031 C 2.470624446868896 47.38484954833984 1.398104548454285 44.30754852294922 0.6643845438957214 41.01010894775391 C -0.08519544452428818 37.64134979248047 -0.4652754366397858 34.10902786254883 -0.4652754366397858 30.51132774353027 C -0.4652754366397858 22.13976860046387 1.597944498062134 14.21168899536133 5.344324588775635 8.187488555908203 C 7.273484706878662 5.085368633270264 9.560484886169434 2.622308731079102 12.14174461364746 0.8667286038398743 C 15.00884437561035 -1.083251357078552 18.09362411499023 -2.071971416473389 21.3104248046875 -2.071971416473389 C 24.52722549438477 -2.071971416473389 27.61200523376465 -1.083251357078552 30.47910499572754 0.8667286038398743 C 33.06036376953125 2.622308731079102 35.34734344482422 5.085368633270264 37.27652359008789 8.187488555908203 C 41.02290344238281 14.21168899536133 43.08612442016602 22.13976860046387 43.08612442016602 30.51132774353027 C 43.08612442016602 34.10902786254883 42.7060432434082 37.64134979248047 41.95646286010742 41.01010894775391 C 41.22274398803711 44.30754852294922 40.15022277832031 47.38484954833984 38.76870346069336 50.15657043457031 C 37.35800552368164 52.98678970336914 35.65912628173828 55.43045043945312 33.71924591064453 57.41964721679688 C 32.4056396484375 58.76665496826172 31.00175285339355 59.88504791259766 29.52360534667969 60.76401519775391 L 32.35026550292969 124.2655258178711 C 32.51568603515625 127.9843063354492 31.32414436340332 131.4620056152344 29.08112525939941 133.8070068359375 C 27.36176490783691 135.6045532226562 25.12814521789551 136.5945129394531 22.79172515869141 136.5945129394531 Z" stroke="none"/>
            <path d="M 21.31041717529297 1.92803955078125 C 11.4930419921875 1.92803955078125 3.534721374511719 14.72516632080078 3.534721374511719 30.51132202148438 C 3.534721374511719 44.02764129638672 9.369392395019531 55.35147094726562 17.2095947265625 58.32872009277344 L 14.26661682128906 124.4433898925781 C 14.06719207763672 128.9263916015625 16.57024383544922 132.5944976806641 19.82911682128906 132.5944976806641 L 22.79171752929688 132.5944976806641 C 26.05059432983398 132.5944976806641 28.55364608764648 128.9263916015625 28.35422134399414 124.4433898925781 L 25.4112434387207 58.32874298095703 C 33.25144577026367 55.35147094726562 39.08612060546875 44.02764129638672 39.08612060546875 30.51132202148438 C 39.08612060546875 14.72516632080078 31.1277961730957 1.92803955078125 21.31041717529297 1.92803955078125 M 53.89929580688477 1.92803955078125 L 53.89929580688477 55.01129150390625 C 53.89929580688477 57.26629638671875 55.22562026977539 59.09459686279297 56.86191940307617 59.09459686279297 L 64.57749176025391 59.09459686279297 L 61.66857147216797 124.4433898925781 C 61.46914672851562 128.9263916015625 63.97219467163086 132.5944976806641 67.23107147216797 132.5944976806641 L 70.19369506835938 132.5944976806641 C 73.45256805419922 132.5944976806641 75.95559692382812 128.9263916015625 75.75617218017578 124.4433898925781 L 72.84716796875 59.09459686279297 L 80.56276702880859 59.09459686279297 C 82.19904327392578 59.09459686279297 83.52536773681641 57.26629638671875 83.52536773681641 55.01126861572266 L 83.52536773681641 1.92803955078125 L 81.05659484863281 1.92803955078125 L 76.11884307861328 42.76129150390625 L 72.41554260253906 42.76129150390625 L 69.94676971435547 1.92803955078125 L 67.47789001464844 1.92803955078125 L 65.00911712646484 42.76129150390625 L 61.30584716796875 42.76129150390625 L 56.36809539794922 1.92803955078125 L 53.89929580688477 1.92803955078125 M 21.31041717529297 -6.07196044921875 C 32.9975700378418 -6.07196044921875 42.63731002807617 4.435150146484375 45.89929580688477 19.30244445800781 L 45.89929580688477 -6.07196044921875 L 91.52536773681641 -6.07196044921875 L 91.52536773681641 55.01126861572266 C 91.52536773681641 61.54710388183594 87.04478454589844 66.71697998046875 81.21031951904297 67.07481384277344 L 83.74824523925781 124.0876159667969 C 83.96196746826172 128.8916625976562 82.36749267578125 133.4419250488281 79.37369537353516 136.5718688964844 C 76.89247131347656 139.1658935546875 73.63229370117188 140.5944976806641 70.19369506835938 140.5944976806641 L 67.23107147216797 140.5944976806641 C 63.7924690246582 140.5944976806641 60.53227233886719 139.1658935546875 58.05107116699219 136.5718383789062 C 55.05724334716797 133.44189453125 53.4627685546875 128.8916625976562 53.67646789550781 124.0878677368164 L 56.21435165405273 67.07481384277344 C 50.37986755371094 66.71697998046875 45.89929580688477 61.54710388183594 45.89929580688477 55.01129150390625 L 45.89929580688477 41.768798828125 C 43.91346740722656 50.86042785644531 39.54490661621094 58.39715576171875 33.61956024169922 62.83088684082031 L 36.34629440307617 124.087646484375 C 36.56002044677734 128.8916625976562 34.96554565429688 133.44189453125 31.97171783447266 136.5718383789062 C 29.49052047729492 139.1658935546875 26.23031997680664 140.5944976806641 22.79171752929688 140.5944976806641 L 19.82911682128906 140.5944976806641 C 16.39051818847656 140.5944976806641 13.13031768798828 139.1658935546875 10.64911651611328 136.5718383789062 C 7.655296325683594 133.44189453125 6.060821533203125 128.8916625976562 6.274520874023438 124.0878677368164 L 9.00128173828125 62.83086395263672 C 0.764556884765625 56.66764068603516 -4.465278625488281 44.50519561767578 -4.465278625488281 30.51132202148438 C -4.465278625488281 9.997344970703125 6.856742858886719 -6.07196044921875 21.31041717529297 -6.07196044921875 Z" stroke="none" fill="#5c9d03"/>
        </g>
    </g>
    <g transform="matrix(1, 0, 0, 1, 0, 0)" filter="url(#Polígono_23)">
        <path id="Polígono_23-2" data-name="Polígono 23" d="M20,0,40,34H0Z" transform="translate(223 68) rotate(180)" fill="#5c9d03"/>
    </g>
    <g transform="matrix(1, 0, 0, 1, 0, 0)" filter="url(#Polígono_24)">
        <path id="Polígono_24-2" data-name="Polígono 24" d="M20,0,40,60H0Z" transform="translate(183 64)" fill="#5c9d03"/>
    </g>
    <g transform="matrix(1, 0, 0, 1, 0, 0)" filter="url(#Polígono_25)">
        <path id="Polígono_25-2" data-name="Polígono 25" d="M20,0,40,34H0Z" transform="translate(223 157) rotate(180)" fill="#5c9d03"/>
    </g>
</svg>
